<svg width="416" height="278" viewBox="0 0 416 278" fill="none" xmlns="http://www.w3.org/2000/svg">
<g clip-path="url(#clip0_121_875)">
<path d="M197.084 131.69V153.953H203.123V128.237L197.084 131.69Z" fill="white"/>
<path d="M185.809 128.182C184.951 128.607 183.964 129.39 182.856 130.53V128.236H176.811V153.954H182.856V140.617C182.856 135.726 184.504 133.276 187.794 133.276C188.889 133.276 190.004 133.681 191.152 134.491L193.922 129.053C192.186 128.035 190.523 127.521 188.929 127.521C187.733 127.521 186.693 127.737 185.815 128.183" fill="white"/>
<path d="M261.217 122.069V128.237H256.65V133.781H261.217V153.961H267.263V133.781H271.958V128.237H267.263V118.811L261.217 122.076V122.069Z" fill="white"/>
<path d="M196.057 121.274C196.057 123.197 197.638 124.755 199.597 124.755C201.556 124.755 203.13 123.197 203.13 121.274C203.13 119.351 201.543 117.799 199.597 117.799C197.651 117.799 196.057 119.358 196.057 121.274Z" fill="white"/>
<path d="M246.02 121.274C246.02 123.197 247.607 124.755 249.56 124.755C251.512 124.755 253.093 123.197 253.093 121.274C253.093 119.351 251.505 117.799 249.56 117.799C247.614 117.799 246.02 119.358 246.02 121.274Z" fill="white"/>
<path d="M160.369 127.52C156.355 127.52 153.438 129.2 151.789 131.737H151.681V116.044L145 120.289V154.014H150.471L150.803 150.5H150.911C152.837 153.744 155.917 155.047 159.382 155.047C165.435 155.047 171.536 150.338 171.536 140.88C171.589 132.872 166.916 127.521 160.369 127.521V127.52ZM157.835 149.803C154.923 149.803 152.559 147.854 151.842 145.155V145.142C151.734 144.656 151.681 144.117 151.681 143.577V139.306C151.681 138.658 151.789 138.064 151.904 137.573C152.62 134.651 155.146 132.708 157.896 132.708C162.409 132.708 164.659 136.493 164.659 141.147C164.659 146.504 162.078 149.803 157.836 149.803H157.835Z" fill="white"/>
<path d="M247.924 130.982C246.155 129.1 243.79 128.155 240.837 128.155C238.243 128.155 235.872 129.107 233.723 131.008V110L227.738 112.692V130.287C225.508 128.438 222.293 127.514 219.408 127.514C215.652 127.514 212.625 128.903 210.328 131.69C208.201 134.308 207.133 137.499 207.133 141.249C207.133 144.999 208.281 148.32 210.571 150.89C212.841 153.426 215.759 154.695 219.326 154.695C222.46 154.695 225.224 153.487 227.621 151.078V154.668C227.621 160.004 225.405 162.669 220.987 162.669C218.588 162.669 216.766 161.873 215.509 160.268C214.969 159.579 214.583 158.601 214.355 157.333H208.282C208.64 160.699 209.985 163.324 212.309 165.227C214.565 167.075 217.437 168 220.929 168C225.062 168 228.312 166.664 230.676 163.985C231.932 162.596 232.77 160.929 233.202 158.993C233.344 158.291 233.459 157.474 233.54 156.551C233.594 155.951 233.622 155.283 233.642 154.554L233.717 154.595V142.154C233.717 138.983 234.135 136.749 234.979 135.448C235.837 134.16 237.324 133.518 239.438 133.518C241.086 133.518 242.282 133.976 243.025 134.901C243.768 135.826 244.139 137.316 244.139 139.381V154.001H250.178V138.821C250.178 135.231 249.429 132.615 247.923 130.982H247.924ZM227.739 142.909C227.496 144.467 226.928 145.804 226.016 146.904C224.672 148.557 222.848 149.387 220.538 149.387C218.229 149.387 216.425 148.57 215.114 146.93C213.918 145.432 213.316 143.517 213.316 141.176C213.316 138.834 213.918 136.864 215.114 135.366C216.438 133.693 218.248 132.857 220.538 132.857C222.686 132.857 224.45 133.626 225.828 135.151C226.841 136.271 227.484 137.668 227.74 139.347V142.91L227.739 142.909Z" fill="white"/>
</g>
<defs>
<clipPath id="clip0_121_875">
<rect width="126.959" height="58" fill="white" transform="translate(145 110)"/>
</clipPath>
</defs>
</svg>
