<svg width="416" height="278" viewBox="0 0 416 278" fill="none" xmlns="http://www.w3.org/2000/svg">
<g clip-path="url(#clip0_121_678)">
<path d="M162.988 127.904C163.27 126.463 164.045 125.164 165.179 124.231C166.313 123.298 167.736 122.787 169.205 122.787C170.674 122.787 172.097 123.298 173.231 124.231C174.365 125.164 175.14 126.463 175.422 127.904H162.988ZM178.197 129.121C178.197 126.737 177.249 124.45 175.563 122.764C173.877 121.078 171.59 120.131 169.205 120.13C164.251 120.13 160.213 124.169 160.213 129.121C160.213 130.761 160.662 132.369 161.51 133.773C162.359 135.176 163.575 136.32 165.027 137.082C166.479 137.844 168.111 138.195 169.748 138.096C171.385 137.997 172.964 137.452 174.313 136.521L172.79 134.344C171.944 134.924 170.97 135.29 169.951 135.411C168.932 135.532 167.899 135.403 166.941 135.036C165.983 134.67 165.128 134.076 164.45 133.306C163.772 132.536 163.291 131.613 163.049 130.616H177.556C177.858 130.616 178.113 130.389 178.145 130.088C178.179 129.771 178.197 129.449 178.197 129.121Z" fill="white"/>
<path d="M184.34 141.671C184.34 143.351 183.673 144.962 182.485 146.15C181.297 147.338 179.686 148.005 178.006 148.005C176.326 148.005 174.714 147.338 173.526 146.15C172.338 144.962 171.671 143.351 171.671 141.671C171.671 139.991 172.338 138.38 173.526 137.192C174.713 136.003 176.324 135.336 178.005 135.336C179.685 135.335 181.296 136.002 182.484 137.19C183.672 138.378 184.34 139.989 184.34 141.669V141.671ZM178.006 132.678C176.529 132.677 175.076 133.04 173.773 133.734C172.47 134.428 171.359 135.433 170.536 136.658C169.713 137.884 169.205 139.293 169.056 140.761C168.907 142.23 169.121 143.712 169.681 145.078C170.24 146.444 171.128 147.651 172.264 148.593C173.401 149.535 174.752 150.183 176.198 150.479C177.644 150.775 179.141 150.711 180.556 150.291C181.971 149.872 183.262 149.111 184.313 148.075C184.18 149.657 183.458 151.131 182.29 152.205C181.122 153.28 179.593 153.876 178.006 153.876C176.308 153.872 174.678 153.214 173.453 152.038V155.295C174.819 156.097 176.372 156.524 177.956 156.533C179.54 156.542 181.098 156.132 182.472 155.346C183.847 154.559 184.989 153.423 185.784 152.053C186.578 150.683 186.997 149.128 186.997 147.544V141.67C186.997 140.489 186.765 139.32 186.313 138.229C185.861 137.138 185.199 136.147 184.364 135.312C183.529 134.477 182.538 133.814 181.447 133.362C180.356 132.91 179.186 132.678 178.006 132.678Z" fill="white"/>
<path d="M142.015 132.664C140.335 132.664 138.724 131.996 137.536 130.808C136.348 129.62 135.68 128.009 135.68 126.329C135.68 124.649 136.348 123.038 137.536 121.85C138.724 120.663 140.335 119.995 142.015 119.995C143.695 119.995 145.306 120.663 146.494 121.85C147.682 123.038 148.35 124.649 148.35 126.329C148.35 128.009 147.682 129.62 146.494 130.808C145.306 131.996 143.695 132.664 142.015 132.664ZM150.414 110H148.942C148.785 110 148.634 110.063 148.523 110.174C148.413 110.285 148.35 110.435 148.35 110.592V119.949C146.874 118.484 144.937 117.576 142.867 117.378C140.797 117.181 138.723 117.707 136.998 118.867C135.272 120.027 134.002 121.748 133.403 123.739C132.804 125.73 132.913 127.867 133.712 129.786C134.511 131.705 135.951 133.288 137.786 134.266C139.621 135.243 141.738 135.555 143.777 135.147C145.815 134.74 147.65 133.639 148.968 132.031C150.286 130.423 151.007 128.408 151.007 126.329V110.592C151.007 110.514 150.991 110.437 150.962 110.365C150.932 110.294 150.888 110.228 150.833 110.173C150.778 110.118 150.713 110.075 150.641 110.045C150.569 110.015 150.492 110 150.414 110Z" fill="white"/>
<path d="M136.129 138.755C132.285 137.772 131.582 136.552 132.17 135.144C132.805 133.628 137.418 132.607 139.346 136.035C139.42 136.165 139.54 136.264 139.682 136.311C139.824 136.359 139.979 136.352 140.116 136.292L141.522 135.643C141.599 135.608 141.667 135.557 141.722 135.493C141.777 135.429 141.818 135.355 141.842 135.274C141.866 135.193 141.872 135.109 141.861 135.025C141.849 134.942 141.82 134.862 141.776 134.791C140.773 133.19 139.222 130.998 135.125 131.001C131.504 131.004 128.618 133.428 128.884 136.466C129.089 138.794 130.705 140.37 135.361 141.491C139.796 142.558 139.808 144.275 139.468 145.057C139.169 145.741 138.181 147.042 135.826 147.044C133.81 147.045 132.056 146.222 130.731 144.208C130.651 144.089 130.531 144.003 130.392 143.966C130.253 143.929 130.106 143.944 129.977 144.008L128.331 144.822C128.258 144.858 128.193 144.908 128.14 144.97C128.088 145.032 128.048 145.104 128.025 145.182C128.001 145.26 127.994 145.342 128.004 145.423C128.014 145.504 128.041 145.582 128.082 145.652C128.84 146.932 131.104 149.967 135.552 149.964C138.987 149.961 140.626 148.562 141.626 147.22C141.774 146.313 142.114 145.471 142.603 144.737C142.799 143.164 142.811 140.466 136.129 138.755Z" fill="white"/>
<path d="M161.236 134.633H161.233V134.694C161.205 136.361 160.521 137.949 159.33 139.115C158.139 140.28 156.536 140.93 154.869 140.921C153.202 140.913 151.606 140.248 150.426 139.071C149.246 137.894 148.578 136.299 148.567 134.632C148.567 132.952 149.234 131.341 150.422 130.153C151.61 128.965 153.221 128.298 154.901 128.298C156.581 128.298 158.193 128.965 159.381 130.153C160.569 131.341 161.236 132.953 161.236 134.633ZM154.901 125.641C153.424 125.641 151.969 126.004 150.665 126.7C149.362 127.395 148.25 128.401 147.428 129.629C146.605 130.856 146.098 132.267 145.951 133.737C145.804 135.207 146.021 136.691 146.584 138.057C147.146 139.423 148.037 140.629 149.176 141.57C150.316 142.51 151.67 143.154 153.118 143.447C154.566 143.739 156.064 143.671 157.48 143.247C158.895 142.823 160.184 142.056 161.233 141.016V142.785C161.233 143.111 161.498 143.377 161.825 143.377H163.301C163.628 143.377 163.893 143.111 163.893 142.785V134.632C163.893 133.451 163.66 132.282 163.209 131.191C162.757 130.1 162.095 129.109 161.26 128.274C160.425 127.439 159.433 126.777 158.342 126.325C157.251 125.873 156.082 125.641 154.901 125.641Z" fill="white"/>
<path d="M173.453 148.447C173.453 146.479 172.671 144.591 171.279 143.199C169.887 141.807 167.999 141.025 166.03 141.025C164.062 141.025 162.174 141.807 160.782 143.199C159.389 144.591 158.607 146.479 158.607 148.447V158.369C158.607 158.696 158.873 158.961 159.2 158.961H160.675C161.003 158.961 161.267 158.696 161.267 158.369V148.448C161.293 147.202 161.806 146.016 162.697 145.144C163.587 144.272 164.783 143.783 166.03 143.783C167.276 143.783 168.473 144.271 169.363 145.143C170.254 146.015 170.767 147.201 170.793 148.447V166.65C170.793 166.978 171.058 167.242 171.385 167.242H172.861C173.188 167.242 173.453 166.978 173.453 166.65V148.447Z" fill="white"/>
<path d="M154.204 148.255V148.316C154.176 149.983 153.492 151.571 152.301 152.737C151.11 153.903 149.507 154.552 147.84 154.544C146.174 154.536 144.577 153.871 143.397 152.694C142.217 151.517 141.549 149.922 141.537 148.255C141.537 146.575 142.205 144.964 143.393 143.776C144.581 142.588 146.192 141.921 147.872 141.921C149.552 141.921 151.163 142.588 152.351 143.776C153.539 144.964 154.207 146.575 154.207 148.255H154.204ZM147.872 139.263C146.683 139.25 145.504 139.474 144.401 139.92C143.299 140.366 142.297 141.026 141.451 141.862C140.606 142.699 139.935 143.694 139.477 144.791C139.019 145.889 138.783 147.066 138.783 148.255C138.783 149.444 139.019 150.621 139.477 151.718C139.935 152.815 140.606 153.811 141.451 154.647C142.297 155.483 143.299 156.143 144.401 156.59C145.504 157.036 146.683 157.259 147.872 157.246C150.245 157.248 152.522 156.309 154.204 154.635V156.407C154.204 156.734 154.469 156.999 154.796 156.999H156.272C156.599 156.999 156.864 156.734 156.864 156.407V148.255C156.864 145.871 155.916 143.584 154.23 141.897C152.544 140.211 150.257 139.264 147.872 139.263Z" fill="white"/>
<path d="M198.377 133.944V143.283H200.489C200.952 143.283 201.315 143.27 201.578 143.246C201.841 143.221 202.113 143.158 202.395 143.058C202.676 142.958 202.92 142.817 203.126 142.635C204.058 141.847 204.525 140.489 204.525 138.562C204.525 137.204 204.32 136.187 203.91 135.513C203.5 134.836 202.995 134.406 202.395 134.222C201.794 134.037 201.068 133.944 200.216 133.944H198.377ZM197.298 131.739H200.93C201.875 131.739 202.685 131.826 203.361 132.002C204.044 132.18 204.674 132.518 205.201 132.987C206.634 134.214 207.351 136.078 207.351 138.581C207.351 139.406 207.277 140.162 207.135 140.843C207.004 141.487 206.78 142.108 206.468 142.687C206.166 143.237 205.776 143.733 205.314 144.156C204.953 144.482 204.545 144.751 204.103 144.953C203.653 145.157 203.178 145.299 202.69 145.376C202.126 145.462 201.557 145.503 200.986 145.499H197.354C196.847 145.499 196.465 145.421 196.209 145.268C196.086 145.199 195.979 145.106 195.893 144.995C195.806 144.883 195.743 144.756 195.707 144.62C195.628 144.342 195.59 143.981 195.59 143.536V133.447C195.59 132.847 195.724 132.412 195.993 132.143C196.262 131.873 196.697 131.739 197.298 131.739Z" fill="white"/>
<path d="M212.354 140.12H216.466L214.392 134.442L212.354 140.12ZM217.873 143.94L217.216 142.212H211.622L210.965 143.977C210.709 144.665 210.49 145.131 210.309 145.371C210.127 145.612 209.83 145.733 209.416 145.733C209.066 145.733 208.757 145.605 208.487 145.348C208.218 145.091 208.084 144.8 208.084 144.475C208.084 144.287 208.115 144.094 208.178 143.892C208.24 143.693 208.343 143.415 208.487 143.059L212.007 134.122L212.368 133.199C212.509 132.838 212.66 132.539 212.819 132.303C212.979 132.064 213.189 131.872 213.448 131.725C213.708 131.577 214.028 131.504 214.409 131.504C214.798 131.504 215.122 131.577 215.382 131.725C215.632 131.863 215.847 132.058 216.01 132.292C216.171 132.526 216.306 132.776 216.414 133.038C216.524 133.304 216.663 133.659 216.832 134.104L220.427 142.982C220.708 143.659 220.849 144.15 220.849 144.456C220.849 144.776 220.716 145.068 220.451 145.334C220.326 145.463 220.176 145.564 220.01 145.633C219.845 145.701 219.667 145.735 219.487 145.733C219.268 145.733 219.081 145.692 218.924 145.615C218.771 145.539 218.637 145.43 218.531 145.297C218.424 145.162 218.31 144.956 218.188 144.677C218.065 144.399 217.961 144.153 217.873 143.94Z" fill="white"/>
<path d="M231.579 133.889H225.3V137.268H231.081C231.506 137.268 231.824 137.362 232.033 137.554C232.138 137.649 232.22 137.766 232.274 137.896C232.329 138.027 232.354 138.167 232.349 138.308C232.349 138.621 232.245 138.877 232.039 139.074C231.832 139.271 231.513 139.369 231.081 139.369H225.3V143.284H231.795C232.233 143.284 232.562 143.385 232.785 143.588C233.007 143.792 233.117 144.063 233.117 144.401C233.123 144.549 233.096 144.696 233.038 144.833C232.981 144.97 232.894 145.092 232.785 145.192C232.562 145.397 232.233 145.498 231.795 145.498H224.22C223.612 145.498 223.176 145.363 222.91 145.095C222.645 144.825 222.512 144.39 222.512 143.79V133.446C222.512 133.048 222.571 132.72 222.689 132.466C222.809 132.213 222.994 132.028 223.249 131.913C223.502 131.797 223.825 131.739 224.22 131.739H231.579C232.023 131.739 232.353 131.838 232.569 132.035C232.676 132.133 232.76 132.252 232.816 132.386C232.872 132.52 232.899 132.664 232.893 132.809C232.893 133.134 232.785 133.395 232.569 133.593C232.353 133.79 232.023 133.889 231.579 133.889Z" fill="white"/>
<path d="M245.79 141.368C245.801 142.163 245.577 142.943 245.147 143.612C244.718 144.276 244.091 144.794 243.265 145.17C242.44 145.545 241.46 145.733 240.327 145.733C238.969 145.733 237.849 145.477 236.968 144.964C236.348 144.601 235.824 144.094 235.441 143.485C235.051 142.869 234.855 142.269 234.855 141.689C234.855 141.35 234.972 141.06 235.208 140.819C235.441 140.579 235.74 140.458 236.104 140.458C236.397 140.458 236.646 140.552 236.85 140.74C237.053 140.927 237.227 141.206 237.371 141.575C237.545 142.013 237.736 142.38 237.938 142.673C238.143 142.968 238.428 143.21 238.797 143.401C239.167 143.591 239.651 143.687 240.253 143.687C241.078 143.687 241.749 143.495 242.266 143.11C242.782 142.724 243.04 142.245 243.04 141.669C243.04 141.212 242.9 140.841 242.622 140.557C242.343 140.272 241.984 140.055 241.544 139.904C241.102 139.755 240.511 139.594 239.773 139.426C238.785 139.195 237.958 138.923 237.29 138.614C236.625 138.304 236.096 137.882 235.705 137.347C235.313 136.812 235.118 136.147 235.118 135.352C235.118 134.595 235.325 133.923 235.737 133.335C236.15 132.746 236.748 132.295 237.531 131.978C238.313 131.662 239.232 131.504 240.29 131.504C241.134 131.504 241.865 131.61 242.482 131.819C243.098 132.028 243.609 132.307 244.016 132.653C244.423 133.001 244.72 133.366 244.907 133.747C245.095 134.129 245.189 134.502 245.189 134.864C245.189 135.196 245.073 135.495 244.837 135.76C244.73 135.888 244.595 135.99 244.443 136.059C244.292 136.128 244.126 136.162 243.96 136.159C243.64 136.159 243.397 136.08 243.232 135.921C243.067 135.76 242.886 135.499 242.693 135.137C242.443 134.618 242.142 134.211 241.792 133.921C241.441 133.631 240.878 133.485 240.102 133.485C239.383 133.485 238.802 133.642 238.361 133.958C237.921 134.274 237.699 134.655 237.699 135.099C237.699 135.374 237.774 135.613 237.925 135.812C238.092 136.027 238.303 136.203 238.544 136.329C238.798 136.469 239.065 136.582 239.342 136.667C239.611 136.747 240.055 136.867 240.674 137.023C241.387 137.186 242.09 137.387 242.782 137.623C243.351 137.813 243.891 138.081 244.386 138.421C244.828 138.734 245.172 139.13 245.42 139.608C245.667 140.088 245.79 140.674 245.79 141.368Z" fill="white"/>
<path d="M251.055 140.12H255.166L253.093 134.442L251.055 140.12ZM256.574 143.94L255.917 142.212H250.323L249.666 143.977C249.41 144.665 249.191 145.131 249.01 145.371C248.828 145.612 248.532 145.733 248.117 145.733C247.767 145.733 247.457 145.605 247.188 145.348C246.919 145.091 246.785 144.8 246.785 144.475C246.785 144.287 246.816 144.094 246.879 143.892C246.94 143.693 247.045 143.415 247.188 143.059L250.708 134.122L251.07 133.199C251.21 132.838 251.361 132.539 251.52 132.303C251.679 132.064 251.89 131.872 252.149 131.725C252.408 131.577 252.729 131.504 253.111 131.504C253.499 131.504 253.824 131.577 254.083 131.725C254.333 131.863 254.548 132.058 254.711 132.292C254.872 132.526 255.007 132.776 255.115 133.038C255.225 133.304 255.364 133.659 255.533 134.104L259.127 142.982C259.409 143.659 259.551 144.15 259.551 144.456C259.551 144.776 259.417 145.068 259.152 145.334C259.027 145.463 258.877 145.564 258.711 145.633C258.546 145.701 258.368 145.735 258.189 145.733C257.97 145.733 257.782 145.692 257.625 145.615C257.472 145.539 257.338 145.43 257.232 145.297C257.125 145.162 257.012 144.956 256.89 144.677C256.767 144.399 256.662 144.153 256.574 143.94Z" fill="white"/>
<path d="M264.845 133.176L270.204 141.285V133.1C270.204 132.568 270.318 132.169 270.547 131.902C270.775 131.638 271.084 131.505 271.471 131.505C271.872 131.505 272.187 131.638 272.419 131.902C272.651 132.169 272.767 132.568 272.767 133.1V143.921C272.767 145.129 272.266 145.732 271.265 145.732C271.014 145.732 270.789 145.697 270.59 145.625C270.388 145.553 270.201 145.439 270.027 145.283C269.851 145.126 269.688 144.944 269.538 144.733C269.388 144.523 269.237 144.31 269.087 144.091L263.859 136.076V144.137C263.859 144.663 263.737 145.061 263.492 145.329C263.375 145.461 263.23 145.565 263.068 145.635C262.906 145.704 262.73 145.738 262.554 145.732C262.16 145.732 261.844 145.597 261.607 145.325C261.369 145.052 261.25 144.657 261.25 144.137V133.523C261.25 133.071 261.3 132.719 261.4 132.463C261.519 132.18 261.716 131.95 261.991 131.772C262.267 131.593 262.563 131.505 262.884 131.505C263.134 131.505 263.348 131.545 263.527 131.627C263.705 131.708 263.86 131.817 263.996 131.955C264.13 132.093 264.267 132.271 264.408 132.49C264.55 132.709 264.694 132.938 264.845 133.176Z" fill="white"/>
<path d="M288 139.904V142.542C288 142.892 287.966 143.172 287.897 143.381C287.822 143.6 287.691 143.796 287.517 143.949C287.301 144.14 287.064 144.304 286.809 144.438C285.976 144.888 285.176 145.217 284.406 145.423C283.635 145.63 282.797 145.733 281.89 145.733C280.833 145.733 279.869 145.57 278.999 145.245C278.162 144.941 277.403 144.457 276.775 143.827C276.148 143.187 275.666 142.418 275.362 141.575C275.033 140.693 274.869 139.708 274.869 138.619C274.869 137.549 275.028 136.569 275.348 135.681C275.668 134.793 276.137 134.038 276.756 133.419C277.397 132.786 278.17 132.3 279.018 131.997C279.906 131.668 280.914 131.504 282.041 131.504C282.967 131.504 283.786 131.628 284.499 131.874C285.213 132.122 285.791 132.434 286.236 132.809C286.681 133.184 287.015 133.582 287.241 134.001C287.466 134.42 287.579 134.793 287.579 135.118C287.579 135.468 287.449 135.767 287.189 136.014C287.066 136.134 286.92 136.229 286.759 136.293C286.599 136.357 286.428 136.388 286.255 136.386C286.052 136.384 285.851 136.334 285.67 136.241C285.49 136.148 285.333 136.014 285.213 135.849C284.869 135.312 284.577 134.905 284.34 134.63C284.102 134.355 283.781 134.123 283.377 133.936C282.974 133.747 282.459 133.653 281.833 133.653C281.189 133.653 280.614 133.765 280.106 133.986C279.605 134.205 279.161 134.536 278.807 134.953C278.447 135.376 278.171 135.894 277.981 136.506C277.783 137.167 277.686 137.854 277.694 138.544C277.694 140.158 278.065 141.399 278.807 142.269C279.548 143.139 280.582 143.574 281.909 143.574C282.553 143.574 283.159 143.49 283.725 143.321C284.322 143.14 284.899 142.897 285.447 142.598V140.364H283.289C282.769 140.364 282.377 140.286 282.111 140.13C281.845 139.973 281.711 139.708 281.711 139.332C281.711 139.025 281.823 138.771 282.045 138.572C282.267 138.372 282.569 138.271 282.95 138.271H286.114C286.502 138.271 286.831 138.305 287.099 138.375C287.366 138.442 287.599 138.606 287.752 138.834C287.918 139.072 288 139.429 288 139.904Z" fill="white"/>
</g>
<defs>
<clipPath id="clip0_121_678">
<rect width="160" height="57.2422" fill="white" transform="translate(128 110)"/>
</clipPath>
</defs>
</svg>
