<svg width="416" height="278" viewBox="0 0 416 278" fill="none" xmlns="http://www.w3.org/2000/svg">
<g clip-path="url(#clip0_121_884)">
<path d="M133.068 147.261V130.34H137.144C141.404 130.34 144.929 133.067 144.929 138.819C144.929 144.571 141.367 147.26 137.107 147.26H133.068L133.068 147.261ZM137.29 152.041C144.708 152.041 150.18 147.185 150.18 138.819C150.18 130.452 144.745 125.559 137.327 125.559H128V152.041H137.29ZM165.223 133.59C164.856 133.553 164.489 133.516 164.085 133.516C162.542 133.516 160.045 133.964 158.944 136.391V133.665H154.206V152.041H159.091V143.637C159.091 139.679 161.257 138.446 163.754 138.446C164.195 138.446 164.673 138.483 165.223 138.595V133.59ZM194.872 152.601C202.18 152.601 205.926 147.671 206.917 143.6L202.18 142.143C201.482 144.608 199.316 147.559 194.872 147.559C190.686 147.559 186.793 144.459 186.793 138.819C186.793 132.806 190.906 129.968 194.798 129.968C199.316 129.968 201.335 132.769 201.96 135.309L206.733 133.777C205.705 129.482 201.996 125 194.798 125C187.821 125 181.542 130.378 181.542 138.819C181.542 147.26 187.601 152.601 194.872 152.601ZM218.267 148.082C215.88 148.082 213.677 146.289 213.677 142.853C213.677 139.38 215.88 137.624 218.267 137.624C220.654 137.624 222.857 139.379 222.857 142.853C222.857 146.326 220.654 148.082 218.267 148.082ZM218.267 133.105C212.869 133.105 208.793 137.176 208.793 142.853C208.793 148.493 212.869 152.601 218.267 152.601C223.666 152.601 227.741 148.493 227.741 142.853C227.741 137.175 223.666 133.105 218.267 133.105ZM230.495 147.036C230.495 149.912 232.845 152.564 236.701 152.564C239.382 152.564 241.108 151.294 242.026 149.837C242.026 150.547 242.1 151.556 242.21 152.041H246.69C246.58 151.406 246.47 150.099 246.47 149.127V140.09C246.47 136.392 244.34 133.105 238.611 133.105C233.764 133.105 231.156 136.28 230.862 139.156L235.196 140.09C235.342 138.484 236.518 137.102 238.648 137.102C240.704 137.102 241.695 138.185 241.695 139.492C241.695 140.127 241.365 140.65 240.337 140.799L235.894 141.472C232.882 141.92 230.495 143.749 230.495 147.036ZM237.73 148.866C236.151 148.866 235.38 147.821 235.38 146.737C235.38 145.318 236.371 144.608 237.62 144.422L241.695 143.787V144.608C241.695 147.858 239.786 148.866 237.73 148.866ZM259.437 137.699C261.861 137.699 262.999 139.268 263.439 140.799L267.81 139.305C267.038 136.205 264.248 133.105 259.326 133.105C254.075 133.105 249.962 137.176 249.962 142.853C249.962 148.493 254.149 152.601 259.474 152.601C264.284 152.601 267.112 149.464 267.92 146.401L263.623 144.945C263.219 146.364 261.971 148.045 259.474 148.045C256.977 148.045 254.846 146.177 254.846 142.853C254.846 139.529 256.94 137.699 259.437 137.699ZM276.395 141.247C276.506 139.23 277.718 137.662 279.774 137.662C282.124 137.662 283.116 139.267 283.116 141.322V152.041H288V140.463C288 136.429 285.87 133.18 281.279 133.18C279.554 133.18 277.571 133.777 276.395 135.197V125H271.511V152.041H276.395V141.247Z" fill="white"/>
<path d="M170.725 143.741C173.203 143.741 175.213 145.785 175.213 148.306C175.213 150.827 173.203 152.871 170.725 152.871C168.246 152.871 166.236 150.827 166.236 148.306C166.236 145.785 168.246 143.741 170.725 143.741Z" fill="white"/>
</g>
<defs>
<clipPath id="clip0_121_884">
<rect width="160" height="27.871" fill="white" transform="translate(128 125)"/>
</clipPath>
</defs>
</svg>
