<svg width="416" height="278" viewBox="0 0 416 278" fill="none" xmlns="http://www.w3.org/2000/svg">
<g clip-path="url(#clip0_121_905)">
<path d="M210.784 135.827V136.536H190.547V135.775L193.526 134.861V114.361L190.547 113.727V113.029H203.404V113.727L200.664 114.361V134.861H206.857" fill="white"/>
<path d="M223.757 132.272C222.295 134.831 219.741 136.536 216.657 136.536C211.578 136.536 208.069 133.063 208.043 127.06C208.017 120.965 211.5 117.141 216.206 117.141C222.083 117.141 223.944 121.438 223.835 126.553H213.491C213.517 129.933 214.74 133.757 217.586 134.167C220.006 134.514 221.893 133.186 223.194 131.765L223.753 132.268L223.757 132.272ZM213.495 125.132H218.786C218.786 121.405 218.041 118.655 216.154 118.655C214.267 118.655 213.495 121.591 213.495 125.132Z" fill="white"/>
<path d="M228.932 117.141H229.705L230.204 119.461C231.241 118.174 232.863 117.141 234.885 117.141C237.145 117.141 238.74 118.204 239.538 119.815C240.523 118.364 242.279 117.141 244.486 117.141C247.783 117.141 249.778 119.427 249.778 122.326V134.861L251.508 135.827V136.536H243.103V135.827L244.911 134.861V122.714C244.911 120.009 243.767 119.17 242.518 119.17C241.481 119.17 240.47 120.039 239.937 121.006C240.045 121.423 240.097 121.875 240.097 122.326V134.861L241.854 135.827V136.536H233.449V135.827L235.231 134.861V122.714C235.231 120.009 234.169 119.17 232.919 119.17C231.909 119.17 230.924 119.976 230.391 120.909V134.861L232.252 135.827V136.536H223.742V135.827L225.551 134.861V120.491" fill="white"/>
<path d="M260.109 136.536C254.31 136.599 251.677 133.253 251.599 127.03C251.521 121.188 254.792 117.338 259.948 117.148C265.534 116.957 268.458 120.651 268.458 126.336C268.458 133.283 265.24 136.472 260.109 136.536ZM262.875 127.03C262.875 122.893 262.317 118.599 259.818 118.662C257.237 118.726 256.92 122.986 257.107 127.661C257.267 131.701 257.905 135.047 260.113 135.047C262.719 135.047 262.879 131.417 262.879 127.026L262.875 127.03Z" fill="white"/>
<path d="M220.216 164.904C214.417 164.967 211.785 161.681 211.706 155.574C211.628 149.84 214.898 146.057 220.056 145.87C225.642 145.684 228.565 149.31 228.565 154.891C228.565 161.71 225.347 164.844 220.216 164.904ZM222.983 155.574C222.983 151.511 222.424 147.295 219.925 147.359C217.345 147.422 217.028 151.604 217.214 156.193C217.374 160.162 218.012 163.449 220.22 163.449C222.826 163.449 222.987 159.882 222.987 155.574H222.983Z" fill="white"/>
<path d="M273.603 117.141H274.352L275.05 119.588C276.06 118.234 277.817 117.141 279.942 117.141C283.373 117.141 285.555 119.427 285.555 122.326V134.857L287.31 135.824V136.532H278.905V135.824L280.688 134.857V122.714C280.688 120.009 279.33 119.17 278.003 119.17C276.915 119.17 275.717 120.039 275.21 121.166V134.857L277.071 135.824V136.532H268.453V135.824L270.262 134.857V120.491" fill="white"/>
<path d="M198.739 142.21C196.987 142.557 195.395 144.236 196.457 146.638C197.617 149.168 201.786 149.358 204.833 150.593C207.976 151.857 209.501 153.786 209.997 155.812C210.56 158.121 210.031 161.441 206.623 163.374C202.551 165.683 197.751 164.765 195.697 164.512C193.612 164.228 190.648 163.557 190.648 163.557L190.547 156.819L191.606 156.748L195.794 162.74C197.184 163.15 198.609 163.437 200.063 163.31C201.786 163.184 203.971 162.49 204.068 159.703C204.135 157.711 201.917 156.256 198.803 155.211C196.353 154.327 191.419 153.629 190.692 148.918C189.864 143.635 194.302 141.042 199.202 140.598C204.202 140.188 209.401 141.926 209.401 141.926L209.501 148.157H208.308L204.467 143.001C203.177 142.21 200.925 141.736 198.739 142.21Z" fill="white"/>
<path d="M231.149 149.112H229.02V148.12L235.534 145.859H236.067V159.483C236.067 161.897 237 162.889 238.7 162.889C240.084 162.889 241.173 161.99 241.598 160.908V149.019H239.498V148.026L245.987 145.859H246.49V162.953L247.4 164.206V164.904H242.523L241.758 162.55C240.826 163.941 239.26 164.904 236.783 164.904C233.327 164.904 231.145 163.109 231.145 159.703V149.112H231.149Z" fill="white"/>
<path d="M253.698 145.859H254.47L255.186 148.261C256.197 146.933 257.953 145.859 260.079 145.859C263.51 145.859 265.69 148.105 265.69 150.951V163.255L267.447 164.202V164.9H259.042V164.202L260.824 163.255V151.328C260.824 148.672 259.467 147.847 258.139 147.847C257.05 147.847 255.854 148.702 255.347 149.81V163.255L257.207 164.202V164.9H248.59V164.202L250.398 163.255V149.146" fill="white"/>
<path d="M278.35 141.733V140.737L284.947 138.558H285.454V162.979L287.315 163.882V164.908H281.252L280.532 162.636C279.812 163.788 278.511 164.971 276.304 164.971C272.738 164.971 267.906 162.277 267.906 156.077C267.906 149.877 273.272 145.971 278.246 145.874C278.936 145.844 279.842 145.937 280.48 146.124V141.733H278.35ZM272.981 155.268C272.981 159.845 276.166 162.695 278.374 162.636C279.383 162.606 280.129 161.919 280.472 161.08V147.717C280.021 147.437 279.116 147.31 278.239 147.467C276.084 147.81 272.977 150.66 272.977 155.271L272.981 155.268Z" fill="white"/>
<path d="M157.985 114.082C157.985 114.082 154.126 114.082 155.088 119.166C156.053 124.251 157.5 133.399 157.5 133.399H157.508C157.538 133.645 157.735 133.839 157.981 133.839C158.227 133.839 158.425 133.645 158.455 133.399H158.462C158.462 133.399 159.909 124.247 160.875 119.166C161.841 114.082 157.978 114.082 157.978 114.082H157.985Z" fill="white"/>
<path d="M149.469 115.581C149.469 115.581 145.84 116.902 148.484 121.349C151.128 125.796 155.618 133.899 155.618 133.899H155.625C155.737 134.119 155.987 134.231 156.222 134.145C156.457 134.059 156.572 133.813 156.517 133.57H156.524C156.524 133.57 154.756 124.475 153.925 119.368C153.093 114.261 149.465 115.581 149.465 115.581H149.469Z" fill="white"/>
<path d="M141.977 119.909C141.977 119.909 139.02 122.393 143.025 125.665C147.03 128.937 154.018 135.018 154.018 135.018H154.025C154.208 135.182 154.48 135.204 154.671 135.044C154.861 134.883 154.887 134.611 154.753 134.402H154.76C154.76 134.402 149.991 126.456 147.462 121.942C144.934 117.428 141.977 119.909 141.977 119.909Z" fill="white"/>
<path d="M136.418 126.542C136.418 126.542 134.486 129.888 139.371 131.593C144.252 133.298 152.9 136.618 152.9 136.618V136.611C153.131 136.708 153.4 136.633 153.523 136.42C153.646 136.208 153.579 135.939 153.381 135.79V135.782C153.381 135.782 146.188 129.951 142.272 126.575C138.353 123.199 136.425 126.542 136.425 126.542H136.418Z" fill="white"/>
<path d="M133.456 134.671C133.456 134.671 132.785 138.476 137.957 138.405C143.129 138.338 152.385 138.498 152.385 138.498V138.491C152.634 138.506 152.858 138.345 152.903 138.099C152.948 137.853 152.791 137.629 152.552 137.554V137.547C152.552 137.547 143.8 134.533 138.964 132.697C134.127 130.862 133.456 134.667 133.456 134.667V134.671Z" fill="white"/>
<path d="M133.456 143.325C133.456 143.325 134.128 147.131 138.964 145.295C143.801 143.46 152.556 140.445 152.556 140.445V140.438C152.791 140.367 152.948 140.139 152.907 139.893C152.866 139.647 152.638 139.49 152.392 139.502V139.494C152.392 139.494 143.133 139.658 137.961 139.587C132.789 139.52 133.46 143.322 133.46 143.322L133.456 143.325Z" fill="white"/>
<path d="M136.416 151.458C136.416 151.458 138.348 154.805 142.263 151.425C146.182 148.048 153.376 142.217 153.376 142.217V142.21C153.57 142.061 153.64 141.796 153.514 141.58C153.387 141.363 153.122 141.292 152.895 141.389V141.382C152.895 141.382 144.247 144.702 139.362 146.407C134.481 148.112 136.409 151.458 136.409 151.458H136.416Z" fill="white"/>
<path d="M141.977 158.088C141.977 158.088 144.934 160.572 147.462 156.054C149.991 151.54 154.76 143.602 154.76 143.602H154.753C154.887 143.389 154.861 143.113 154.671 142.956C154.48 142.8 154.204 142.818 154.025 142.99H154.018C154.018 142.99 147.03 149.063 143.025 152.335C139.02 155.607 141.977 158.091 141.977 158.091V158.088Z" fill="white"/>
<path d="M149.469 162.415C149.469 162.415 153.097 163.736 153.929 158.629C154.76 153.521 156.528 144.43 156.528 144.43H156.52C156.576 144.184 156.457 143.937 156.226 143.852C155.995 143.766 155.741 143.881 155.629 144.102H155.622C155.622 144.102 151.132 152.201 148.488 156.648C145.844 161.095 149.473 162.415 149.473 162.415H149.469Z" fill="white"/>
<path d="M157.986 163.919C157.986 163.919 161.846 163.919 160.884 158.834C159.918 153.749 158.471 144.601 158.471 144.601H158.464C158.434 144.355 158.236 144.161 157.99 144.161C157.744 144.161 157.546 144.355 157.517 144.601H157.509C157.509 144.601 156.062 153.753 155.096 158.834C154.131 163.919 157.994 163.919 157.994 163.919H157.986Z" fill="white"/>
<path d="M166.507 162.415C166.507 162.415 170.135 161.095 167.491 156.648C164.848 152.201 160.358 144.098 160.358 144.098H160.35C160.239 143.878 159.989 143.766 159.754 143.852C159.519 143.937 159.403 144.184 159.459 144.426H159.452C159.452 144.426 161.219 153.521 162.051 158.629C162.882 163.736 166.511 162.415 166.511 162.415H166.507Z" fill="white"/>
<path d="M173.998 158.088C173.998 158.088 176.955 155.603 172.95 152.331C168.945 149.06 161.957 142.979 161.957 142.979H161.95C161.767 142.815 161.495 142.792 161.305 142.953C161.115 143.113 161.088 143.385 161.223 143.594H161.215C161.215 143.594 165.985 151.54 168.513 156.055C171.041 160.569 173.998 158.088 173.998 158.088Z" fill="white"/>
<path d="M179.557 151.458C179.557 151.458 181.489 148.112 176.604 146.407C171.723 144.702 163.075 141.382 163.075 141.382V141.39C162.844 141.293 162.576 141.367 162.453 141.58C162.329 141.793 162.397 142.061 162.594 142.21V142.218C162.594 142.218 169.787 148.049 173.703 151.425C177.622 154.801 179.55 151.458 179.55 151.458H179.557Z" fill="white"/>
<path d="M182.519 143.326C182.519 143.326 183.19 139.52 178.018 139.591C172.846 139.659 163.59 139.498 163.59 139.498V139.505C163.341 139.491 163.117 139.651 163.072 139.897C163.027 140.143 163.184 140.367 163.423 140.442V140.449C163.423 140.449 172.175 143.464 177.011 145.299C181.848 147.135 182.519 143.329 182.519 143.329V143.326Z" fill="white"/>
<path d="M182.519 134.671C182.519 134.671 181.848 130.866 177.012 132.701C172.175 134.536 163.419 137.551 163.419 137.551V137.558C163.185 137.629 163.028 137.857 163.069 138.103C163.11 138.349 163.337 138.506 163.584 138.495V138.502C163.584 138.502 172.843 138.338 178.015 138.409C183.187 138.476 182.516 134.675 182.516 134.675L182.519 134.671Z" fill="white"/>
<path d="M179.558 126.541C179.558 126.541 177.626 123.195 173.711 126.575C169.791 129.951 162.598 135.782 162.598 135.782V135.79C162.404 135.939 162.333 136.204 162.46 136.42C162.587 136.636 162.852 136.707 163.079 136.61V136.618C163.079 136.618 171.727 133.297 176.612 131.593C181.493 129.888 179.565 126.541 179.565 126.541H179.558Z" fill="white"/>
<path d="M173.998 119.909C173.998 119.909 171.041 117.424 168.513 121.942C165.985 126.456 161.215 134.395 161.215 134.395H161.223C161.088 134.607 161.115 134.883 161.305 135.04C161.495 135.201 161.771 135.178 161.95 135.007H161.957C161.957 135.007 168.945 128.933 172.95 125.661C176.955 122.39 173.998 119.905 173.998 119.905V119.909Z" fill="white"/>
<path d="M166.507 115.581C166.507 115.581 162.878 114.261 162.047 119.368C161.215 124.475 159.448 133.567 159.448 133.567H159.455C159.399 133.813 159.518 134.059 159.75 134.145C159.981 134.231 160.234 134.115 160.346 133.895H160.354C160.354 133.895 164.844 125.796 167.487 121.349C170.131 116.902 166.503 115.581 166.503 115.581H166.507Z" fill="white"/>
<path d="M157.986 168C142.003 168 129 154.991 129 138.998C129 123.005 142.003 110 157.986 110C173.968 110 186.971 123.009 186.971 138.998C186.971 154.988 173.968 167.996 157.986 167.996V168ZM157.986 111.212C142.671 111.209 130.208 123.676 130.208 138.998C130.208 154.32 142.671 166.788 157.986 166.788C173.301 166.788 185.763 154.32 185.763 138.998C185.763 123.676 173.304 111.209 157.986 111.209V111.212Z" fill="white"/>
</g>
<defs>
<clipPath id="clip0_121_905">
<rect width="158.464" height="58" fill="white" transform="translate(129 110)"/>
</clipPath>
</defs>
</svg>
