<svg width="416" height="278" viewBox="0 0 416 278" fill="none" xmlns="http://www.w3.org/2000/svg">
<g clip-path="url(#clip0_121_936)">
<path d="M205.789 161.634H202.609V142.531H205.789V161.634Z" fill="white"/>
<path d="M212.331 161.002C211.025 160.347 209.986 159.395 209.215 158.146C208.442 156.898 208.057 155.431 208.057 153.745V150.398C208.057 148.712 208.443 147.249 209.215 146.008C209.986 144.767 211.026 143.819 212.331 143.164C213.638 142.507 215.079 142.181 216.656 142.181C218.741 142.181 220.503 142.728 221.941 143.82C223.379 144.912 224.343 146.426 224.836 148.362L221.806 149.181C221.444 147.793 220.84 146.747 219.994 146.044C219.148 145.341 218.035 144.991 216.656 144.991C215.636 144.991 214.717 145.203 213.896 145.623C213.075 146.044 212.426 146.676 211.949 147.519C211.472 148.362 211.235 149.377 211.235 150.562V153.606C211.235 154.792 211.472 155.807 211.949 156.65C212.426 157.493 213.074 158.125 213.896 158.546C214.717 158.968 215.638 159.178 216.656 159.178C218.035 159.178 219.148 158.826 219.994 158.125C220.84 157.422 221.444 156.377 221.806 154.987L224.836 155.807C224.343 157.742 223.378 159.256 221.941 160.349C220.503 161.441 218.741 161.988 216.656 161.988C215.079 161.988 213.637 161.66 212.331 161.005V161.002Z" fill="white"/>
<path d="M230.16 153.112V158.965H240.091V161.634H226.98V142.531H239.845V145.2H230.16V150.444H239.376V153.113H230.16V153.112Z" fill="white"/>
<path d="M254.193 144.192C255.36 145.16 255.944 146.495 255.944 148.195C255.944 149.896 255.364 151.281 254.207 152.257C253.049 153.233 251.269 153.72 248.871 153.72H243.179V161.422H242.096V142.741H248.871C251.253 142.741 253.027 143.225 254.193 144.192ZM248.748 152.76C250.817 152.76 252.353 152.385 253.356 151.636C254.358 150.886 254.86 149.74 254.86 148.194C254.86 146.648 254.358 145.534 253.356 144.8C252.354 144.066 250.818 143.7 248.748 143.7H243.177V152.76H248.748Z" fill="white"/>
<path d="M259.167 152.199V160.462H270.009V161.422H258.082V142.741H269.763V143.7H259.167V151.239H269.294V152.199H259.167Z" fill="white"/>
<path d="M276.185 160.826C274.968 160.194 274.007 159.281 273.301 158.087C272.595 156.892 272.24 155.485 272.24 153.861V150.303C272.24 148.679 272.594 147.271 273.301 146.078C274.007 144.883 274.968 143.97 276.185 143.339C277.4 142.707 278.755 142.391 280.251 142.391C282.107 142.391 283.676 142.882 284.957 143.865C286.239 144.848 287.116 146.215 287.594 147.962L286.558 148.22C286.115 146.627 285.359 145.418 284.292 144.591C283.225 143.765 281.877 143.35 280.251 143.35C278.936 143.35 277.753 143.623 276.702 144.17C275.65 144.717 274.825 145.523 274.225 146.592C273.626 147.662 273.326 148.961 273.326 150.491V153.675C273.326 155.205 273.625 156.504 274.225 157.573C274.825 158.642 275.65 159.45 276.702 159.996C277.753 160.543 278.936 160.815 280.251 160.815C281.877 160.815 283.225 160.405 284.292 159.586C285.359 158.766 286.115 157.562 286.558 155.969L287.594 156.227C287.116 157.96 286.242 159.317 284.968 160.3C283.695 161.283 282.122 161.775 280.249 161.775C278.754 161.775 277.4 161.459 276.183 160.827L276.185 160.826Z" fill="white"/>
<path fill-rule="evenodd" clip-rule="evenodd" d="M189.373 116C188.457 116 187.675 116.57 187.36 117.375C187.29 117.463 187.223 117.553 187.166 117.654L166.485 153.475C165.889 154.509 166.242 155.832 167.277 156.43L174.769 160.756C175.803 161.352 177.126 160.998 177.724 159.964L187.211 143.531V159.517C187.211 160.712 188.18 161.68 189.374 161.68H198.023C199.217 161.68 200.186 160.712 200.186 159.517V118.163C200.186 116.968 199.217 116 198.023 116H189.373Z" fill="white"/>
<path fill-rule="evenodd" clip-rule="evenodd" d="M180.964 149.425L145.415 128.28C144.389 127.669 143.062 128.007 142.452 129.032L138.03 136.468C137.931 136.635 137.859 136.81 137.808 136.99L128.29 153.473C127.692 154.507 128.048 155.83 129.082 156.428L136.574 160.754C137.608 161.352 138.931 160.998 139.529 159.962L148.162 145.011L174.332 160.577C175.359 161.189 176.686 160.85 177.297 159.823L181.719 152.388C182.33 151.361 181.992 150.034 180.967 149.423L180.964 149.425Z" fill="white"/>
<path d="M193.243 116L193.033 116.567L193.166 161.679H193.603L193.469 116H193.243Z" fill="white"/>
<path d="M193.033 116H192.778L176.299 160.616L176.591 160.909C176.617 160.9 176.642 160.891 176.668 160.88L193.035 116.567V116H193.033Z" fill="white"/>
<path d="M193.035 116.567L193.245 116H193.033L193.035 116.567Z" fill="white"/>
<path d="M176.3 160.616L143.924 128.013C143.89 128.019 143.857 128.026 143.823 128.034L143.752 128.459L176.093 161.027C176.114 161.024 176.133 161.021 176.152 161.018L176.3 160.616Z" fill="white"/>
<path d="M176.591 160.909L176.299 160.616L176.15 161.018C176.301 160.998 176.448 160.961 176.591 160.909Z" fill="white"/>
<path d="M143.449 128.158C143.416 128.172 143.382 128.187 143.35 128.203L137.801 161.039C137.957 161.028 138.11 160.999 138.259 160.955L143.75 128.46L143.449 128.156V128.158Z" fill="white"/>
<path d="M143.749 128.46L143.821 128.034C143.692 128.063 143.568 128.105 143.447 128.156L143.748 128.46H143.749Z" fill="white"/>
</g>
<defs>
<clipPath id="clip0_121_936">
<rect width="160" height="45.988" fill="white" transform="translate(128 116)"/>
</clipPath>
</defs>
</svg>
