<svg width="416" height="278" viewBox="0 0 416 278" fill="none" xmlns="http://www.w3.org/2000/svg">
<g clip-path="url(#clip0_121_772)">
<mask id="mask0_121_772" style="mask-type:luminance" maskUnits="userSpaceOnUse" x="181" y="103" width="54" height="72">
<path d="M235 103H181V175H235V103Z" fill="white"/>
</mask>
<g mask="url(#mask0_121_772)">
<path d="M234.1 103.818V155.364H181.9V103.818H234.1ZM234.918 103H181.082V156.182H234.918V103Z" fill="white"/>
</g>
<mask id="mask1_121_772" style="mask-type:luminance" maskUnits="userSpaceOnUse" x="181" y="103" width="54" height="72">
<path d="M235 103H181V175H235V103Z" fill="white"/>
</mask>
<g mask="url(#mask1_121_772)">
<path d="M196.955 120.509C197.118 120.591 197.2 120.755 197.2 121C197.2 121.164 197.2 121.245 197.2 121.327C197.2 121.327 197.2 121.409 197.118 121.491L197.037 121.573C196.955 121.736 196.873 121.818 196.709 121.9C196.627 121.9 196.546 121.982 196.546 121.982L196.382 122.064C196.3 122.064 196.3 122.145 196.218 122.227C196.137 122.309 196.137 122.309 196.055 122.391C195.973 122.473 195.809 122.473 195.809 122.473C195.727 122.473 195.727 122.555 195.646 122.555L195.4 122.8L195.155 122.964C195.073 122.964 195.073 123.045 194.991 123.045L194.827 123.209L194.664 123.291L194.5 123.455L194.582 123.536C194.664 123.536 194.664 123.618 194.746 123.7L194.827 123.782L194.991 123.864L195.073 123.945C195.237 124.027 195.4 124.109 195.4 124.191C195.4 124.273 195.482 124.273 195.482 124.436C195.482 124.436 195.482 124.436 195.482 124.518L195.237 124.845C195.155 124.927 195.155 124.927 195.155 124.927C195.073 124.927 195.073 125.009 195.073 125.009C195.073 125.091 194.991 125.091 194.991 125.091C194.909 125.255 194.827 125.336 194.664 125.336L194.5 125.418C194.337 125.5 194.255 125.582 194.091 125.582C194.091 125.582 194.009 125.582 193.927 125.664C193.846 125.664 193.764 125.745 193.682 125.827L193.518 125.909C193.518 125.909 193.518 125.909 193.518 125.991V126.318V126.564V126.645L193.437 126.727V126.809C193.437 126.891 193.437 126.891 193.437 126.891H193.518C193.6 126.809 193.6 126.809 193.764 126.809C193.846 126.809 193.846 126.809 193.927 126.727L194.255 126.564C194.255 126.564 194.337 126.482 194.418 126.482C194.5 126.482 194.5 126.482 194.582 126.482H194.909C194.991 126.482 195.073 126.482 195.155 126.482C195.155 126.482 195.237 126.482 195.4 126.482L195.646 126.564L195.809 126.645C195.973 126.645 196.055 126.727 196.137 126.809C196.137 126.891 196.218 126.973 196.218 127.055L196.3 127.136L196.382 127.218L196.627 127.464C196.709 127.464 196.709 127.545 196.709 127.627C196.709 127.709 196.709 127.709 196.627 127.791C196.627 127.791 196.627 127.873 196.546 127.873C196.546 127.873 196.464 127.955 196.464 128.036C196.382 128.118 196.382 128.118 196.3 128.2L196.137 128.282H195.973C195.891 128.282 195.891 128.282 195.809 128.282C195.809 128.282 195.727 128.364 195.727 128.445C195.646 128.527 195.482 128.609 195.4 128.691C195.318 128.691 195.318 128.691 195.155 128.691C195.073 128.691 194.991 128.691 194.909 128.773C194.909 128.773 194.827 128.773 194.746 128.773C194.664 128.773 194.582 128.773 194.418 128.855C194.418 128.855 194.337 128.936 194.255 128.936C194.173 129.018 194.091 129.018 194.009 128.936C194.009 128.936 193.927 128.936 193.927 129.018C193.846 129.018 193.846 129.1 193.846 129.1L193.764 129.182H193.682C193.682 129.264 193.6 129.264 193.518 129.264C193.437 129.264 193.437 129.264 193.355 129.264C193.273 129.345 193.273 129.345 193.191 129.427C193.191 129.591 193.109 129.673 193.109 129.755V129.836C193.109 129.918 193.109 129.918 193.109 130C193.109 130.082 193.109 130.164 193.109 130.164C193.109 130.245 193.027 130.491 193.027 130.736C193.027 130.818 192.946 130.982 192.946 131.146C192.864 131.309 192.864 131.391 192.864 131.473L192.782 131.8C192.782 131.8 192.782 131.882 192.7 131.964C192.7 131.964 192.618 132.045 192.618 132.127C192.618 132.209 192.537 132.209 192.537 132.209C192.537 132.291 192.455 132.291 192.455 132.373C192.373 132.455 192.373 132.455 192.373 132.455C192.373 132.536 192.291 132.7 192.209 132.782C192.127 132.864 192.127 132.945 192.046 132.945C192.046 133.027 191.964 133.027 191.964 133.109C191.964 133.191 191.882 133.191 191.882 133.273C191.882 133.273 191.8 133.355 191.718 133.436C191.718 133.436 191.718 133.518 191.637 133.518L191.555 133.6L191.473 133.682C191.473 133.764 191.391 133.764 191.391 133.845L191.309 133.927L191.146 134.091L190.818 134.009C190.737 134.091 190.737 134.091 190.655 134.091C190.491 134.091 190.409 134.173 190.409 134.255L190.327 134.336L190.246 134.418C190.246 134.418 190.246 134.418 190.164 134.418H190.082C190 134.5 190 134.5 189.918 134.5C189.837 134.5 189.837 134.5 189.755 134.582C189.591 134.745 189.427 134.909 189.264 134.909L188.937 134.991L188.855 135.073C188.691 135.155 188.609 135.236 188.527 135.236C188.446 135.236 188.364 135.318 188.2 135.318L188.037 135.4H187.955L187.791 135.482L187.546 135.564H187.382C187.3 135.564 187.3 135.564 187.137 135.482L187.055 135.4V135.318L187.3 135.155L187.791 134.909C187.791 134.827 187.873 134.827 187.873 134.745C187.955 134.745 187.955 134.664 188.037 134.664C188.118 134.582 188.2 134.5 188.2 134.5C188.282 134.418 188.282 134.336 188.364 134.336L188.691 134.091L189.1 133.6C189.182 133.518 189.264 133.436 189.346 133.436C189.427 133.355 189.509 133.273 189.591 133.109C189.673 133.027 189.837 132.864 190 132.536L190.164 132.291C190.246 132.209 190.246 132.127 190.327 132.045C190.409 131.964 190.409 131.882 190.491 131.8C190.573 131.636 190.737 131.473 190.737 131.391C190.737 131.309 190.818 131.309 190.9 131.146C190.982 131.064 190.982 130.982 190.982 130.818L191.227 129.836L191.309 129.591L191.391 129.427C191.309 129.427 191.227 129.427 191.146 129.509C191.064 129.591 191.064 129.591 190.9 129.591H190.737L190.573 129.673C190.491 129.755 190.491 129.755 190.409 129.755C190.327 129.755 190.246 129.836 190.164 129.836H189.918C189.837 129.836 189.837 129.836 189.837 129.836C189.837 129.918 189.755 129.918 189.673 129.918C189.509 129.918 189.346 130 189.264 130C189.264 130 189.182 130 189.1 130C189.018 130 188.937 130 188.855 129.918C188.773 129.836 188.691 129.836 188.609 129.836L188.2 129.673C188.118 129.673 188.118 129.673 187.955 129.591C187.873 129.591 187.791 129.509 187.709 129.509C187.627 129.509 187.464 129.427 187.218 129.345C187.218 129.264 187.218 129.264 187.3 129.264C187.382 129.264 187.464 129.182 187.627 129.1L187.791 129.018L188.446 128.855C188.527 128.855 188.609 128.773 188.773 128.773C188.855 128.773 189.018 128.691 189.182 128.609C189.427 128.527 189.591 128.445 189.673 128.445L189.837 128.364C189.837 128.364 189.918 128.364 189.918 128.282L190.655 128.036L190.9 127.955C190.982 127.955 191.064 127.873 191.227 127.873L191.473 127.791C191.473 127.791 191.473 127.791 191.555 127.791V127.709C191.555 127.627 191.637 127.464 191.555 127.3C191.555 127.136 191.555 127.055 191.555 126.973V126.482C191.555 126.4 191.555 126.4 191.473 126.4C191.391 126.482 191.146 126.482 190.9 126.564H190.818C190.491 126.645 190.246 126.727 190.246 126.727C190.164 126.727 190 126.727 189.755 126.727C189.673 126.727 189.591 126.645 189.509 126.645C189.427 126.645 189.427 126.645 189.346 126.645C189.264 126.645 189.182 126.645 189.1 126.564C189.1 126.564 189.018 126.564 188.937 126.482C188.855 126.482 188.773 126.4 188.691 126.318H188.609H188.527C188.446 126.236 188.364 126.236 188.2 126.155L188.037 125.991L188.609 125.745C188.691 125.745 188.691 125.745 188.773 125.664C188.855 125.664 188.855 125.664 188.937 125.582C189.018 125.5 189.264 125.418 189.427 125.336C189.509 125.336 189.591 125.255 189.673 125.255C189.755 125.255 189.837 125.173 189.918 125.091C190 125.009 190.164 125.009 190.246 124.927C190.327 124.845 190.409 124.845 190.491 124.845C190.573 124.845 190.573 124.845 190.655 124.764H190.737C190.655 124.764 190.655 124.682 190.655 124.682C190.573 124.682 190.409 124.6 190.327 124.518C190.327 124.518 190.246 124.436 190.164 124.355C190.082 124.273 190.082 124.273 190 124.191C190 124.109 189.918 124.109 189.918 124.027C189.918 123.945 189.837 123.945 189.837 123.864L189.591 123.536C189.509 123.455 189.509 123.373 189.427 123.373C189.427 123.291 189.346 123.291 189.346 123.209C189.264 123.127 189.264 122.964 189.182 122.8L188.937 122.227C188.937 122.145 188.937 122.145 188.855 122.064C188.855 121.982 188.855 121.9 188.855 121.9L188.773 121.655V121.573C188.773 121.573 188.855 121.573 188.855 121.491C188.937 121.491 188.937 121.491 188.937 121.573C188.937 121.573 188.937 121.573 189.018 121.573H189.1H189.182C189.264 121.573 189.427 121.573 189.509 121.655C189.591 121.655 189.673 121.736 189.837 121.736L190.327 121.9C190.491 121.982 190.655 122.064 190.818 122.227C190.9 122.309 190.982 122.309 191.064 122.391L191.309 122.555C191.309 122.555 191.391 122.636 191.473 122.718C191.555 122.8 191.555 122.8 191.637 122.882C191.718 122.882 191.8 122.964 191.882 122.964C191.964 123.045 191.964 123.045 191.964 123.045L192.046 123.127V122.964C191.964 122.718 191.964 122.636 191.964 122.555C191.964 122.391 191.964 122.309 191.964 122.227V120.836C191.964 120.755 191.882 120.673 191.882 120.509C191.882 120.345 191.882 120.264 191.882 120.182C191.882 120.1 191.882 119.936 191.8 119.691C191.8 119.609 191.8 119.445 191.718 119.282C191.718 119.2 191.718 119.2 191.718 119.2C191.718 119.2 191.718 119.118 191.637 119.118L191.473 118.791C191.473 118.709 191.391 118.709 191.391 118.709C191.309 118.709 191.309 118.627 191.309 118.545L191.391 118.218C191.391 118.055 191.391 117.973 191.473 117.891C191.473 117.809 191.555 117.809 191.637 117.891L191.882 117.973L192.046 118.055L192.373 118.218L192.618 118.382C192.7 118.382 192.7 118.464 192.782 118.464L192.864 118.545C192.864 118.545 192.946 118.627 193.027 118.709C193.109 118.791 193.191 118.791 193.273 118.873C193.355 118.873 193.437 118.955 193.6 119.036C193.846 119.2 193.927 119.364 193.927 119.609V119.936C193.927 120.018 193.927 120.182 193.927 120.264V120.182C193.927 120.264 193.927 120.345 193.927 120.427V120.591C193.927 120.673 193.927 120.755 193.846 120.836V120.918V121C193.846 121.082 193.846 121.164 193.764 121.327C193.764 121.327 193.764 121.409 193.682 121.409V121.491C193.682 121.491 193.682 121.573 193.682 121.655C193.682 121.818 193.682 121.982 193.682 122.145V122.227C193.682 122.309 193.682 122.391 193.682 122.473C193.682 122.555 193.682 122.636 193.682 122.718V122.636L193.764 122.555C193.846 122.473 193.846 122.391 193.846 122.391C193.846 122.309 193.846 122.309 193.927 122.227L194.173 121.736C194.173 121.655 194.255 121.573 194.255 121.573C194.255 121.491 194.255 121.409 194.337 121.409L194.582 120.918C194.664 120.836 194.664 120.755 194.664 120.673C194.746 120.509 194.746 120.427 194.746 120.345C194.746 120.264 194.827 120.1 194.827 119.936V119.855V119.773V119.691C194.827 119.609 194.827 119.609 194.909 119.527C194.909 119.445 194.991 119.445 194.991 119.445H195.073L195.155 119.527C195.155 119.445 195.155 119.445 195.155 119.445C195.155 119.364 195.237 119.364 195.318 119.364C195.318 119.364 195.318 119.364 195.4 119.364H195.482C195.482 119.364 195.646 119.364 195.809 119.445L196.055 119.527C196.137 119.609 196.218 119.609 196.3 119.609H196.382C196.464 119.609 196.464 119.609 196.546 119.691L196.791 119.936L197.037 120.1L197.2 120.264C196.791 120.264 196.873 120.345 196.955 120.509ZM199.655 124.927L199.573 125.173V125.255C199.491 125.336 199.491 125.418 199.491 125.5V125.664V125.909V125.991C199.491 126.155 199.491 126.318 199.409 126.318C199.409 126.4 199.409 126.4 199.409 126.482C199.409 126.564 199.409 126.564 199.409 126.564V127.136C199.409 127.464 199.409 127.709 199.409 127.873C199.409 128.036 199.409 128.2 199.327 128.445C199.327 128.527 199.327 128.527 199.246 128.609C199.164 128.691 199.164 128.773 199.082 128.936C199.082 129.018 199 129.1 199 129.182C198.918 129.345 198.837 129.509 198.755 129.509C198.673 129.591 198.591 129.591 198.509 129.591C198.427 129.591 198.264 129.591 198.182 129.509L198.1 129.182C197.937 128.936 197.855 128.773 197.773 128.609C197.691 128.364 197.609 128.118 197.527 128.036C197.446 127.955 197.446 127.873 197.527 127.791C197.527 127.627 197.527 127.382 197.527 127.218C197.527 127.136 197.527 127.055 197.527 126.973V126.809C197.527 126.645 197.527 126.482 197.527 126.4V126.155V126.073V125.991V124.845L197.446 124.682C197.446 124.682 197.446 124.6 197.364 124.6L197.282 124.518C197.282 124.518 197.2 124.436 197.2 124.355C197.2 124.191 197.282 124.109 197.364 124.027H197.446C197.527 124.027 197.527 124.027 197.609 123.945L197.855 124.109C197.937 124.109 198.018 124.191 198.182 124.273C198.264 124.273 198.346 124.273 198.509 124.355L198.918 124.436C198.918 124.436 199 124.436 199 124.518C199 124.518 199.082 124.518 199.164 124.6L199.327 124.682C199.573 124.6 199.655 124.764 199.655 124.927ZM204.073 119.691C204.073 119.773 204.073 119.855 203.991 119.936V120.018V120.1C203.909 120.264 203.909 120.427 203.827 120.509V120.591C203.827 120.673 203.827 120.755 203.827 120.836V121.491C203.827 121.573 203.827 121.655 203.827 121.736V121.818C203.746 121.9 203.746 121.982 203.746 122.064V122.227C203.746 122.309 203.746 122.309 203.746 122.391C203.746 122.473 203.746 122.473 203.746 122.473C203.746 122.473 203.746 122.555 203.827 122.636C203.827 122.718 203.827 122.718 203.827 122.8V122.882C203.827 122.964 203.827 123.045 203.827 123.127C203.827 123.209 203.827 123.209 203.827 123.291C203.827 123.373 203.827 123.373 203.827 123.455L203.746 124.027V124.191C203.746 124.273 203.746 124.436 203.746 124.518C203.746 124.518 203.746 124.6 203.746 124.682C203.746 124.764 203.746 124.845 203.746 124.845C203.746 124.927 203.746 125.009 203.746 125.009V125.091L203.827 125.582C203.827 125.827 203.827 125.991 203.827 126.073C203.827 126.155 203.827 126.236 203.746 126.4C203.746 126.482 203.746 126.564 203.746 126.645C203.827 126.809 203.827 126.891 203.746 126.973C203.746 127.055 203.746 127.055 203.746 127.136C203.746 127.136 203.746 127.218 203.746 127.3C203.746 127.382 203.746 127.464 203.664 127.545C203.664 127.627 203.664 127.627 203.664 127.709C203.664 127.791 203.664 127.791 203.664 127.873L203.582 127.955V128.118V128.691C203.582 128.773 203.582 129.018 203.664 129.345V129.673C203.664 129.755 203.664 129.836 203.664 129.918C203.664 130 203.664 130.082 203.664 130.164L203.746 130.327V130.409C203.664 130.491 203.664 130.655 203.664 130.736L203.746 130.9V131.309V131.636C203.746 131.8 203.827 131.882 203.827 131.964V132.045V132.127V132.291C203.827 132.373 203.909 132.455 203.909 132.536V132.7V132.782V132.864V133.273C203.909 133.273 203.909 133.355 203.827 133.355C203.827 133.436 203.827 133.436 203.909 133.518L203.991 133.764V133.845C203.991 133.927 203.991 134.009 203.909 134.091V134.5V134.582C203.909 134.582 203.827 134.664 203.827 134.745C203.827 134.827 203.746 134.909 203.746 134.909C203.664 134.991 203.664 135.073 203.664 135.155V135.236C203.664 135.318 203.664 135.4 203.582 135.482C203.5 135.564 203.5 135.645 203.5 135.727C203.5 135.809 203.5 135.809 203.5 135.809C203.418 135.973 203.418 136.055 203.337 136.136C203.337 136.136 203.337 136.218 203.255 136.218C203.255 136.218 203.173 136.218 203.173 136.3C203.091 136.382 203.091 136.382 203.091 136.464C203.091 136.464 203.009 136.545 202.927 136.545C202.846 136.627 202.764 136.627 202.682 136.627L202.6 136.545L202.437 136.218C202.437 136.136 202.355 136.136 202.273 136.136C202.191 136.055 202.191 136.055 202.191 135.973V135.891L202.027 135.727H201.946C201.864 135.727 201.864 135.727 201.864 135.646C201.864 135.564 201.782 135.564 201.782 135.564C201.7 135.482 201.7 135.4 201.537 135.318C201.373 135.236 201.209 135.073 201.127 134.991L200.637 134.336L200.555 134.255L200.718 134.091C200.8 134.009 200.964 133.927 201.046 134.009H201.127C201.291 134.009 201.373 133.927 201.373 133.845L201.455 133.436L201.537 133.027C201.537 132.864 201.618 132.7 201.618 132.618C201.618 132.536 201.618 132.455 201.618 132.291C201.618 132.209 201.618 132.045 201.618 132.045V131.636L201.537 130.573V129.591V128.773C201.537 128.691 201.537 128.527 201.455 128.364V127.627C201.455 127.464 201.455 127.3 201.455 127.218C201.455 126.973 201.373 126.891 201.373 126.727C201.291 126.564 201.291 126.318 201.373 126.073V125.745V125.418C201.373 125.336 201.373 125.336 201.373 125.255C201.373 125.173 201.373 125.173 201.373 125.091C201.373 125.009 201.373 125.009 201.373 124.927C201.373 124.845 201.373 124.845 201.373 124.764C201.373 124.518 201.373 124.355 201.373 124.273V123.782C201.373 123.536 201.373 123.291 201.373 123.209C201.373 123.045 201.373 122.882 201.373 122.718C201.373 122.555 201.373 122.473 201.373 122.391V121.982V120.918C201.373 120.836 201.373 120.673 201.373 120.345V120.182L201.291 119.445C201.291 119.282 201.209 119.2 201.127 119.118V119.036C201.127 118.955 201.127 118.873 201.046 118.791C201.046 118.791 201.046 118.709 201.046 118.627V118.545C201.046 118.382 200.964 118.3 200.882 118.136C200.882 118.136 200.882 118.136 200.882 118.055C200.882 118.055 200.882 117.973 200.964 117.973H201.046C201.127 117.973 201.127 117.973 201.209 117.973C201.209 117.973 201.291 117.891 201.373 117.891L201.782 117.973C201.946 117.973 202.191 118.055 202.437 118.218L202.6 118.3L202.846 118.382C202.927 118.464 203.091 118.545 203.173 118.627C203.173 118.627 203.255 118.627 203.255 118.709C203.337 118.709 203.337 118.709 203.337 118.709C203.418 118.791 203.5 118.791 203.582 118.873C203.664 118.955 203.746 118.955 203.746 119.036C203.827 119.118 203.991 119.2 203.991 119.282C204.073 119.527 204.073 119.609 204.073 119.691ZM200.964 118.791C200.882 118.791 200.882 118.791 200.964 118.791Z" fill="white"/>
</g>
<mask id="mask2_121_772" style="mask-type:luminance" maskUnits="userSpaceOnUse" x="181" y="103" width="54" height="72">
<path d="M235 103H181V175H235V103Z" fill="white"/>
</mask>
<g mask="url(#mask2_121_772)">
<path d="M210.373 133.273H210.619C210.7 133.273 210.7 133.354 210.782 133.354C210.864 133.518 210.946 133.6 210.946 133.6C211.028 133.682 211.11 133.845 211.191 134.009C211.273 134.091 211.273 134.173 211.355 134.336V134.418C211.355 134.418 211.437 134.5 211.437 134.582C211.437 134.582 211.519 134.664 211.437 134.664C211.437 134.745 211.437 134.745 211.437 134.745C211.437 134.827 211.437 134.827 211.437 134.827V135.154L211.273 135.727L211.191 136.054C211.11 136.136 211.11 136.3 211.11 136.382L211.028 136.464L210.946 136.709C210.946 136.791 210.864 136.873 210.864 136.873L210.7 137.2L210.619 137.282L210.537 137.445L210.455 137.773C210.373 137.854 210.291 138.018 210.291 138.1L210.21 138.182L210.128 138.509C210.046 138.591 210.046 138.673 210.046 138.754L209.882 138.918C209.8 139 209.719 139 209.637 139.164C209.555 139.245 209.473 139.245 209.391 139.245H209.146L209.064 139.164C209.064 139.164 208.982 139.164 208.982 139.082L208.9 139C208.819 139 208.819 139 208.819 139L208.655 138.918H208.573H208.491C208.491 138.836 208.491 138.836 208.491 138.754V138.673C208.41 138.673 208.41 138.591 208.41 138.509L208.328 138.427L208.164 138.264C208.164 138.182 208.164 138.182 208.246 138.182C208.246 138.1 208.246 138.018 208.246 137.854V137.691L208.328 137.527C208.328 137.445 208.328 137.364 208.41 137.2C208.41 137.2 208.41 137.2 208.491 137.118C208.491 137.118 208.491 137.118 208.491 137.036V136.954C208.491 136.709 208.573 136.545 208.573 136.464C208.655 136.3 208.737 136.136 208.819 136.054C208.9 136.054 208.9 135.973 208.9 135.973C208.9 135.891 208.982 135.891 208.982 135.891V135.809H209.064C209.064 135.809 209.146 135.727 209.228 135.564L209.391 135.236C209.555 134.991 209.637 134.827 209.719 134.745C209.8 134.664 209.8 134.664 209.8 134.582C209.8 134.5 209.882 134.5 209.882 134.418C209.964 134.336 209.964 134.336 210.046 134.254C210.128 134.173 210.21 134.009 210.373 133.682C210.455 133.6 210.455 133.518 210.537 133.354C210.373 133.436 210.373 133.354 210.373 133.273ZM213.237 133.436C213.237 133.436 213.319 133.518 213.4 133.518V133.6C213.482 133.682 213.482 133.764 213.564 133.764L213.646 133.845L213.891 134.173C213.973 134.254 214.055 134.254 214.055 134.336V134.418C214.055 134.5 214.055 134.5 214.137 134.582C214.137 134.664 214.219 134.745 214.219 134.745C214.219 134.745 214.3 134.827 214.3 134.909C214.3 134.991 214.382 135.073 214.382 135.154C214.382 135.154 214.464 135.236 214.464 135.4C214.464 135.482 214.546 135.564 214.546 135.564C214.546 135.645 214.628 135.727 214.628 135.727C214.628 135.809 214.71 135.809 214.71 135.891C214.71 135.973 214.791 136.054 214.873 136.054C214.873 136.136 214.955 136.136 214.955 136.218L215.037 136.3C215.119 136.382 215.119 136.464 215.2 136.464C215.2 136.545 215.2 136.545 215.282 136.627C215.364 136.627 215.364 136.709 215.364 136.791C215.364 136.873 215.446 136.954 215.446 137.036C215.528 137.118 215.528 137.118 215.528 137.2C215.528 137.282 215.61 137.364 215.773 137.445C215.937 137.609 216.1 137.691 216.182 137.773C216.428 137.854 216.591 137.936 216.673 138.018C216.673 138.018 216.755 138.018 216.755 138.1C216.755 138.1 216.837 138.1 216.919 138.1L217.246 138.182L217.573 138.264L217.819 138.345C218.064 138.345 218.228 138.427 218.391 138.427C218.473 138.427 218.637 138.427 218.8 138.427H219.128H219.537H219.7C219.782 138.427 219.864 138.345 219.946 138.345H220.028C220.11 138.345 220.11 138.345 220.191 138.345C220.273 138.345 220.273 138.345 220.273 138.264C220.355 138.264 220.437 138.264 220.6 138.182H220.682C220.682 138.182 220.764 138.182 220.764 138.1L220.846 138.018C220.846 138.018 220.928 138.018 221.01 138.018C221.091 138.018 221.091 137.936 221.091 137.936L221.255 137.854L221.5 137.773C221.582 137.773 221.582 137.691 221.664 137.691C221.746 137.691 221.746 137.609 221.828 137.609L221.91 137.527C221.991 137.527 222.155 137.445 222.319 137.364C222.4 137.364 222.4 137.282 222.4 137.2V136.464C222.4 136.218 222.4 136.054 222.4 135.891C222.4 135.809 222.4 135.727 222.4 135.645C222.4 135.564 222.4 135.482 222.4 135.4C222.4 135.318 222.4 135.236 222.482 135.236C222.482 135.236 222.564 135.154 222.646 135.154C222.728 135.154 222.728 135.154 222.81 135.236C222.891 135.318 222.973 135.318 222.973 135.4L223.055 135.482L223.137 135.564L223.3 135.727H223.382C223.464 135.809 223.464 135.809 223.464 135.891L223.546 135.973L223.628 136.054L223.873 136.218C223.873 136.218 223.873 136.218 223.955 136.3C223.955 136.3 223.955 136.382 224.037 136.382V136.464L224.446 136.791L224.528 136.873C224.528 136.873 224.61 136.954 224.61 137.036C224.61 137.118 224.61 137.118 224.61 137.118C224.691 137.2 224.691 137.282 224.691 137.445C224.691 137.445 224.773 137.527 224.773 137.609L224.855 137.691L225.019 137.773C225.182 137.854 225.264 137.936 225.264 137.936L225.346 138.018C225.346 138.1 225.346 138.182 225.428 138.182C225.51 138.182 225.51 138.182 225.51 138.264C225.51 138.345 225.51 138.345 225.51 138.345C225.591 138.427 225.591 138.427 225.591 138.509C225.591 138.591 225.591 138.591 225.51 138.673C225.51 138.673 225.428 138.754 225.428 138.836C225.428 138.918 225.346 138.918 225.346 139C225.346 139 225.346 139.082 225.264 139.082C225.264 139.164 225.182 139.164 225.182 139.327C225.182 139.409 225.182 139.491 225.1 139.573C225.1 139.573 225.019 139.573 225.019 139.654V139.736C225.019 139.736 224.937 139.736 224.937 139.818H224.855L224.691 140.064C224.61 140.145 224.61 140.145 224.528 140.145L224.446 140.227L224.364 140.309L224.282 140.391C224.282 140.391 224.2 140.473 224.119 140.554C224.037 140.636 223.955 140.636 223.873 140.718L223.791 140.8L223.546 140.882C223.546 140.882 223.464 140.964 223.382 140.964C223.3 140.964 223.137 141.045 223.137 141.045C223.055 141.045 222.973 141.045 222.891 141.045L222.564 141.127H222.482C222.4 141.209 222.4 141.209 222.319 141.209H222.073H221.664C221.582 141.209 221.5 141.209 221.5 141.291C221.419 141.291 221.337 141.291 221.337 141.291C221.255 141.291 221.255 141.291 221.173 141.291H221.091H221.01H220.846C220.764 141.291 220.682 141.209 220.6 141.209H220.437C220.355 141.209 220.273 141.209 220.191 141.209C220.191 141.209 220.11 141.291 220.11 141.209C220.028 141.209 220.028 141.209 220.028 141.209C219.946 141.209 219.864 141.209 219.7 141.127H219.455C219.455 141.127 219.373 141.127 219.291 141.127C219.21 141.127 219.21 141.127 219.128 141.127C218.964 141.127 218.8 141.127 218.8 141.045C218.8 141.045 218.719 141.045 218.555 140.964C218.473 140.964 218.391 140.882 218.31 140.8C218.228 140.8 218.146 140.718 218.064 140.718C217.982 140.718 217.819 140.636 217.737 140.554C217.655 140.554 217.573 140.473 217.491 140.473C217.41 140.473 217.328 140.391 217.246 140.391L217.164 140.309C217.082 140.309 217 140.227 216.837 140.145C216.755 140.145 216.755 140.064 216.673 140.064C216.591 140.064 216.591 139.982 216.51 139.982C216.51 139.982 216.51 139.982 216.428 139.982C216.428 139.982 216.346 139.982 216.346 139.9C216.346 139.818 216.264 139.818 216.182 139.736C216.1 139.654 216.1 139.654 216.019 139.654L215.937 139.573L215.855 139.491C215.773 139.491 215.773 139.409 215.691 139.409H215.61L215.364 139.082C215.282 139 215.282 138.918 215.2 138.918V138.836C215.2 138.754 215.119 138.673 215.037 138.673C214.955 138.591 214.955 138.591 214.873 138.591C214.791 138.427 214.71 138.345 214.71 138.345C214.628 138.1 214.546 137.936 214.546 137.854L214.382 137.691C214.382 137.609 214.382 137.445 214.3 137.364C214.3 137.282 214.3 137.282 214.219 137.2C214.219 137.118 214.219 137.118 214.137 137.036C214.055 136.954 214.055 136.873 214.055 136.791C214.055 136.709 214.055 136.627 213.973 136.627C213.891 136.627 213.973 136.464 213.891 136.464C213.891 136.382 213.81 136.218 213.728 135.973C213.728 135.973 213.728 135.891 213.728 135.809C213.728 135.727 213.728 135.727 213.646 135.645C213.646 135.564 213.564 135.4 213.564 135.318C213.564 135.236 213.482 135.154 213.482 135.073C213.482 134.991 213.4 134.909 213.4 134.745L213.319 134.418C213.319 134.173 213.237 134.009 213.237 133.927L213.155 133.518C213.155 133.518 213.155 133.436 213.155 133.354C213.237 133.518 213.237 133.518 213.237 133.436ZM216.755 129.673L216.919 129.591H217L217.246 129.673L217.573 129.754C217.573 129.754 217.655 129.754 217.655 129.836H217.737C217.737 129.836 217.737 129.836 217.819 129.836H217.9L217.982 129.918C218.146 129.918 218.31 129.918 218.473 130C218.637 130 218.719 130.082 218.8 130.164C218.8 130.164 218.882 130.245 219.046 130.245C219.046 130.245 219.128 130.245 219.21 130.327C219.291 130.327 219.291 130.327 219.373 130.409L219.455 130.491C219.537 130.491 219.537 130.573 219.619 130.573C219.7 130.573 219.7 130.654 219.7 130.654L219.864 130.736C219.864 130.736 219.946 130.818 220.11 130.9L220.191 131.064L220.273 131.227C220.273 131.309 220.355 131.309 220.355 131.391C220.355 131.473 220.355 131.473 220.437 131.554C220.437 131.636 220.519 131.636 220.519 131.718V132.209C220.519 132.291 220.519 132.291 220.519 132.373V132.454L220.437 132.536C220.437 132.536 220.437 132.536 220.355 132.618C220.355 132.618 220.355 132.7 220.273 132.7C220.273 132.7 220.273 132.7 220.191 132.7C220.11 132.7 220.191 132.7 220.11 132.782C220.028 132.864 220.028 132.864 219.946 132.864C219.864 132.864 219.864 132.864 219.782 132.945L219.619 133.027H219.537C219.537 133.027 219.537 133.027 219.455 133.027L219.21 132.945H219.046H218.964H218.882C218.882 132.945 218.8 132.945 218.8 132.864C218.719 132.864 218.637 132.782 218.637 132.782C218.637 132.7 218.555 132.7 218.555 132.7L218.473 132.536L218.228 132.373L217.982 132.045L217.737 131.8V131.718L217.573 131.391L217.328 131.064C217.164 130.818 217.082 130.654 217 130.573L216.919 130.491L216.755 130.245C216.673 130.082 216.591 130 216.591 129.918C216.837 129.836 216.755 129.754 216.755 129.673ZM224.773 131.064C224.855 131.064 224.855 131.064 224.855 130.982L224.937 131.064L225.182 131.145C225.264 131.227 225.346 131.227 225.428 131.227C225.51 131.227 225.51 131.309 225.591 131.309C225.673 131.309 225.673 131.391 225.755 131.391C225.837 131.473 225.919 131.473 226 131.473C226.164 131.554 226.246 131.554 226.246 131.554L226.41 131.636C226.491 131.636 226.491 131.718 226.573 131.718H226.655C226.655 131.718 226.737 131.8 226.819 131.8C226.9 131.882 226.982 131.882 227.064 131.882C227.064 131.882 227.146 131.882 227.228 131.882C227.31 131.882 227.31 131.964 227.391 131.964C227.473 131.964 227.473 131.964 227.555 132.045C227.637 132.045 227.637 132.045 227.719 132.127C227.719 132.127 227.8 132.209 227.882 132.209C227.964 132.209 227.964 132.291 228.046 132.373L228.128 132.454L228.21 132.536H228.291L228.537 132.7L228.619 132.782L228.7 132.864C228.782 132.945 228.782 132.945 228.782 132.945C228.864 133.027 228.946 133.191 228.946 133.273V133.354C228.946 133.436 228.946 133.518 229.028 133.6C229.028 133.682 229.028 133.682 229.11 133.764C229.11 133.764 229.11 133.845 229.191 133.927V134.009V134.173C229.273 134.254 229.191 134.418 229.191 134.664C229.191 134.745 229.11 134.827 229.11 134.909V134.991V135.073C229.11 135.073 229.11 135.073 229.028 135.154C229.028 135.236 229.028 135.236 229.028 135.318V135.727C229.028 135.809 228.946 135.891 228.864 135.973H228.782H228.7H228.619C228.537 135.973 228.455 136.054 228.373 135.973C228.291 135.973 228.21 135.973 228.21 135.973H228.128C228.046 135.973 228.046 135.973 227.964 135.973C227.882 135.973 227.882 135.973 227.8 135.973C227.719 135.973 227.719 135.973 227.719 135.891C227.555 135.727 227.473 135.645 227.473 135.645C227.391 135.645 227.31 135.482 227.228 135.318C227.064 135.154 226.982 135.073 226.982 134.991L226.737 134.664L226.246 134.091C226.164 134.009 226.082 133.845 226 133.764C225.919 133.682 225.919 133.6 225.837 133.518L225.755 133.273C225.673 133.109 225.591 132.945 225.51 132.782V132.7V132.618C225.51 132.536 225.51 132.536 225.428 132.454L225.182 132.045C225.1 131.964 225.019 131.8 224.937 131.636L224.855 131.309L224.773 131.227V131.145L224.691 131.064H224.773Z" fill="white"/>
</g>
<mask id="mask3_121_772" style="mask-type:luminance" maskUnits="userSpaceOnUse" x="181" y="103" width="54" height="72">
<path d="M235 103H181V175H235V103Z" fill="white"/>
</mask>
<g mask="url(#mask3_121_772)">
<path d="M207.919 159.209C207.837 159.127 207.674 159.045 207.51 158.963C207.346 158.882 207.183 158.8 207.019 158.8C206.937 158.8 206.774 158.8 206.692 158.8C206.61 158.8 206.528 158.882 206.446 159.045C206.364 159.127 206.446 159.209 206.446 159.291C206.446 159.373 206.528 159.373 206.61 159.454C206.692 159.536 206.855 159.618 206.855 159.7C206.937 159.782 206.937 159.782 206.937 159.863C206.937 159.945 206.937 160.109 206.937 160.273V161.173C206.774 161.173 206.61 161.173 206.446 161.173C206.283 161.173 206.119 161.173 206.037 161.173C205.874 161.173 205.71 161.173 205.628 161.173C205.464 161.173 205.383 161.173 205.301 161.173V160.845C205.301 160.763 205.301 160.6 205.301 160.354C205.301 160.191 205.301 160.027 205.383 159.945C205.383 159.863 205.301 159.782 205.137 159.618C205.055 159.536 204.892 159.454 204.81 159.454C204.728 159.373 204.564 159.373 204.483 159.373C204.401 159.373 204.319 159.373 204.237 159.373C204.155 159.373 204.074 159.454 203.992 159.618C203.91 159.7 203.91 159.782 203.992 159.782C203.992 159.863 204.074 159.863 204.155 159.945C204.237 160.027 204.319 160.109 204.319 160.191C204.319 160.273 204.319 160.436 204.319 160.763V161.009C204.155 161.009 203.91 161.009 203.664 161.009C203.419 161.009 203.092 161.009 202.846 161.009C202.601 161.009 202.437 161.009 202.274 161.009C202.274 160.927 202.274 160.845 202.274 160.682C202.274 160.6 202.274 160.436 202.274 160.354C202.274 160.273 202.274 160.273 202.192 160.191C202.192 160.109 202.11 160.109 202.11 160.027C202.028 159.945 201.946 159.863 201.783 159.782C201.619 159.7 201.537 159.618 201.374 159.618C201.292 159.618 201.21 159.536 201.128 159.618C201.046 159.618 200.964 159.7 200.883 159.863C200.801 159.945 200.801 160.027 200.801 160.109C200.801 160.191 200.883 160.191 200.883 160.273C200.964 160.354 201.046 160.436 201.046 160.436C201.046 160.518 201.128 160.6 201.128 160.682C201.128 160.763 201.128 160.927 201.128 161.091L201.21 163.382C201.21 163.545 201.21 163.709 201.292 163.709C201.374 163.873 201.619 163.873 201.864 163.709C201.946 163.627 202.028 163.545 202.11 163.463C202.274 163.463 202.519 163.463 202.764 163.463H203.583C203.828 163.463 204.074 163.463 204.237 163.463C204.319 163.709 204.401 163.709 204.564 163.709C204.728 163.709 204.892 163.627 205.055 163.463C205.219 163.3 205.219 163.136 205.219 162.891V161.745C205.219 161.745 205.301 161.745 205.301 161.827C205.383 161.827 205.383 161.909 205.383 161.909C205.464 161.909 205.464 161.909 205.546 161.909C205.628 161.909 205.71 161.909 205.792 161.909C205.955 161.909 206.037 161.827 206.201 161.827C206.364 161.827 206.528 161.827 206.61 161.745H206.692H206.774V162.563C206.774 162.645 206.774 162.809 206.774 163.054C206.774 163.218 206.774 163.463 206.855 163.627C206.855 163.791 207.019 163.873 207.101 163.873C207.264 163.873 207.428 163.791 207.51 163.627C207.592 163.463 207.674 163.3 207.674 163.136C207.674 162.973 207.755 162.727 207.755 162.563V160.273C207.755 160.109 207.755 159.945 207.755 159.863C207.755 159.7 207.755 159.618 207.837 159.536C208.164 159.373 208.083 159.291 207.919 159.209ZM204.401 162.809C204.237 162.809 203.992 162.809 203.746 162.809C203.501 162.809 203.255 162.809 203.01 162.809C202.764 162.809 202.601 162.809 202.437 162.809V161.582C202.601 161.582 202.846 161.582 203.092 161.582C203.337 161.582 203.583 161.582 203.91 161.582C204.155 161.582 204.319 161.582 204.483 161.582L204.401 162.809Z" fill="white"/>
<path d="M207.837 164.364C207.755 164.282 207.592 164.2 207.51 164.2C207.428 164.118 207.264 164.118 207.183 164.118C207.101 164.118 207.019 164.118 206.855 164.118C206.773 164.118 206.692 164.2 206.61 164.364C206.528 164.445 206.528 164.527 206.61 164.609C206.61 164.691 206.692 164.691 206.773 164.773C206.855 164.855 206.937 164.936 206.937 165.018C206.937 165.1 206.937 165.264 206.937 165.427C206.773 165.427 206.61 165.427 206.364 165.427C206.119 165.427 205.873 165.427 205.546 165.427C205.219 165.427 204.973 165.427 204.728 165.427C204.483 165.427 204.319 165.427 204.155 165.427C204.155 165.345 204.155 165.264 204.155 165.264C204.155 165.182 204.155 165.1 204.155 165.1C204.155 165.1 204.155 165.018 204.155 164.936C204.155 164.855 204.073 164.855 203.992 164.773C203.91 164.691 203.828 164.609 203.664 164.609C203.501 164.527 203.419 164.445 203.255 164.445C203.173 164.445 203.092 164.445 203.01 164.445C202.928 164.445 202.846 164.527 202.764 164.691C202.683 164.855 202.764 164.936 202.846 165.018C203.01 165.1 203.092 165.264 203.092 165.345C203.092 165.427 203.092 165.673 203.092 165.918V167.718C203.092 167.882 203.092 168.045 203.173 168.127C203.255 168.209 203.337 168.291 203.419 168.291C203.501 168.291 203.583 168.291 203.746 168.209C203.828 168.127 203.91 168.045 203.992 167.964C204.155 167.964 204.319 167.964 204.646 167.964C204.892 167.964 205.219 167.964 205.464 167.964C205.792 167.964 206.037 167.964 206.283 167.964H206.855C206.855 168.045 206.937 168.127 206.937 168.209C207.019 168.291 207.101 168.291 207.183 168.291C207.346 168.291 207.51 168.209 207.673 168.045C207.837 167.882 207.919 167.636 207.919 167.391V165.755C207.919 165.673 207.919 165.509 207.919 165.264C207.919 165.1 207.919 164.936 208.001 164.773C208.083 164.527 208.001 164.445 207.837 164.364ZM207.019 166.082V167.064C206.855 167.064 206.692 167.064 206.446 167.064C206.201 167.064 205.955 167.064 205.628 167.064C205.383 167.064 205.055 167.064 204.81 167.064C204.564 167.064 204.401 167.064 204.237 167.064V166.082H204.81C205.055 166.082 205.383 166.082 205.628 166.082C205.873 166.082 206.201 166.082 206.446 166.082C206.692 166.082 206.855 166.082 207.019 166.082Z" fill="white"/>
<path d="M211.029 160.109C211.111 160.191 211.193 160.273 211.274 160.273C211.274 160.355 211.356 160.518 211.356 160.682L211.52 162.564C211.52 162.646 211.602 162.809 211.602 162.891C211.683 162.973 211.765 163.055 211.847 163.055C211.929 163.055 212.093 163.055 212.174 162.973C212.256 162.891 212.338 162.809 212.42 162.727C212.665 162.727 212.911 162.727 213.238 162.727C213.565 162.727 213.893 162.727 214.302 162.727C214.629 162.727 215.038 162.727 215.365 162.727C215.693 162.727 215.938 162.727 216.102 162.727C216.183 162.727 216.265 162.646 216.347 162.564C216.429 162.482 216.429 162.4 216.429 162.318C216.429 162.318 216.347 162.236 216.347 162.155C216.265 162.073 216.265 162.073 216.183 161.991C216.265 161.745 216.265 161.582 216.265 161.418C216.265 161.255 216.347 161.009 216.347 160.764C216.347 160.682 216.347 160.6 216.429 160.518C216.429 160.436 216.511 160.273 216.511 160.191C216.511 160.109 216.593 160.027 216.593 159.945C216.674 159.782 216.511 159.7 216.511 159.7L215.774 159.536C215.693 159.536 215.693 159.536 215.611 159.536H215.529C215.447 159.618 215.283 159.618 215.12 159.618C214.956 159.618 214.793 159.618 214.547 159.7C214.547 159.7 214.383 159.7 214.22 159.7C214.056 159.7 213.811 159.7 213.565 159.7C213.32 159.7 213.074 159.7 212.829 159.7C212.583 159.7 212.42 159.7 212.174 159.7C212.093 159.7 211.929 159.618 211.847 159.618L211.356 159.455C211.274 159.455 211.111 159.455 211.029 159.536C210.947 159.618 210.865 159.7 210.865 159.782C210.865 159.864 210.865 159.946 211.029 160.109ZM212.338 160.273C212.583 160.273 212.829 160.273 213.074 160.273H213.974C214.22 160.273 214.547 160.273 214.711 160.273C214.956 160.273 215.038 160.273 215.12 160.273H215.202C215.202 160.273 215.202 160.273 215.202 160.355C215.202 160.436 215.202 160.6 215.202 160.764C215.202 160.927 215.202 161.173 215.202 161.336C215.202 161.5 215.202 161.745 215.202 161.909C214.956 161.909 214.629 161.909 214.302 161.909C213.974 161.909 213.647 161.909 213.32 161.909C212.993 161.909 212.747 161.909 212.502 161.909L212.338 160.273Z" fill="white"/>
<path d="M217.902 163.463C217.82 163.382 217.82 163.3 217.738 163.3C217.656 163.3 217.574 163.3 217.411 163.3C217.247 163.382 216.92 163.382 216.593 163.463C216.265 163.463 215.856 163.545 215.529 163.545C215.283 163.545 214.956 163.545 214.629 163.545C214.302 163.545 213.893 163.545 213.565 163.545C213.156 163.545 212.829 163.545 212.42 163.545C212.011 163.545 211.683 163.545 211.356 163.545C211.029 163.545 210.702 163.545 210.456 163.463C210.211 163.463 209.883 163.382 209.72 163.382C209.638 163.382 209.556 163.463 209.474 163.545C209.393 163.627 209.393 163.709 209.393 163.791C209.393 163.791 209.474 163.873 209.474 163.954C209.556 164.036 209.638 164.118 209.638 164.118C209.72 164.2 209.802 164.2 209.802 164.282C209.883 164.363 209.965 164.363 210.047 164.363C210.129 164.363 210.211 164.363 210.374 164.363C210.538 164.363 210.783 164.282 211.029 164.282C211.274 164.282 211.52 164.2 211.765 164.2C212.011 164.2 212.338 164.2 212.583 164.118C212.829 164.118 213.074 164.118 213.402 164.118V166.163C213.402 166.245 213.402 166.409 213.402 166.654C213.402 166.818 213.402 167.063 213.483 167.227C213.483 167.636 213.647 167.636 213.729 167.636C213.893 167.636 214.056 167.554 214.138 167.391C214.22 167.227 214.302 167.063 214.302 166.818C214.302 166.654 214.383 166.409 214.383 166.245V164.2C214.629 164.2 214.793 164.2 215.038 164.2C215.283 164.2 215.447 164.2 215.693 164.2C216.02 164.2 216.347 164.2 216.593 164.2C216.838 164.2 217.002 164.2 217.165 164.2C217.329 164.2 217.493 164.2 217.738 164.282C217.82 164.282 217.82 164.282 217.983 164.2C218.065 164.118 218.147 164.036 218.147 163.954C218.147 163.873 218.147 163.791 218.065 163.709C217.983 163.627 217.902 163.545 217.902 163.463Z" fill="white"/>
<path d="M225.837 159.209C225.755 159.127 225.591 159.045 225.428 158.963C225.264 158.882 225.101 158.8 224.937 158.8C224.855 158.8 224.691 158.8 224.61 158.8C224.528 158.8 224.446 158.882 224.364 159.045C224.282 159.127 224.364 159.209 224.364 159.291C224.364 159.373 224.446 159.373 224.528 159.454C224.61 159.536 224.773 159.618 224.773 159.7C224.855 159.782 224.855 159.782 224.855 159.863C224.855 159.945 224.855 160.109 224.855 160.273V161.173C224.691 161.173 224.528 161.173 224.364 161.173C224.201 161.173 224.037 161.173 223.955 161.173C223.791 161.173 223.628 161.173 223.546 161.173C223.382 161.173 223.301 161.173 223.219 161.173V160.845C223.219 160.763 223.219 160.6 223.219 160.354C223.219 160.191 223.219 160.027 223.301 159.945C223.301 159.863 223.219 159.782 223.055 159.618C222.973 159.536 222.81 159.454 222.728 159.454C222.646 159.373 222.482 159.373 222.401 159.373C222.319 159.373 222.237 159.373 222.155 159.373C222.073 159.373 221.991 159.454 221.91 159.618C221.828 159.7 221.828 159.782 221.91 159.782C221.91 159.863 221.991 159.863 222.073 159.945C222.155 160.027 222.237 160.109 222.237 160.191C222.237 160.273 222.237 160.436 222.237 160.763V161.009C222.073 161.009 221.828 161.009 221.582 161.009C221.337 161.009 221.01 161.009 220.764 161.009C220.519 161.009 220.355 161.009 220.191 161.009C220.191 160.927 220.191 160.845 220.191 160.682C220.191 160.6 220.191 160.436 220.191 160.354C220.191 160.273 220.191 160.273 220.11 160.191C220.11 160.109 220.028 160.109 220.028 160.109C219.946 160.027 219.864 159.945 219.701 159.863C219.537 159.782 219.455 159.7 219.291 159.7C219.21 159.7 219.128 159.618 219.046 159.7C218.964 159.7 218.882 159.782 218.801 159.945C218.719 160.027 218.719 160.109 218.719 160.191C218.719 160.273 218.801 160.273 218.801 160.354C218.882 160.436 218.964 160.518 218.964 160.518C218.964 160.6 219.046 160.682 219.046 160.763C219.046 160.845 219.046 161.009 219.046 161.173L219.128 163.463C219.128 163.627 219.128 163.791 219.21 163.791C219.291 163.954 219.537 163.954 219.782 163.791C219.864 163.709 219.946 163.627 220.028 163.545C220.191 163.545 220.437 163.545 220.682 163.545H221.501C221.746 163.545 221.991 163.545 222.155 163.545C222.237 163.791 222.319 163.791 222.482 163.791C222.646 163.791 222.81 163.709 222.973 163.545C223.137 163.382 223.137 163.218 223.137 162.973V161.827C223.137 161.827 223.219 161.827 223.219 161.909C223.301 161.909 223.301 161.991 223.301 161.991C223.382 161.991 223.382 161.991 223.464 161.991C223.546 161.991 223.628 161.991 223.71 161.991C223.873 161.991 223.955 161.909 224.119 161.909C224.282 161.909 224.446 161.909 224.528 161.827H224.61H224.691V162.645C224.691 162.727 224.691 162.891 224.691 163.136C224.691 163.3 224.691 163.545 224.773 163.709C224.773 163.873 224.937 163.954 225.019 163.954C225.182 163.954 225.346 163.873 225.428 163.709C225.51 163.545 225.591 163.382 225.591 163.218C225.591 163.054 225.673 162.809 225.673 162.645V160.273C225.673 160.109 225.673 159.945 225.673 159.863C225.673 159.7 225.673 159.618 225.755 159.536C226.001 159.373 225.919 159.291 225.837 159.209ZM221.664 162.809C221.419 162.809 221.173 162.809 220.928 162.809C220.682 162.809 220.519 162.809 220.355 162.809V161.582C220.519 161.582 220.764 161.582 221.01 161.582C221.255 161.582 221.501 161.582 221.828 161.582C222.073 161.582 222.237 161.582 222.401 161.582V162.809C222.155 162.809 221.91 162.809 221.664 162.809Z" fill="white"/>
<path d="M225.673 164.364C225.591 164.282 225.428 164.2 225.346 164.2C225.264 164.118 225.1 164.118 225.018 164.118C224.937 164.118 224.855 164.118 224.691 164.118C224.609 164.118 224.528 164.2 224.446 164.364C224.364 164.445 224.364 164.527 224.446 164.609C224.446 164.691 224.528 164.691 224.609 164.773C224.691 164.855 224.773 164.936 224.773 165.018C224.773 165.1 224.773 165.264 224.773 165.427C224.609 165.427 224.446 165.427 224.2 165.427C223.955 165.427 223.709 165.427 223.382 165.427C223.055 165.427 222.809 165.427 222.564 165.427C222.318 165.427 222.155 165.427 221.991 165.427C221.991 165.345 221.991 165.264 221.991 165.264C221.991 165.182 221.991 165.1 221.991 165.1C221.991 165.1 221.991 165.018 221.991 164.936C221.991 164.855 221.909 164.855 221.828 164.773C221.746 164.691 221.664 164.609 221.5 164.609C221.337 164.527 221.255 164.445 221.091 164.445C221.009 164.445 220.928 164.445 220.846 164.445C220.764 164.445 220.682 164.527 220.6 164.691C220.518 164.855 220.6 164.936 220.682 165.018C220.846 165.1 220.928 165.264 220.928 165.345C220.928 165.427 220.928 165.673 220.928 165.918V167.718C220.928 167.882 220.928 168.045 221.009 168.127C221.091 168.209 221.173 168.291 221.255 168.291C221.337 168.291 221.418 168.291 221.582 168.209C221.664 168.127 221.746 168.045 221.828 167.964C221.991 167.964 222.155 167.964 222.482 167.964C222.728 167.964 223.055 167.964 223.3 167.964C223.628 167.964 223.873 167.964 224.118 167.964H224.691C224.691 168.045 224.773 168.127 224.773 168.209C224.855 168.291 224.937 168.291 225.018 168.291C225.182 168.291 225.346 168.209 225.509 168.045C225.673 167.882 225.755 167.636 225.755 167.391V165.755C225.755 165.673 225.755 165.509 225.755 165.264C225.755 165.1 225.755 164.936 225.837 164.773C225.918 164.527 225.837 164.445 225.673 164.364ZM224.855 166.082V167.064C224.691 167.064 224.528 167.064 224.282 167.064C224.037 167.064 223.791 167.064 223.464 167.064C223.218 167.064 222.891 167.064 222.646 167.064C222.4 167.064 222.237 167.064 222.073 167.064V166.082H222.646C222.891 166.082 223.218 166.082 223.464 166.082C223.709 166.082 224.037 166.082 224.282 166.082C224.528 166.082 224.773 166.082 224.855 166.082Z" fill="white"/>
<path d="M234.756 166.982C234.756 166.9 234.674 166.9 234.593 166.9C234.511 166.9 234.429 166.9 234.347 166.9C234.265 166.9 234.02 166.982 233.774 167.064C233.447 167.145 233.12 167.145 232.711 167.227C232.302 167.227 231.974 167.227 231.729 167.227C231.484 167.227 231.156 167.227 230.911 167.227C230.829 167.227 230.747 167.227 230.747 167.145C230.747 167.145 230.665 167.064 230.665 166.9V166.245C230.665 166.164 230.665 166 230.665 165.836C230.665 165.673 230.665 165.591 230.747 165.427C230.747 165.345 230.747 165.264 230.665 165.264C230.584 165.182 230.584 165.182 230.502 165.1C230.42 165.018 230.256 165.018 230.174 164.936C230.011 164.854 229.929 164.854 229.765 164.854C229.684 164.854 229.602 164.854 229.438 164.854C229.356 164.854 229.274 164.936 229.193 165.1C229.193 165.182 229.111 165.264 229.193 165.345C229.193 165.427 229.274 165.427 229.356 165.509C229.438 165.591 229.52 165.673 229.602 165.673C229.602 165.754 229.684 165.754 229.684 165.836C229.684 165.918 229.684 166.082 229.684 166.245V166.982C229.684 167.227 229.765 167.391 229.847 167.554C229.929 167.718 230.011 167.8 230.174 167.8C230.338 167.882 230.42 167.882 230.502 167.882C230.584 167.882 230.665 167.882 230.829 167.882C230.911 167.882 230.993 167.882 230.993 167.882C231.238 167.882 231.402 167.882 231.647 167.882C231.893 167.882 232.138 167.882 232.302 167.882C232.384 167.882 232.547 167.882 232.629 167.882C232.711 167.882 232.793 167.882 232.874 167.882C233.365 167.882 233.856 167.882 234.184 167.882C234.347 167.882 234.511 167.882 234.593 167.882C234.674 167.882 234.756 167.8 234.838 167.718C235.002 167.636 235.002 167.554 235.002 167.473C235.002 167.473 235.002 167.391 234.92 167.227C234.838 167.145 234.838 166.982 234.756 166.982Z" fill="white"/>
<path d="M229.764 163.791C230.173 163.791 230.582 163.709 230.909 163.545C231.236 163.382 231.482 163.136 231.727 162.809C231.891 162.482 232.054 162.155 232.054 161.745C232.054 161.336 231.973 161.009 231.727 160.682C231.482 160.355 231.236 160.191 230.909 160.027C230.582 159.864 230.173 159.782 229.764 159.864C229.354 159.864 228.945 159.945 228.618 160.191C228.291 160.355 228.045 160.6 227.8 160.927C227.636 161.255 227.473 161.582 227.473 161.991C227.473 162.4 227.554 162.727 227.8 162.973C227.964 163.3 228.291 163.464 228.618 163.627C228.945 163.791 229.273 163.873 229.682 163.873C229.682 163.791 229.764 163.791 229.764 163.791ZM230.664 162.727C230.418 162.973 230.173 163.055 229.764 163.055C229.436 163.055 229.109 162.973 228.864 162.727C228.618 162.482 228.536 162.236 228.536 161.827C228.536 161.418 228.618 161.173 228.864 160.927C229.109 160.682 229.354 160.6 229.764 160.518H229.845C230.173 160.518 230.418 160.6 230.664 160.764C230.909 160.927 230.991 161.255 230.991 161.664C230.991 162.155 230.909 162.482 230.664 162.727Z" fill="white"/>
<path d="M233.036 159.455C233.118 159.536 233.282 159.618 233.282 159.618C233.364 159.7 233.364 159.7 233.364 159.782C233.364 159.864 233.364 160.027 233.364 160.191V164.282C233.364 164.445 233.364 164.609 233.364 164.773C233.364 164.936 233.364 165.182 233.446 165.264C233.527 165.427 233.609 165.509 233.691 165.509C233.855 165.509 234.018 165.427 234.1 165.264C234.182 165.1 234.264 164.936 234.264 164.691C234.264 164.527 234.346 164.282 234.346 164.118V160.273C234.346 160.109 234.346 159.945 234.346 159.864C234.346 159.7 234.346 159.618 234.427 159.536C234.427 159.455 234.346 159.373 234.264 159.291C234.182 159.209 234.018 159.127 233.855 159.045C233.691 158.964 233.527 158.882 233.364 158.882C233.282 158.882 233.118 158.882 233.036 158.882C232.955 158.882 232.873 158.964 232.791 159.127C232.791 159.209 232.791 159.291 232.791 159.373C232.955 159.373 232.955 159.373 233.036 159.455Z" fill="white"/>
</g>
<mask id="mask4_121_772" style="mask-type:luminance" maskUnits="userSpaceOnUse" x="181" y="103" width="54" height="72">
<path d="M235 103H181V175H235V103Z" fill="white"/>
</mask>
<g mask="url(#mask4_121_772)">
<path d="M181.246 160.273C181.246 160.355 181.328 160.437 181.41 160.518C181.492 160.6 181.573 160.682 181.573 160.682C181.737 160.764 181.819 160.846 181.819 160.846C181.819 160.846 181.819 160.846 181.901 160.846C181.982 160.846 182.064 160.846 182.146 160.846C182.392 160.764 182.719 160.764 182.964 160.764C183.292 160.764 183.537 160.682 183.782 160.682C184.028 160.682 184.273 160.682 184.519 160.682C184.764 160.682 185.01 160.682 185.255 160.682C185.501 160.682 185.664 160.682 185.828 160.682C185.91 160.682 185.992 160.682 186.073 160.6C186.155 160.518 186.237 160.437 186.237 160.355C186.237 160.355 186.237 160.273 186.155 160.109C186.155 160.027 186.073 159.946 185.992 159.782C185.91 159.782 185.91 159.7 185.91 159.7C185.91 159.7 185.828 159.7 185.746 159.7C185.582 159.7 185.337 159.782 184.928 159.864C184.519 159.946 184.028 159.946 183.373 160.027C183.046 160.027 182.719 160.027 182.392 160.027C182.064 160.027 181.819 160.027 181.573 159.946C181.492 159.946 181.41 160.027 181.328 160.109C181.246 160.109 181.246 160.191 181.246 160.273Z" fill="white"/>
<path d="M188.364 166.982C188.364 166.9 188.282 166.9 188.2 166.9C188.118 166.9 188.036 166.9 187.955 166.9C187.873 166.9 187.627 166.982 187.382 167.064C187.055 167.145 186.727 167.145 186.318 167.227C185.909 167.227 185.582 167.227 185.336 167.227C185.091 167.227 184.764 167.227 184.518 167.227C184.436 167.227 184.355 167.227 184.355 167.145C184.355 167.145 184.273 167.064 184.273 166.9V166.245C184.273 166.164 184.273 166 184.273 165.836C184.273 165.673 184.273 165.591 184.355 165.427C184.355 165.345 184.355 165.264 184.273 165.264C184.273 165.182 184.191 165.1 184.109 165.1C184.027 165.018 183.864 165.018 183.782 164.936C183.618 164.854 183.536 164.854 183.373 164.854C183.291 164.854 183.209 164.854 183.045 164.854C182.964 164.854 182.882 164.936 182.8 165.1C182.8 165.182 182.718 165.264 182.8 165.345C182.8 165.427 182.882 165.427 182.964 165.509C183.045 165.591 183.127 165.673 183.209 165.673C183.209 165.754 183.291 165.754 183.291 165.836C183.291 165.918 183.291 166.082 183.291 166.245V166.982C183.291 167.227 183.373 167.391 183.455 167.554C183.536 167.718 183.618 167.8 183.782 167.8C183.945 167.882 184.027 167.882 184.109 167.882C184.191 167.882 184.273 167.882 184.436 167.882C184.518 167.882 184.6 167.882 184.6 167.882C184.845 167.882 185.009 167.882 185.255 167.882C185.5 167.882 185.745 167.882 185.909 167.882C185.991 167.882 186.155 167.882 186.236 167.882C186.318 167.882 186.4 167.882 186.482 167.882C186.973 167.882 187.464 167.882 187.791 167.882C187.955 167.882 188.118 167.882 188.2 167.882C188.282 167.882 188.364 167.8 188.445 167.718C188.527 167.636 188.609 167.554 188.609 167.473C188.609 167.473 188.609 167.391 188.527 167.227C188.445 167.145 188.445 166.982 188.364 166.982Z" fill="white"/>
<path d="M189.428 161.909C189.428 161.827 189.346 161.827 189.264 161.827C189.182 161.827 189.101 161.827 189.101 161.827C189.019 161.827 188.855 161.909 188.692 161.909C188.528 161.991 188.282 161.991 188.037 161.991V160.273C188.037 160.109 188.037 159.945 188.037 159.864C188.037 159.7 188.037 159.618 188.119 159.536C188.119 159.455 188.037 159.373 187.955 159.291C187.873 159.209 187.71 159.127 187.546 159.045C187.382 158.964 187.219 158.882 187.055 158.882C186.973 158.882 186.81 158.882 186.728 158.882C186.646 158.882 186.564 158.964 186.482 159.127C186.482 159.209 186.482 159.291 186.482 159.373C186.482 159.455 186.564 159.455 186.646 159.536C186.728 159.618 186.892 159.7 186.892 159.7C186.973 159.782 186.973 159.782 186.973 159.864C186.973 159.945 186.973 160.109 186.973 160.273V164.364C186.973 164.527 186.973 164.691 186.973 164.855C186.973 165.018 186.973 165.264 187.055 165.345C187.137 165.509 187.219 165.591 187.301 165.591C187.464 165.591 187.628 165.509 187.71 165.345C187.792 165.182 187.873 165.018 187.873 164.773C187.873 164.609 187.955 164.364 187.955 164.2V162.645C188.201 162.645 188.364 162.645 188.61 162.645C188.855 162.645 189.019 162.645 189.264 162.727C189.346 162.727 189.428 162.727 189.51 162.645C189.592 162.564 189.673 162.482 189.673 162.4C189.673 162.318 189.673 162.236 189.592 162.155C189.592 162.073 189.51 161.991 189.428 161.909Z" fill="white"/>
<path d="M184.355 164.036C184.682 163.955 185.091 163.873 185.418 163.873C185.745 163.791 186.073 163.709 186.236 163.709C186.482 163.545 186.645 163.464 186.727 163.382C186.809 163.3 186.891 163.218 186.891 163.055C186.891 162.973 186.891 162.891 186.809 162.891C186.727 162.891 186.645 162.891 186.482 162.891C186.318 162.973 186.155 162.973 185.991 163.055C185.827 163.136 185.582 163.136 185.418 163.218L185.5 162.236C185.5 161.991 185.582 161.827 185.582 161.664C185.582 161.5 185.664 161.418 185.664 161.336C185.664 161.255 185.582 161.173 185.5 161.091C185.418 161.009 185.336 161.009 185.173 160.927C185.091 160.845 184.927 160.845 184.764 160.764C184.682 160.764 184.518 160.764 184.436 160.764C184.355 160.845 184.273 160.927 184.191 161.009C184.191 161.091 184.109 161.173 184.191 161.173L184.273 161.255C184.355 161.336 184.436 161.418 184.436 161.582C184.436 161.664 184.436 161.909 184.436 162.073L184.355 163.218C184.109 163.218 183.945 163.3 183.7 163.3C183.536 163.3 183.291 163.382 183.127 163.382C183.127 163.3 183.127 163.3 183.127 163.218C183.127 163.136 183.127 163.055 183.127 162.973V162.155C183.127 161.991 183.127 161.909 183.127 161.745C183.127 161.582 183.127 161.5 183.127 161.418C183.127 161.336 183.045 161.255 182.882 161.173C182.882 161.173 182.8 161.091 182.636 161.091C182.473 161.009 182.391 161.009 182.309 161.009C182.227 161.009 182.145 161.009 182.064 161.009C181.982 161.009 181.9 161.091 181.9 161.255C181.9 161.336 181.818 161.418 181.982 161.582C182.145 161.664 182.227 161.827 182.309 161.991C182.309 162.155 182.391 162.318 182.391 162.482L182.473 163.545C182.309 163.545 182.145 163.545 181.9 163.545C181.655 163.545 181.491 163.545 181.327 163.545C181.245 163.545 181.245 163.627 181.164 163.709C181 163.709 181 163.791 181 163.873C181 163.873 181 163.955 181.164 164.036C181.245 164.118 181.327 164.2 181.409 164.2C181.409 164.282 181.491 164.364 181.573 164.364C181.655 164.364 181.655 164.445 181.736 164.445C181.736 164.445 181.818 164.445 181.9 164.445C182.064 164.364 182.309 164.364 182.555 164.282C182.8 164.2 183.127 164.2 183.373 164.2C183.7 164.118 184.027 164.036 184.355 164.036Z" fill="white"/>
<path d="M195.891 159.455C195.973 159.536 196.137 159.618 196.137 159.7C196.218 159.782 196.218 159.782 196.218 159.864C196.218 159.945 196.218 160.109 196.218 160.273V163.136C196.218 163.218 196.218 163.382 196.218 163.545C196.218 163.709 196.218 163.873 196.3 164.036C196.382 164.2 196.464 164.282 196.546 164.282C196.709 164.282 196.873 164.2 196.955 164.036C197.037 163.873 197.118 163.709 197.118 163.545C197.118 163.382 197.2 163.136 197.2 162.973V160.273C197.2 160.109 197.2 159.945 197.2 159.864C197.2 159.7 197.2 159.618 197.282 159.536C197.282 159.455 197.2 159.373 197.118 159.291C197.037 159.209 196.873 159.127 196.709 159.045C196.546 158.964 196.382 158.882 196.218 158.882C196.137 158.882 195.973 158.882 195.891 158.882C195.809 158.882 195.728 158.964 195.646 159.127C195.564 159.209 195.646 159.291 195.646 159.373C195.728 159.291 195.809 159.373 195.891 159.455Z" fill="white"/>
<path d="M193.19 162.236C193.354 162.4 193.518 162.564 193.763 162.727C193.927 162.891 194.172 163.054 194.254 163.218C194.418 163.382 194.581 163.545 194.663 163.709C194.745 163.709 194.908 163.709 194.99 163.627C195.154 163.545 195.236 163.464 195.236 163.3C195.236 163.218 195.236 163.054 195.154 162.891C195.072 162.727 195.072 162.645 194.99 162.482C194.908 162.4 194.827 162.318 194.745 162.236C194.581 162.154 194.336 162.073 194.008 161.909C193.681 161.745 193.354 161.5 193.027 161.254C193.108 161.173 193.108 161.091 193.19 161.009C193.272 160.927 193.272 160.845 193.354 160.682C193.436 160.518 193.518 160.436 193.518 160.354C193.599 160.273 193.681 160.109 193.681 160.027C193.681 159.945 193.681 159.864 193.599 159.782C193.518 159.7 193.436 159.618 193.272 159.536C193.108 159.454 193.027 159.373 192.863 159.291C192.781 159.209 192.618 159.209 192.536 159.209C192.372 159.209 192.29 159.291 192.208 159.454C192.208 159.536 192.127 159.618 192.208 159.618C192.208 159.7 192.29 159.7 192.29 159.782C192.372 159.864 192.454 159.945 192.454 160.027C192.454 160.109 192.454 160.191 192.372 160.354C192.372 160.354 192.372 160.354 192.372 160.436C192.29 160.764 192.127 161.009 191.963 161.336C191.799 161.664 191.554 161.909 191.308 162.236C191.063 162.482 190.818 162.809 190.572 163.054C190.327 163.3 190.081 163.464 189.918 163.627C189.836 163.709 189.836 163.709 189.754 163.791C189.754 163.873 189.754 163.873 189.754 163.954C189.754 164.036 189.836 164.118 189.999 164.118H190.081C190.163 164.118 190.245 164.118 190.327 164.036C190.736 163.791 191.145 163.464 191.554 163.054C191.963 162.645 192.29 162.236 192.618 161.827C192.863 161.991 193.027 162.073 193.19 162.236Z" fill="white"/>
<path d="M197.2 167.227C197.118 167.146 197.036 167.146 197.036 167.064L197.118 166.409C197.118 166.164 197.2 165.918 197.2 165.755C197.2 165.673 197.2 165.591 197.2 165.509C197.2 165.427 197.2 165.264 197.282 165.182C197.282 165.1 197.282 165.018 197.364 164.936C197.445 164.773 197.282 164.691 197.282 164.691L196.627 164.527C196.545 164.527 196.545 164.527 196.464 164.527H196.382C196.3 164.609 196.136 164.609 195.973 164.609C195.809 164.609 195.645 164.609 195.482 164.691C195.482 164.691 195.318 164.691 195.154 164.691C194.991 164.691 194.827 164.691 194.582 164.691C194.336 164.691 194.173 164.691 193.927 164.691C193.682 164.691 193.518 164.691 193.354 164.691C193.273 164.691 193.109 164.609 193.027 164.609C192.945 164.609 192.782 164.527 192.7 164.527C192.454 164.527 192.291 164.609 192.209 164.855C192.209 164.936 192.209 165.1 192.373 165.182C192.454 165.264 192.536 165.346 192.618 165.346C192.618 165.427 192.7 165.591 192.7 165.755L192.864 167.636C192.864 167.964 193.027 168.046 193.191 168.046C193.273 168.046 193.436 168.046 193.518 167.964C193.6 167.882 193.682 167.882 193.764 167.8C193.927 167.8 194.091 167.8 194.336 167.8C194.582 167.8 194.827 167.8 195.154 167.8C195.482 167.8 195.727 167.8 195.973 167.8C196.218 167.8 196.545 167.8 196.709 167.8C196.954 167.8 197.118 167.8 197.282 167.8C197.364 167.8 197.445 167.718 197.527 167.636C197.609 167.555 197.609 167.473 197.609 167.391C197.282 167.391 197.282 167.309 197.2 167.227ZM196.136 165.918V166.491C196.136 166.655 196.136 166.9 196.136 167.064C195.891 167.064 195.645 167.064 195.318 167.064C194.991 167.064 194.664 167.064 194.336 167.064C194.009 167.064 193.764 167.064 193.518 167.064V165.346C193.682 165.346 193.927 165.346 194.173 165.346C194.418 165.346 194.745 165.346 194.991 165.346C195.236 165.346 195.482 165.346 195.645 165.346C195.809 165.346 195.973 165.346 196.054 165.346H196.136C196.136 165.346 196.136 165.346 196.136 165.427C196.136 165.591 196.136 165.755 196.136 165.918Z" fill="white"/>
</g>
<mask id="mask5_121_772" style="mask-type:luminance" maskUnits="userSpaceOnUse" x="181" y="103" width="54" height="72">
<path d="M235 103H181V175H235V103Z" fill="white"/>
</mask>
<g mask="url(#mask5_121_772)">
<path d="M181.409 171.073L181 170.664H182.391L181.982 171.073V173.527H183.045L183.455 172.382V173.936H181L181.409 173.527V171.073Z" fill="white"/>
</g>
<mask id="mask6_121_772" style="mask-type:luminance" maskUnits="userSpaceOnUse" x="181" y="103" width="54" height="72">
<path d="M235 103H181V175H235V103Z" fill="white"/>
</mask>
<g mask="url(#mask6_121_772)">
<path d="M184.927 172.791L184.681 173.527L185.09 173.937H183.781L184.19 173.527L185.09 170.991L184.681 170.582H186.399L185.99 170.991L186.89 173.527L187.299 173.937H185.99L186.399 173.527L186.154 172.791H184.927ZM185.581 170.991L185.09 172.382H186.072L185.581 170.991Z" fill="white"/>
</g>
<mask id="mask7_121_772" style="mask-type:luminance" maskUnits="userSpaceOnUse" x="181" y="103" width="54" height="72">
<path d="M235 103H181V175H235V103Z" fill="white"/>
</mask>
<g mask="url(#mask7_121_772)">
<path d="M187.136 171.073L186.727 170.664H188.036L187.545 171.073L188.199 173.2L188.772 171.073L188.363 170.664H189.999L189.59 171.073L190.163 173.2L190.817 171.073L190.408 170.664H191.636L191.227 171.073L190.408 174.018H189.917L189.181 171.4L188.445 174.018H187.954L187.136 171.073Z" fill="white"/>
</g>
<mask id="mask8_121_772" style="mask-type:luminance" maskUnits="userSpaceOnUse" x="181" y="103" width="54" height="72">
<path d="M235 103H181V175H235V103Z" fill="white"/>
</mask>
<g mask="url(#mask8_121_772)">
<path d="M193.6 171.073L193.191 170.664H195.728V171.645L195.318 171.073H194.091V172.054H195.564V172.464H194.091V173.527L194.5 173.936H193.109L193.518 173.527V171.073H193.6Z" fill="white"/>
</g>
<mask id="mask9_121_772" style="mask-type:luminance" maskUnits="userSpaceOnUse" x="181" y="103" width="54" height="72">
<path d="M235 103H181V175H235V103Z" fill="white"/>
</mask>
<g mask="url(#mask9_121_772)">
<path d="M196.464 171.073L196.137 170.664H197.364L197.037 171.073V173.527L197.364 173.936H196.137L196.464 173.527V171.073Z" fill="white"/>
</g>
<mask id="mask10_121_772" style="mask-type:luminance" maskUnits="userSpaceOnUse" x="181" y="103" width="54" height="72">
<path d="M235 103H181V175H235V103Z" fill="white"/>
</mask>
<g mask="url(#mask10_121_772)">
<path d="M198.018 171.073L197.527 170.664H198.918C199 170.664 199.164 170.664 199.246 170.664C199.327 170.664 199.409 170.664 199.491 170.664C199.573 170.664 199.573 170.664 199.655 170.664C199.736 170.664 199.736 170.664 199.818 170.745C199.982 170.827 200.064 170.909 200.146 171.073C200.227 171.236 200.227 171.318 200.227 171.564C200.227 171.809 200.146 171.973 200.064 172.054C199.982 172.218 199.736 172.3 199.573 172.382L200.146 173.609L200.555 174.018H199.818L199 172.382H198.509V173.527L198.918 173.936H197.527L198.018 173.527V171.073ZM198.918 171.973C199 171.973 199.082 171.973 199.082 171.973C199.164 171.973 199.164 171.973 199.246 171.973H199.327H199.409C199.491 171.973 199.573 171.891 199.573 171.809C199.655 171.727 199.655 171.645 199.655 171.564C199.655 171.482 199.655 171.4 199.655 171.318C199.655 171.236 199.573 171.236 199.573 171.154C199.491 171.154 199.409 171.073 199.327 171.073C199.246 171.073 199.164 171.073 199 171.073H198.591V171.973H198.918Z" fill="white"/>
</g>
<mask id="mask11_121_772" style="mask-type:luminance" maskUnits="userSpaceOnUse" x="181" y="103" width="54" height="72">
<path d="M235 103H181V175H235V103Z" fill="white"/>
</mask>
<g mask="url(#mask11_121_772)">
<path d="M201.21 171.073L200.801 170.664H201.946L202.846 172.954L203.746 170.664H204.892L204.483 171.073V173.527L204.892 173.936H203.664L204.074 173.527V171.073L202.928 174.018H202.846L201.701 171.073V173.527L202.028 173.936H200.883L201.292 173.527V171.073H201.21Z" fill="white"/>
</g>
<mask id="mask12_121_772" style="mask-type:luminance" maskUnits="userSpaceOnUse" x="181" y="103" width="54" height="72">
<path d="M235 103H181V175H235V103Z" fill="white"/>
</mask>
<g mask="url(#mask12_121_772)">
<path d="M206.199 174.918C206.281 174.918 206.363 174.836 206.445 174.836C206.526 174.836 206.526 174.754 206.608 174.754C206.69 174.754 206.69 174.673 206.69 174.673C206.772 174.591 206.772 174.509 206.854 174.509C206.854 174.509 206.936 174.427 206.936 174.345C206.936 174.264 206.936 174.264 206.936 174.182V171.073L206.526 170.664H207.917L207.508 171.073V173.936C207.508 174.018 207.508 174.1 207.508 174.182C207.508 174.264 207.508 174.345 207.508 174.345C207.508 174.427 207.508 174.427 207.508 174.509C207.508 174.509 207.508 174.591 207.426 174.591C207.345 174.673 207.263 174.754 207.099 174.836C206.936 175 206.772 175 206.608 175C206.445 175 206.363 175 206.199 174.918Z" fill="white"/>
</g>
<mask id="mask13_121_772" style="mask-type:luminance" maskUnits="userSpaceOnUse" x="181" y="103" width="54" height="72">
<path d="M235 103H181V175H235V103Z" fill="white"/>
</mask>
<g mask="url(#mask13_121_772)">
<path d="M209.146 172.709C209.146 172.791 209.146 172.873 209.146 172.955C209.146 173.037 209.146 173.037 209.146 173.118C209.146 173.2 209.146 173.2 209.146 173.2C209.146 173.2 209.146 173.282 209.228 173.282C209.31 173.446 209.555 173.527 209.801 173.527C209.964 173.527 210.046 173.527 210.21 173.446C210.292 173.364 210.373 173.364 210.455 173.282C210.455 173.282 210.455 173.2 210.537 173.2V173.118C210.537 173.037 210.537 173.037 210.537 172.955C210.537 172.873 210.537 172.791 210.537 172.709V170.991L210.128 170.582H211.437L211.028 170.991V172.709C211.028 172.873 211.028 172.955 211.028 173.037C211.028 173.118 211.028 173.2 211.028 173.282C211.028 173.364 211.028 173.364 210.946 173.446C210.946 173.527 210.864 173.527 210.864 173.609C210.619 173.855 210.292 174.018 209.882 174.018C209.637 174.018 209.392 174.018 209.228 173.937C209.064 173.855 208.901 173.773 208.819 173.609C208.737 173.527 208.737 173.527 208.737 173.446C208.737 173.364 208.655 173.364 208.655 173.282C208.655 173.2 208.655 173.118 208.655 173.037C208.655 172.955 208.655 172.873 208.655 172.709V170.991L208.246 170.582H209.555L209.146 170.991V172.709Z" fill="white"/>
</g>
<mask id="mask14_121_772" style="mask-type:luminance" maskUnits="userSpaceOnUse" x="181" y="103" width="54" height="72">
<path d="M235 103H181V175H235V103Z" fill="white"/>
</mask>
<g mask="url(#mask14_121_772)">
<path d="M212.173 171.073L211.682 170.664H212.991C213.154 170.664 213.318 170.664 213.482 170.664C213.645 170.664 213.727 170.664 213.809 170.664C213.891 170.664 213.973 170.664 214.054 170.745C214.136 170.745 214.218 170.827 214.3 170.827C214.545 170.991 214.709 171.154 214.873 171.4C215.036 171.645 215.036 171.891 215.036 172.218C215.036 172.545 214.954 172.873 214.873 173.118C214.709 173.364 214.545 173.527 214.382 173.691C214.3 173.773 214.218 173.773 214.136 173.773C214.054 173.773 213.973 173.854 213.891 173.854C213.809 173.854 213.645 173.854 213.563 173.854C213.4 173.854 213.318 173.854 213.073 173.854H211.845L212.336 173.445L212.173 171.073ZM212.909 173.527C213.073 173.527 213.154 173.527 213.236 173.527C213.318 173.527 213.4 173.527 213.482 173.527C213.563 173.527 213.645 173.527 213.727 173.445C213.809 173.445 213.891 173.364 213.891 173.364C214.054 173.282 214.218 173.118 214.3 172.954C214.382 172.791 214.463 172.545 214.463 172.3C214.463 172.054 214.382 171.891 214.3 171.645C214.218 171.482 214.136 171.318 213.973 171.236C213.891 171.236 213.891 171.154 213.809 171.154C213.727 171.154 213.645 171.154 213.645 171.073C213.563 171.073 213.482 171.073 213.4 171.073C213.318 171.073 213.154 171.073 212.991 171.073H212.745V173.527H212.909Z" fill="white"/>
</g>
<mask id="mask15_121_772" style="mask-type:luminance" maskUnits="userSpaceOnUse" x="181" y="103" width="54" height="72">
<path d="M235 103H181V175H235V103Z" fill="white"/>
</mask>
<g mask="url(#mask15_121_772)">
<path d="M218.799 172.382V172.464C218.799 172.709 218.799 172.955 218.718 173.118C218.636 173.282 218.554 173.446 218.39 173.609C218.227 173.773 218.063 173.855 217.818 173.937C217.572 174.018 217.409 174.018 217.081 174.018C216.672 174.018 216.345 173.937 216.099 173.855C215.854 173.691 215.609 173.527 215.527 173.2C215.363 172.955 215.281 172.627 215.281 172.3C215.281 172.055 215.281 171.809 215.445 171.646C215.527 171.4 215.609 171.237 215.772 171.073C215.936 170.909 216.099 170.827 216.345 170.746C216.59 170.664 216.754 170.582 216.999 170.582C217.163 170.582 217.327 170.582 217.409 170.664C217.572 170.664 217.654 170.746 217.818 170.827C217.818 170.827 217.899 170.827 217.899 170.909C217.899 170.991 217.981 170.909 217.981 170.991C217.981 170.991 218.063 170.991 218.063 171.073L218.145 171.155L218.554 170.827V171.727C218.472 171.646 218.39 171.564 218.309 171.564C218.227 171.482 218.145 171.482 218.063 171.4C217.981 171.318 217.899 171.318 217.736 171.237C217.654 171.237 217.572 171.155 217.49 171.155C217.409 171.155 217.327 171.155 217.245 171.073C217.163 171.073 217.081 171.073 216.999 171.073C216.918 171.073 216.918 171.073 216.836 171.073C216.672 171.073 216.509 171.073 216.345 171.155C216.181 171.237 216.099 171.318 215.936 171.4C215.854 171.482 215.772 171.646 215.69 171.809C215.609 171.973 215.609 172.137 215.609 172.3C215.609 172.464 215.609 172.627 215.69 172.791C215.772 172.955 215.854 173.118 215.936 173.2C216.018 173.282 216.181 173.364 216.345 173.446C216.509 173.527 216.672 173.527 216.836 173.527C216.999 173.527 217.081 173.527 217.245 173.446C217.409 173.446 217.49 173.364 217.572 173.282C217.654 173.2 217.736 173.118 217.818 173.037C217.899 172.955 217.899 172.791 217.981 172.709L217.409 172.3L218.799 172.382Z" fill="white"/>
</g>
<mask id="mask16_121_772" style="mask-type:luminance" maskUnits="userSpaceOnUse" x="181" y="103" width="54" height="72">
<path d="M235 103H181V175H235V103Z" fill="white"/>
</mask>
<g mask="url(#mask16_121_772)">
<path d="M219.372 171.073L218.963 170.664H221.745V171.645L221.336 171.073H219.945V172.054H221.417V172.464H219.945V173.527H221.336L221.745 172.954V173.936H218.963L219.372 173.527V171.073Z" fill="white"/>
</g>
<mask id="mask17_121_772" style="mask-type:luminance" maskUnits="userSpaceOnUse" x="181" y="103" width="54" height="72">
<path d="M235 103H181V175H235V103Z" fill="white"/>
</mask>
<g mask="url(#mask17_121_772)">
<path d="M222.399 171.073L221.99 170.664H223.136L224.036 172.954L224.936 170.664H226.081L225.672 171.073V173.527L226.081 173.936H224.854L225.263 173.527V171.073L224.118 174.018H224.036L222.89 171.073V173.527L223.218 173.936H222.072L222.481 173.527V171.073H222.399Z" fill="white"/>
</g>
<mask id="mask18_121_772" style="mask-type:luminance" maskUnits="userSpaceOnUse" x="181" y="103" width="54" height="72">
<path d="M235 103H181V175H235V103Z" fill="white"/>
</mask>
<g mask="url(#mask18_121_772)">
<path d="M226.735 171.073L226.408 170.664H227.635L227.308 171.073V173.527L227.635 173.936H226.408L226.735 173.527V171.073Z" fill="white"/>
</g>
<mask id="mask19_121_772" style="mask-type:luminance" maskUnits="userSpaceOnUse" x="181" y="103" width="54" height="72">
<path d="M235 103H181V175H235V103Z" fill="white"/>
</mask>
<g mask="url(#mask19_121_772)">
<path d="M228.372 171.073L227.881 170.664H229.026L230.499 173.2V171.073L230.008 170.664H231.399L230.908 171.073V174.018H230.417L228.863 171.154V173.527L229.354 173.936H227.963L228.454 173.527L228.372 171.073Z" fill="white"/>
</g>
<mask id="mask20_121_772" style="mask-type:luminance" maskUnits="userSpaceOnUse" x="181" y="103" width="54" height="72">
<path d="M235 103H181V175H235V103Z" fill="white"/>
</mask>
<g mask="url(#mask20_121_772)">
<path d="M232.136 171.073L231.727 170.664H233.036C233.199 170.664 233.363 170.664 233.527 170.664C233.69 170.664 233.772 170.664 233.854 170.664C233.936 170.664 234.017 170.664 234.099 170.745C234.181 170.745 234.263 170.827 234.345 170.827C234.59 170.991 234.754 171.154 234.917 171.4C235.081 171.645 235.081 171.891 235.081 172.218C235.081 172.545 234.999 172.873 234.917 173.118C234.754 173.364 234.59 173.527 234.427 173.691C234.345 173.773 234.263 173.773 234.181 173.773C234.099 173.773 234.017 173.854 233.936 173.854C233.854 173.854 233.69 173.854 233.608 173.854C233.445 173.854 233.363 173.854 233.117 173.854H231.89L232.381 173.445L232.136 171.073ZM232.954 173.527C233.117 173.527 233.199 173.527 233.281 173.527C233.363 173.527 233.445 173.527 233.527 173.527C233.608 173.527 233.69 173.527 233.772 173.445C233.854 173.445 233.936 173.364 233.936 173.364C234.099 173.282 234.263 173.118 234.345 172.954C234.427 172.791 234.508 172.545 234.508 172.3C234.508 172.054 234.427 171.891 234.345 171.645C234.263 171.482 234.181 171.318 234.017 171.236C233.936 171.236 233.936 171.154 233.854 171.154C233.772 171.154 233.69 171.154 233.69 171.073C233.608 171.073 233.527 171.073 233.445 171.073C233.363 171.073 233.199 171.073 233.036 171.073H232.79V173.527H232.954Z" fill="white"/>
</g>
</g>
<defs>
<clipPath id="clip0_121_772">
<rect width="54" height="72" fill="white" transform="translate(181 103)"/>
</clipPath>
</defs>
</svg>
