<svg width="416" height="278" viewBox="0 0 416 278" fill="none" xmlns="http://www.w3.org/2000/svg">
<g clip-path="url(#clip0_121_744)">
<mask id="mask0_121_744" style="mask-type:luminance" maskUnits="userSpaceOnUse" x="128" y="117" width="160" height="44">
<path d="M288 117H128V160.146H288V117Z" fill="white"/>
</mask>
<g mask="url(#mask0_121_744)">
<path d="M260.669 131.136H254.933V134.428H260.308V136.322H254.933V140.198C257.396 140.176 259.113 140.084 261.166 139.793L261.347 141.776C259.022 142.181 257.079 142.25 253.983 142.272H252.627V129.201H260.667V131.139L260.669 131.136ZM262.339 127.396H264.687V134.832H266.719V127.035H269.067V146.911H266.719V136.815H264.687V145.966H262.339V127.396Z" fill="white"/>
<path d="M283.163 136.05L281.854 137.988C279.687 137.2 278.15 135.756 277.314 133.865C276.433 136.027 274.785 137.741 272.367 138.576L271.059 136.637C274.357 135.534 276.005 132.875 276.028 130.013V128.119H278.467V129.877C278.467 132.603 280.048 135.082 283.166 136.052L283.163 136.05ZM281.131 139.25C285.355 139.272 287.929 140.669 287.954 143.082C287.931 145.538 285.355 146.914 281.131 146.914C276.908 146.914 274.335 145.538 274.357 143.082C274.335 140.669 276.933 139.272 281.131 139.25ZM281.131 144.973C283.911 144.995 285.492 144.318 285.514 143.079C285.492 141.839 283.911 141.185 281.131 141.185C278.353 141.185 276.772 141.839 276.797 143.079C276.775 144.318 278.356 144.995 281.131 144.973ZM281.449 130.864H285.423V127.032H287.862V138.75H285.423V132.891H281.449V130.864Z" fill="white"/>
<path d="M185.955 131.885H189.651V129.65H191.629V132.631H194.952V128.793H196.97V137.772H194.952V134.305H191.629V137.286H183.938V129.647H185.955V131.882V131.885ZM189.651 135.648V133.449H185.955V135.648H189.651ZM186.102 138.517H188.12V140.195H194.952V138.517H196.97V145H186.105V138.517H186.102ZM194.952 143.362V141.759H188.12V143.362H194.952Z" fill="white"/>
<path d="M214.181 139.746H207.61V145.222H205.592V139.746H199.096V138.107H214.181V139.746ZM200.927 129.647H212.314V136.169H200.927V129.647ZM210.3 134.602V131.25H202.944V134.602H210.3Z" fill="white"/>
<path d="M217.844 131.885H221.539V129.65H223.518V132.631H226.841V128.793H228.858V137.772H226.841V134.305H223.518V137.286H215.826V129.647H217.844V131.882V131.885ZM221.539 135.648V133.449H217.844V135.648H221.539ZM217.991 138.517H220.009V140.195H226.841V138.517H228.858V145H217.993V138.517H217.991ZM226.841 143.362V141.759H220.009V143.362H226.841Z" fill="white"/>
<path d="M235.764 129.911C238.248 129.891 240.188 131.605 240.171 134.009C240.191 136.43 238.248 138.127 235.764 138.107C233.244 138.127 231.302 136.43 231.32 134.009C231.302 131.605 233.244 129.891 235.764 129.911ZM235.764 136.358C237.125 136.358 238.19 135.465 238.19 134.009C238.19 132.553 237.125 131.66 235.764 131.66C234.403 131.66 233.28 132.573 233.3 134.009C233.28 135.462 234.344 136.358 235.764 136.358ZM233.822 139.488H235.875V143.29H245.173V144.929H233.822V139.488ZM244.725 140.681H242.708V128.832H244.725V140.681Z" fill="white"/>
<path d="M149.61 131.3H128V160.146H156.904V146.296H139.568L149.61 131.3Z" fill="white"/>
<path d="M158.981 117L149.611 131.3H156.906V146.296H177.835L158.981 117Z" fill="white"/>
<path d="M169.404 154.353H170.205V158.912H172.58V159.6H169.407V154.351L169.404 154.353Z" fill="white"/>
<path d="M176.841 159.603L178.73 154.354H179.653L181.548 159.603H180.698L180.217 158.219H178.169L177.688 159.603H176.838H176.841ZM179.986 157.551L179.208 155.31H179.172L178.4 157.551H179.986Z" fill="white"/>
<path d="M185.135 154.354H185.977L187.002 158.413H187.047L188.114 154.354H188.942L190.009 158.413H190.053L191.078 154.354H191.92L190.462 159.603H189.656L188.553 155.682H188.508L187.405 159.603H186.599L185.14 154.354H185.135Z" fill="white"/>
<path d="M196.287 154.353H199.549V155.041H197.087V156.627H199.316V157.309H197.087V159.6H196.287V154.351V154.353Z" fill="white"/>
<path d="M204.833 159.603H204.033V154.354H204.833V159.603Z" fill="white"/>
<path d="M209.657 154.354H211.53C212.753 154.354 213.353 155.03 213.353 155.998C213.353 156.705 213.033 157.237 212.394 157.481L213.556 159.603H212.647L211.58 157.623H210.455V159.603H209.654V154.354H209.657ZM211.452 156.935C212.225 156.932 212.55 156.591 212.55 156.001C212.55 155.41 212.227 155.041 211.452 155.036H210.457V156.935H211.452Z" fill="white"/>
<path d="M218.967 154.354L220.632 158.419H220.698L222.362 154.354H223.335V159.603H222.573V155.812H222.524L220.984 159.597H220.353L218.805 155.806H218.761V159.605H218V154.356H218.973L218.967 154.354Z" fill="white"/>
<path d="M232.852 154.354H236.926V155.041H235.292V159.6H234.492V155.041H232.85V154.354H232.852Z" fill="white"/>
<path d="M240.354 159.603L242.244 154.354H243.167L245.062 159.603H244.211L243.73 158.219H241.683L241.202 159.603H240.352H240.354ZM243.5 157.551L242.722 155.31H242.686L241.914 157.551H243.5Z" fill="white"/>
<path d="M249.439 154.353H252.737V155.041H250.239V156.627H252.562V157.309H250.239V158.912H252.768V159.6H249.442V154.351L249.439 154.353Z" fill="white"/>
<path d="M259.088 154.972C258.445 154.972 258.037 155.302 258.034 155.748C258.034 156.245 258.576 156.441 258.992 156.538L259.501 156.677C260.174 156.841 261.016 157.207 261.019 158.155C261.016 159.042 260.308 159.691 259.065 159.691C257.89 159.691 257.148 159.103 257.098 158.147H257.898C257.945 158.721 258.454 158.992 259.068 158.995C259.74 158.992 260.227 158.654 260.229 158.141C260.227 157.684 259.791 157.501 259.234 157.351L258.61 157.185C257.765 156.952 257.24 156.525 257.237 155.793C257.24 154.886 258.045 154.284 259.109 154.284C260.174 154.284 260.921 154.894 260.947 155.74H260.168C260.118 155.252 259.687 154.972 259.088 154.972Z" fill="white"/>
<path d="M269.739 154.354V157.803C269.741 158.904 268.911 159.689 267.655 159.689C266.399 159.689 265.56 158.907 265.563 157.803V154.354H266.363V157.739C266.36 158.449 266.858 158.962 267.655 158.965C268.45 158.962 268.941 158.449 268.941 157.739V154.354H269.741H269.739Z" fill="white"/>
<path d="M278.792 159.603H278.059L275.394 155.768H275.349V159.603H274.549V154.354H275.291L277.956 158.194H278.006V154.354H278.79V159.603H278.792Z" fill="white"/>
<path d="M285.778 155.013C284.891 155.011 284.213 155.707 284.207 156.976C284.21 158.244 284.882 158.945 285.813 158.94C286.653 158.942 287.209 158.41 287.222 157.57H285.93V156.91H288V157.503C288 158.834 287.086 159.672 285.808 159.672C284.385 159.672 283.418 158.64 283.418 156.976C283.418 155.313 284.413 154.281 285.772 154.281C286.908 154.281 287.787 154.988 287.964 156.014H287.145C286.947 155.396 286.472 155.011 285.78 155.013H285.778Z" fill="white"/>
</g>
</g>
<defs>
<clipPath id="clip0_121_744">
<rect width="160" height="43.1461" fill="white" transform="translate(128 117)"/>
</clipPath>
</defs>
</svg>
