<svg width="416" height="278" viewBox="0 0 416 278" fill="none" xmlns="http://www.w3.org/2000/svg">
<g clip-path="url(#clip0_121_953)">
<mask id="mask0_121_953" style="mask-type:luminance" maskUnits="userSpaceOnUse" x="127" y="120" width="161" height="38">
<path d="M287.996 120H127.996V157.471H287.996V120Z" fill="white"/>
</mask>
<g mask="url(#mask0_121_953)">
<mask id="mask1_121_953" style="mask-type:luminance" maskUnits="userSpaceOnUse" x="206" y="125" width="22" height="33">
<path d="M209.28 136.399C209.28 132.241 212.65 128.871 216.806 128.871C220.961 128.871 224.331 132.241 224.331 136.399C224.331 140.557 220.961 143.924 216.806 143.924C212.65 143.924 209.28 140.555 209.28 136.399ZM209.28 129.025V125.861H206.27V136.395V157.471H209.28V143.768C211.192 145.72 213.857 146.933 216.806 146.933C222.624 146.933 227.342 142.215 227.342 136.397C227.342 130.578 222.624 125.861 216.806 125.861C213.857 125.861 211.192 127.073 209.28 129.025Z" fill="white"/>
</mask>
<g mask="url(#mask1_121_953)">
<path d="M227.344 125.861H206.27V157.471H227.344V125.861Z" fill="white"/>
</g>
<mask id="mask2_121_953" style="mask-type:luminance" maskUnits="userSpaceOnUse" x="158" y="125" width="22" height="22">
<path d="M161.11 136.399C161.11 132.243 164.479 128.871 168.637 128.871C172.796 128.871 176.163 132.241 176.163 136.399C176.163 140.557 172.793 143.924 168.637 143.924C164.482 143.924 161.11 140.555 161.11 136.399ZM176.163 125.863V129.027C174.251 127.075 171.586 125.863 168.637 125.863C162.819 125.863 158.102 130.581 158.102 136.399C158.102 142.217 162.819 146.935 168.637 146.935C171.586 146.935 174.251 145.723 176.163 143.771V146.935H179.173V125.861H176.163V125.863Z" fill="white"/>
</mask>
<g mask="url(#mask2_121_953)">
<path d="M179.176 125.861H158.102V146.935H179.176V125.861Z" fill="white"/>
</g>
<mask id="mask3_121_953" style="mask-type:luminance" maskUnits="userSpaceOnUse" x="127" y="125" width="29" height="22">
<path d="M152.081 125.861V139.407C152.081 141.901 150.06 143.922 147.566 143.922C145.072 143.922 143.049 141.899 143.049 139.407V125.861H140.038V139.407C140.038 141.901 138.017 143.922 135.524 143.922C133.03 143.922 131.007 141.899 131.007 139.407V126.021H127.996V139.41C127.996 143.566 131.365 146.935 135.521 146.935C137.988 146.935 140.17 145.743 141.543 143.911C142.915 145.745 145.099 146.935 147.564 146.935C151.72 146.935 155.089 143.566 155.089 139.41V125.861H152.079H152.081Z" fill="white"/>
</mask>
<g mask="url(#mask3_121_953)">
<path d="M155.091 125.861H127.996V146.935H155.091V125.861Z" fill="white"/>
</g>
<mask id="mask4_121_953" style="mask-type:luminance" maskUnits="userSpaceOnUse" x="236" y="125" width="22" height="22">
<path d="M254.487 125.861V136.399C254.487 140.555 251.116 143.922 246.96 143.922C242.804 143.922 239.435 140.553 239.435 136.395V125.861H236.424V137.15H236.453C236.838 142.618 241.393 146.935 246.96 146.935C249.908 146.935 252.573 145.723 254.487 143.771V146.935H257.498V136.401V136.399V125.861H254.487Z" fill="white"/>
</mask>
<g mask="url(#mask4_121_953)">
<path d="M257.5 125.861H236.426V146.935H257.5V125.861Z" fill="white"/>
</g>
<mask id="mask5_121_953" style="mask-type:luminance" maskUnits="userSpaceOnUse" x="182" y="125" width="22" height="33">
<path d="M200.247 125.861V131.882C200.247 136.038 196.877 139.407 192.722 139.407C188.566 139.407 185.196 136.038 185.196 131.88V125.858H182.186V131.88C182.186 137.698 186.903 142.415 192.722 142.415C195.67 142.415 198.335 141.203 200.247 139.249V146.93C200.247 151.086 196.877 154.456 192.722 154.456C188.566 154.456 185.196 151.086 185.196 146.93H182.186C182.186 152.749 186.903 157.466 192.722 157.466C198.54 157.466 203.258 152.749 203.258 146.93V125.861H200.247Z" fill="white"/>
</mask>
<g mask="url(#mask5_121_953)">
<path d="M203.258 125.861H182.184V157.471H203.258V125.861Z" fill="white"/>
</g>
<mask id="mask6_121_953" style="mask-type:luminance" maskUnits="userSpaceOnUse" x="230" y="120" width="4" height="27">
<path d="M233.364 120H230.354V146.935H233.364V120Z" fill="white"/>
</mask>
<g mask="url(#mask6_121_953)">
<path d="M233.364 120H230.354V146.935H233.364V120Z" fill="white"/>
</g>
<mask id="mask7_121_953" style="mask-type:luminance" maskUnits="userSpaceOnUse" x="260" y="125" width="22" height="22">
<path d="M266.504 125.861C263.192 125.868 260.509 128.555 260.509 131.869C260.509 135.182 263.192 137.87 266.504 137.876V137.903H275.535V137.876H275.573C277.242 137.876 278.597 139.231 278.597 140.9C278.597 142.569 277.245 143.924 275.573 143.924H260.482V146.935H275.535V146.908C275.549 146.908 275.56 146.908 275.573 146.908C278.891 146.908 281.581 144.218 281.581 140.9C281.581 137.582 278.891 134.893 275.573 134.893C275.56 134.893 275.549 134.893 275.535 134.893H271.702H266.517C264.848 134.893 263.495 133.54 263.495 131.869C263.495 130.197 264.841 128.854 266.506 128.847V128.871H275.537V125.861H266.506H266.504Z" fill="white"/>
</mask>
<g mask="url(#mask7_121_953)">
<path d="M281.583 125.861H260.484V146.935H281.583V125.861Z" fill="white"/>
</g>
<path d="M220.917 151.04V151.49H219.08V152.764H220.805V153.214H219.08V154.855H218.557V151.04H220.917Z" fill="white"/>
<path d="M223.219 154.912C222.989 154.912 222.78 154.877 222.593 154.81C222.403 154.741 222.241 154.636 222.102 154.496C221.964 154.355 221.857 154.179 221.784 153.972C221.708 153.765 221.67 153.52 221.67 153.237V152.659C221.67 152.381 221.708 152.138 221.784 151.929C221.86 151.719 221.966 151.545 222.102 151.405C222.241 151.264 222.403 151.157 222.595 151.086C222.784 151.015 222.994 150.981 223.219 150.981C223.444 150.981 223.653 151.017 223.843 151.086C224.034 151.157 224.197 151.262 224.335 151.405C224.473 151.545 224.58 151.721 224.656 151.929C224.732 152.136 224.77 152.379 224.77 152.659V153.237C224.77 153.52 224.732 153.765 224.656 153.972C224.58 154.181 224.473 154.355 224.335 154.496C224.197 154.636 224.034 154.741 223.843 154.81C223.651 154.879 223.444 154.912 223.219 154.912ZM223.219 151.458C223.069 151.458 222.933 151.483 222.809 151.53C222.684 151.576 222.575 151.652 222.486 151.752C222.396 151.853 222.325 151.984 222.274 152.145C222.223 152.305 222.198 152.497 222.198 152.72V153.181C222.198 153.404 222.223 153.595 222.274 153.754C222.325 153.914 222.396 154.046 222.486 154.146C222.575 154.246 222.684 154.32 222.809 154.369C222.933 154.415 223.069 154.44 223.219 154.44C223.368 154.44 223.504 154.415 223.629 154.369C223.754 154.322 223.863 154.246 223.952 154.146C224.041 154.046 224.112 153.914 224.164 153.754C224.215 153.593 224.242 153.401 224.242 153.181V152.72C224.242 152.497 224.215 152.305 224.164 152.145C224.112 151.984 224.041 151.853 223.952 151.752C223.86 151.652 223.754 151.579 223.629 151.53C223.504 151.483 223.368 151.458 223.219 151.458Z" fill="white"/>
<path d="M226.264 154.855H225.74V151.04H227.122C227.316 151.04 227.487 151.066 227.641 151.12C227.793 151.173 227.92 151.245 228.022 151.336C228.124 151.427 228.202 151.536 228.258 151.664C228.312 151.791 228.341 151.929 228.341 152.08V152.218C228.341 152.432 228.285 152.624 228.174 152.789C228.062 152.954 227.904 153.079 227.699 153.159L228.456 154.852H227.891L227.202 153.261H226.266V154.852L226.264 154.855ZM226.264 152.818H226.995C227.291 152.818 227.503 152.762 227.628 152.651C227.752 152.539 227.815 152.39 227.815 152.203V152.098C227.815 151.911 227.752 151.764 227.63 151.655C227.505 151.545 227.311 151.49 227.048 151.49H226.266V152.818H226.264Z" fill="white"/>
<path d="M232.409 153.322V154.855H231.885V153.322L230.572 151.042H231.154L232.155 152.825L233.129 151.042H233.71L232.409 153.322Z" fill="white"/>
<path d="M235.885 154.912C235.655 154.912 235.446 154.877 235.259 154.81C235.069 154.741 234.907 154.636 234.768 154.496C234.63 154.355 234.523 154.179 234.448 153.972C234.372 153.765 234.334 153.52 234.334 153.237V152.659C234.334 152.381 234.372 152.138 234.448 151.929C234.523 151.719 234.63 151.545 234.768 151.405C234.907 151.264 235.069 151.157 235.261 151.086C235.45 151.015 235.66 150.981 235.885 150.981C236.11 150.981 236.32 151.017 236.509 151.086C236.698 151.157 236.863 151.262 237.001 151.405C237.139 151.545 237.247 151.721 237.322 151.929C237.398 152.136 237.436 152.379 237.436 152.659V153.237C237.436 153.52 237.398 153.765 237.322 153.972C237.247 154.181 237.139 154.355 237.001 154.496C236.863 154.636 236.701 154.741 236.509 154.81C236.317 154.879 236.11 154.912 235.885 154.912ZM235.885 151.458C235.735 151.458 235.6 151.483 235.475 151.53C235.35 151.576 235.243 151.652 235.152 151.752C235.062 151.853 234.991 151.984 234.94 152.145C234.889 152.305 234.862 152.497 234.862 152.72V153.181C234.862 153.404 234.887 153.595 234.94 153.754C234.991 153.914 235.062 154.046 235.152 154.146C235.241 154.246 235.35 154.32 235.475 154.369C235.6 154.415 235.738 154.44 235.885 154.44C236.032 154.44 236.17 154.415 236.295 154.369C236.42 154.322 236.529 154.246 236.618 154.146C236.707 154.046 236.779 153.914 236.83 153.754C236.881 153.593 236.906 153.401 236.906 153.181V152.72C236.906 152.497 236.881 152.305 236.83 152.145C236.779 151.984 236.707 151.853 236.618 151.752C236.529 151.652 236.42 151.579 236.295 151.53C236.17 151.483 236.032 151.458 235.885 151.458Z" fill="white"/>
<path d="M241.202 151.04V153.326C241.202 153.616 241.171 153.861 241.106 154.061C241.044 154.262 240.95 154.427 240.83 154.554C240.709 154.681 240.563 154.772 240.386 154.83C240.21 154.886 240.01 154.915 239.782 154.915C239.555 154.915 239.357 154.886 239.179 154.83C239.003 154.774 238.853 154.681 238.735 154.554C238.615 154.427 238.523 154.262 238.461 154.061C238.396 153.861 238.365 153.616 238.365 153.326V151.04H238.889V153.261C238.889 153.475 238.907 153.658 238.942 153.809C238.978 153.959 239.031 154.081 239.107 154.175C239.181 154.269 239.274 154.335 239.388 154.378C239.502 154.42 239.633 154.44 239.785 154.44C239.936 154.44 240.068 154.42 240.181 154.378C240.295 154.335 240.389 154.266 240.462 154.175C240.536 154.081 240.591 153.959 240.625 153.809C240.661 153.658 240.678 153.477 240.678 153.261V151.04H241.202Z" fill="white"/>
<path d="M242.773 154.855H242.25V151.04H243.632C243.825 151.04 243.999 151.066 244.151 151.12C244.302 151.173 244.429 151.245 244.532 151.336C244.634 151.427 244.712 151.536 244.768 151.664C244.822 151.791 244.85 151.929 244.85 152.08V152.218C244.85 152.432 244.795 152.624 244.683 152.789C244.572 152.954 244.414 153.079 244.209 153.159L244.964 154.852H244.398L243.709 153.261H242.773V154.852V154.855ZM242.773 152.818H243.505C243.801 152.818 244.013 152.762 244.137 152.651C244.262 152.539 244.325 152.39 244.325 152.203V152.098C244.325 151.911 244.262 151.764 244.14 151.655C244.017 151.545 243.821 151.49 243.558 151.49H242.776V152.818H242.773Z" fill="white"/>
<path d="M247.428 151.039H248.783C249.589 151.039 249.995 151.349 249.995 151.971V152.082C249.995 152.167 249.984 152.249 249.964 152.327C249.944 152.405 249.908 152.479 249.861 152.548C249.814 152.615 249.75 152.675 249.672 152.724C249.591 152.775 249.496 152.815 249.384 152.842C249.618 152.878 249.808 152.967 249.953 153.107C250.099 153.248 250.173 153.45 250.173 153.716V153.847C250.173 154.161 250.073 154.406 249.875 154.585C249.676 154.763 249.369 154.852 248.952 154.852H247.434V151.037L247.428 151.039ZM247.951 151.489V152.648H248.629C248.76 152.648 248.876 152.642 248.981 152.628C249.085 152.615 249.172 152.586 249.244 152.544C249.315 152.501 249.369 152.443 249.404 152.37C249.442 152.296 249.46 152.198 249.46 152.078V151.982C249.46 151.868 249.442 151.781 249.409 151.715C249.375 151.648 249.322 151.601 249.251 151.565C249.179 151.532 249.088 151.51 248.979 151.501C248.87 151.492 248.74 151.487 248.593 151.487H247.953L247.951 151.489ZM247.951 154.4H248.749C248.898 154.4 249.028 154.393 249.139 154.375C249.251 154.36 249.342 154.331 249.413 154.288C249.484 154.246 249.54 154.188 249.576 154.117C249.612 154.045 249.63 153.952 249.63 153.838V153.722C249.63 153.606 249.614 153.506 249.583 153.426C249.551 153.346 249.496 153.279 249.418 153.225C249.339 153.172 249.237 153.134 249.11 153.112C248.983 153.089 248.825 153.078 248.633 153.078H247.951V154.402V154.4Z" fill="white"/>
<path d="M253.385 151.04V151.49H251.533V152.675H253.274V153.125H251.533V154.407H253.423V154.857H251.01V151.042H253.385V151.04Z" fill="white"/>
<path d="M255.212 154.855V151.49H254.049V151.04H256.901V151.49H255.738V154.855H255.214H255.212Z" fill="white"/>
<path d="M258.454 154.855V151.49H257.291V151.04H260.144V151.49H258.98V154.855H258.457H258.454Z" fill="white"/>
<path d="M263.258 151.04V151.49H261.407V152.675H263.147V153.125H261.407V154.407H263.296V154.857H260.883V151.042H263.258V151.04Z" fill="white"/>
<path d="M264.791 154.855H264.268V151.04H265.649C265.843 151.04 266.017 151.066 266.168 151.12C266.32 151.173 266.447 151.245 266.55 151.336C266.652 151.427 266.73 151.536 266.786 151.664C266.839 151.791 266.868 151.929 266.868 152.08V152.218C266.868 152.432 266.812 152.624 266.701 152.789C266.59 152.954 266.431 153.079 266.226 153.159L266.982 154.852H266.416L265.727 153.261H264.791V154.852V154.855ZM264.791 152.818H265.522C265.818 152.818 266.03 152.762 266.155 152.651C266.28 152.539 266.342 152.39 266.342 152.203V152.098C266.342 151.911 266.28 151.764 266.157 151.655C266.035 151.545 265.838 151.49 265.576 151.49H264.793V152.818H264.791Z" fill="white"/>
<path d="M274.024 151.04L272.973 154.855H272.449L271.602 151.739L270.74 154.855H270.205L269.162 151.04H269.713L270.495 154.155L271.346 151.04H271.854L272.705 154.155L273.499 151.04H274.022H274.024Z" fill="white"/>
<path d="M277.849 154.855H277.299L276.895 153.734H275.436L275.035 154.855H274.5L275.917 151.04H276.425L277.849 154.855ZM275.596 153.284H276.739L276.423 152.39C276.394 152.312 276.369 152.245 276.35 152.187C276.327 152.129 276.309 152.074 276.291 152.018C276.273 151.964 276.256 151.906 276.236 151.846C276.216 151.786 276.193 151.713 276.169 151.623C276.14 151.713 276.118 151.786 276.1 151.848C276.082 151.911 276.064 151.967 276.046 152.02C276.028 152.074 276.011 152.129 275.991 152.187C275.971 152.245 275.948 152.314 275.919 152.39L275.596 153.284Z" fill="white"/>
<path d="M280.098 153.322V154.855H279.574V153.322L278.262 151.042H278.844L279.844 152.825L280.818 151.042H281.4L280.098 153.322Z" fill="white"/>
<path d="M287.996 125.805H284.84V122.647H281.685V125.805H278.529V128.958H281.685V132.116H284.84V128.958H287.996V125.805Z" fill="white"/>
</g>
</g>
<defs>
<clipPath id="clip0_121_953">
<rect width="160" height="37.4707" fill="white" transform="translate(128 120)"/>
</clipPath>
</defs>
</svg>
