<svg width="416" height="278" viewBox="0 0 416 278" fill="none" xmlns="http://www.w3.org/2000/svg">
<g clip-path="url(#clip0_121_888)">
<path d="M129.991 128.08C130.052 128.141 130.113 128.263 130.113 128.324C130.174 128.567 130.417 128.75 130.478 128.994C130.478 129.115 130.6 129.115 130.661 129.176C130.722 129.237 130.661 129.359 130.783 129.481C130.844 129.542 130.783 129.603 130.783 129.724C130.844 129.785 130.905 129.785 130.966 129.846C131.514 130.699 131.575 131.734 130.905 132.647C130.783 132.769 130.722 132.891 130.661 133.013C130.6 133.074 130.478 133.135 130.478 133.195C130.478 133.317 130.539 133.317 130.6 133.378C130.296 133.439 130.296 133.683 130.052 133.865C129.991 133.865 129.869 133.865 129.808 133.865C129.626 133.987 129.504 134.048 129.321 134.17C129.26 134.231 129.26 134.353 129.321 134.413C129.078 134.596 128.651 134.718 128.286 134.718C128.225 134.718 128.164 134.84 128.103 134.84C127.799 134.84 127.494 134.84 127.19 134.901C127.068 134.84 127.007 134.779 126.885 134.718C126.764 134.718 126.642 134.718 126.52 134.718C126.337 134.596 126.094 134.596 125.911 134.474C125.789 134.413 125.607 134.535 125.485 134.474C125.119 134.17 124.754 133.804 124.51 133.5C124.389 133.317 124.145 133.195 124.084 133.013C124.084 132.891 124.145 132.769 124.023 132.769C123.901 132.708 123.962 132.526 123.962 132.404C123.901 132.282 123.901 132.16 123.78 132.038C123.719 131.917 123.78 131.734 123.719 131.551C123.719 131.49 123.78 131.429 123.78 131.429C123.719 131.186 123.841 130.881 123.78 130.638C123.78 130.516 123.78 130.333 123.841 130.151C123.962 129.846 124.145 129.542 124.389 129.237C124.389 129.176 124.389 129.115 124.389 129.054C124.45 128.994 124.51 128.994 124.571 128.933C124.632 128.689 124.754 128.506 124.876 128.324C125.058 128.08 125.424 127.837 125.667 127.593C125.85 127.471 126.033 127.349 126.155 127.106C126.216 127.045 126.398 127.106 126.459 127.106C126.642 126.984 126.825 126.984 127.007 126.862C127.19 126.74 127.129 126.984 127.312 126.923C127.433 126.923 127.494 126.862 127.555 126.801C127.738 126.74 127.921 126.862 128.103 126.923C128.286 126.923 128.469 126.923 128.651 127.045C128.895 127.228 129.443 127.167 129.565 127.471C129.565 127.654 129.808 127.837 129.991 128.08Z" fill="white"/>
<path d="M139.552 131.612C139.552 131.49 139.552 131.369 139.491 131.247C139.491 131.125 139.612 130.942 139.552 130.76C139.491 130.699 139.43 130.638 139.43 130.577C139.552 130.272 139.552 130.029 139.491 129.663C139.491 129.542 139.43 129.542 139.43 129.481C139.43 129.42 139.43 129.359 139.491 129.237C139.491 128.994 139.43 128.75 139.308 128.506C139.308 128.506 139.186 128.446 139.186 128.263C139.186 128.263 139.125 128.202 139.125 128.141C139.186 127.715 139.004 127.41 138.943 127.045C138.882 126.619 138.455 126.375 138.334 125.888C138.334 125.827 138.455 125.888 138.516 125.888C138.821 126.192 139.186 126.558 139.247 126.984C139.308 127.106 139.308 127.288 139.369 127.349C139.612 127.654 139.673 128.08 139.734 128.506C139.734 128.567 139.795 128.506 139.856 128.567C139.856 128.628 139.856 128.689 139.856 128.75C140.039 128.994 139.917 129.237 139.978 129.481C139.978 129.603 140.039 129.603 140.039 129.663C140.039 129.724 139.917 129.846 139.917 129.846C140.1 130.09 140.161 130.333 140.1 130.638C140.282 130.699 140.221 131.003 140.221 131.186C140.221 131.247 140.282 131.247 140.343 131.247C140.404 131.186 140.465 131.064 140.465 131.003C140.465 130.638 140.526 130.333 140.465 130.029C140.404 129.907 140.404 129.724 140.465 129.603C140.404 129.603 140.404 129.481 140.343 129.42C140.221 128.872 140.161 128.202 139.978 127.593L140.039 127.532C139.978 127.045 139.612 126.558 139.43 126.01C139.43 125.888 139.247 125.827 139.186 125.705V125.644C139.369 125.644 139.552 125.888 139.673 126.01C139.856 126.314 140.1 126.619 140.221 126.984C140.343 127.288 140.526 127.593 140.587 127.897C140.648 128.08 140.77 128.202 140.891 128.385C140.952 128.506 140.891 128.689 140.952 128.811C141.013 129.115 141.135 129.481 141.196 129.785C141.257 130.029 141.318 130.333 141.257 130.516C141.135 130.881 141.379 131.308 141.5 131.673C141.561 131.795 141.5 131.978 141.439 132.099C141.439 132.16 141.5 132.221 141.5 132.221C141.439 132.404 141.5 132.526 141.439 132.708C141.379 132.769 141.5 132.83 141.439 132.952C141.379 133.013 141.379 132.952 141.318 133.013C141.257 133.135 141.318 133.256 141.257 133.439C141.135 133.683 141.196 133.987 140.952 134.17C140.891 134.17 140.83 134.231 140.83 134.292C140.891 134.292 140.891 134.353 140.952 134.413C140.891 134.474 140.891 134.413 140.83 134.474C140.83 134.535 141.013 134.657 141.013 134.718C140.952 135.083 140.709 135.388 140.709 135.814C140.709 135.875 140.648 136.058 140.648 136.119C140.587 136.301 140.404 136.484 140.343 136.667C140.343 136.728 140.161 136.788 140.161 136.849C140.039 136.971 140.039 137.154 139.978 137.337C139.917 137.397 139.795 137.397 139.734 137.458C139.612 137.641 139.612 137.763 139.552 137.946C139.43 138.128 139.308 138.372 139.186 138.554C139.064 138.859 138.821 139.103 138.577 139.346C138.516 139.346 138.455 139.346 138.395 139.407C138.273 139.651 138.151 139.833 137.846 139.955C137.786 139.955 137.725 140.138 137.725 140.199C137.542 140.321 137.42 140.503 137.177 140.625C137.116 140.625 137.055 140.686 136.933 140.503C136.629 141.051 136.263 141.417 135.837 141.782C135.593 141.904 135.411 141.904 135.228 142.026C134.741 142.513 133.949 143 133.888 143.061C133.827 143.061 133.705 143.244 133.705 143.244C133.523 143.244 133.645 143.244 133.523 143.244C133.523 143.244 133.523 143.487 133.34 143.548C132.914 143.609 132.792 144.096 132.792 144.34C132.792 144.462 132.731 144.34 132.67 144.401C132.609 144.462 132.67 144.522 132.609 144.522C132.427 144.644 132.244 144.888 132.122 145.01C132.061 145.071 132.061 145.01 132 145.01C131.939 145.071 131.757 145.314 131.635 145.558C131.452 145.984 131.209 146.349 130.965 146.654C130.904 146.715 131.087 147.019 131.087 147.08C131.026 147.202 130.904 147.263 130.843 147.385C130.782 147.689 130.782 148.115 130.721 148.42C130.6 148.785 130.721 149.029 130.782 149.333C130.843 149.577 130.782 149.942 130.782 150.186C130.782 150.369 130.965 150.612 130.904 150.795C130.904 151.099 130.843 151.038 130.904 151.282C130.904 151.404 130.843 151.587 130.904 151.708C130.904 151.891 130.843 152.013 130.843 152.256C130.782 152.317 130.721 152.378 130.721 152.439C130.721 152.926 130.356 153.353 130.052 153.718C129.869 153.84 129.625 154.083 129.443 154.022C129.321 154.022 128.895 154.266 128.773 154.327C127.981 154.449 127.677 154.449 127.311 154.449C126.946 154.327 126.641 154.266 126.398 153.84C126.215 153.657 125.971 153.718 125.85 153.474C125.85 153.353 125.606 153.292 125.545 153.292C125.362 153.109 125.241 152.865 125.119 152.683C124.997 152.439 125.119 152.256 124.997 152.013C124.875 151.83 124.814 151.769 124.693 151.587C124.51 151.404 124.754 151.099 124.632 150.856C124.571 150.795 124.449 150.673 124.449 150.612C124.388 150.429 124.388 150.125 124.266 149.881C124.205 149.638 124.266 148.663 124.266 148.42C124.266 148.359 124.145 148.298 124.145 148.237C124.145 147.872 124.266 147.506 124.266 147.141C124.327 146.958 124.266 146.776 124.449 146.593C124.449 146.593 124.388 146.532 124.388 146.471C124.51 146.167 124.51 145.984 124.571 145.679C124.571 145.619 124.693 145.619 124.693 145.558C124.632 145.314 124.632 144.888 124.693 144.705C124.693 144.583 124.997 144.462 125.058 144.34C125.058 144.279 124.997 144.157 125.119 143.974C125.119 143.913 125.241 143.974 125.241 143.913C125.241 143.853 125.241 143.792 125.241 143.731C125.241 143.609 125.545 143.487 125.545 143.365C125.667 143 125.85 142.878 125.971 142.574C126.032 142.452 126.093 142.33 126.154 142.208C126.215 142.147 126.215 142.208 126.215 142.147C126.215 142.087 126.215 142.026 126.215 141.965C126.337 141.843 126.459 141.721 126.459 141.599C126.52 141.417 126.58 141.295 126.702 141.173C126.885 141.051 127.068 140.869 127.189 140.686C127.311 140.564 127.433 140.625 127.494 140.503C127.616 140.381 127.677 140.138 127.798 139.955C128.042 139.651 128.346 139.468 128.59 139.224C128.834 139.042 129.138 138.981 129.321 138.859C129.564 138.676 129.686 138.372 129.93 138.25C130.052 138.128 130.234 138.128 130.356 138.006C130.478 137.885 130.6 137.702 130.843 137.641C131.33 137.519 130.965 137.641 131.391 137.458C131.635 137.276 131.574 137.276 131.818 137.093C132.244 136.849 132.487 136.667 132.548 136.667C132.609 136.606 132.67 136.606 132.67 136.484C132.792 136.301 133.34 135.936 133.462 135.875C133.523 135.875 133.645 135.936 133.766 135.875C133.827 135.814 133.705 135.753 133.766 135.631C133.888 135.51 134.071 135.266 134.193 135.205C134.254 135.144 134.375 135.266 134.436 135.205C134.497 135.144 134.497 135.083 134.558 135.022C134.619 134.962 134.497 134.84 134.558 134.779C134.619 134.657 134.68 134.535 134.741 134.535C134.862 134.474 135.045 134.353 135.045 134.292C135.045 134.109 135.167 133.926 135.35 133.865C135.35 133.804 135.35 133.744 135.35 133.744C135.471 133.622 135.532 133.561 135.654 133.439C135.776 133.256 135.715 133.074 135.776 132.952C135.959 132.708 136.202 132.526 136.263 132.221C136.263 132.099 136.141 131.856 136.202 131.734C136.263 131.673 136.446 131.612 136.446 131.49C136.507 131.308 136.385 131.125 136.385 130.942C136.385 130.821 136.568 130.699 136.507 130.577C136.507 130.212 136.507 129.846 136.446 129.481C136.568 129.481 136.568 129.359 136.629 129.298C136.568 128.994 136.446 128.75 136.385 128.446C136.385 128.263 136.507 128.141 136.507 127.958C136.507 127.837 136.385 127.654 136.202 127.532C136.08 127.349 136.141 127.106 136.08 126.923C136.02 126.679 135.898 126.497 135.837 126.253C135.837 126.131 135.654 126.131 135.593 125.949C135.532 125.766 135.471 125.583 135.471 125.34C135.471 125.218 135.35 125.279 135.228 125.218C135.045 124.974 135.106 124.426 134.802 124.304C134.923 124.183 134.802 124.122 134.741 124C134.923 124 135.167 124.061 135.289 124.365C135.35 124.426 135.471 124.426 135.471 124.426C135.532 124.548 135.532 124.792 135.654 124.853C135.776 124.974 136.02 124.913 136.08 125.096C136.141 125.34 136.324 125.462 136.446 125.644C136.446 125.705 136.446 125.766 136.507 125.827C136.629 125.949 136.689 126.071 136.75 126.192C136.994 126.497 137.237 126.74 137.116 127.106C137.055 127.288 137.237 127.228 137.298 127.349C137.481 127.654 137.359 128.019 137.603 128.263C137.542 128.689 137.786 129.115 137.907 129.542C137.664 129.907 137.786 130.516 137.968 130.881C137.968 130.881 138.09 130.881 138.09 130.821C138.151 130.577 138.516 130.516 138.455 130.394C138.395 130.151 138.273 129.663 138.273 129.42C138.273 129.054 138.334 128.75 138.273 128.385C138.212 128.324 138.212 128.263 138.151 128.202C138.09 128.019 138.029 127.837 138.09 127.593C138.09 127.471 137.968 127.41 137.968 127.349C137.968 127.288 137.968 127.228 138.029 127.167C138.09 127.167 138.212 127.228 138.334 127.228C138.395 127.288 138.334 127.41 138.395 127.471C138.516 127.654 138.699 127.776 138.76 128.019C138.76 128.08 138.76 128.141 138.76 128.202C138.821 128.506 138.943 128.689 139.004 128.933C139.004 129.054 138.882 129.298 138.943 129.42C139.125 129.785 139.125 130.212 139.125 130.577C139.064 130.76 139.308 130.881 139.247 131.003C139.186 131.125 139.247 131.125 139.186 131.247C139.186 131.308 139.064 131.308 139.064 131.369C139.186 131.612 139.004 131.978 138.943 132.221C138.943 132.282 139.064 132.343 139.125 132.16C139.125 132.038 139.308 132.038 139.369 132.038C139.43 131.978 139.552 131.795 139.552 131.612ZM140.404 132.526C140.404 132.282 140.526 132.16 140.465 131.917C140.404 131.673 140.221 131.917 140.1 131.917C140.161 132.221 140.039 132.404 139.978 132.647C139.917 132.708 139.856 132.952 140.039 132.952C140.161 132.952 140.404 132.769 140.404 132.526ZM140.039 133.683C140.1 133.622 140.039 133.5 139.978 133.439C139.856 133.378 139.734 133.5 139.673 133.622C139.612 133.744 139.673 133.926 139.856 133.926C139.917 133.926 140.039 133.804 140.039 133.683Z" fill="white"/>
<path d="M137.724 126.253C137.907 126.436 138.029 126.68 138.211 126.923V126.984C137.907 127.228 137.663 126.802 137.602 126.558C137.481 126.314 137.359 126.071 137.176 125.888C137.176 125.827 137.176 125.827 137.176 125.766C137.054 125.644 136.933 125.462 137.054 125.401C137.115 125.34 137.176 125.462 137.298 125.523C137.42 125.766 137.481 126.071 137.724 126.253Z" fill="white"/>
<path d="M138.943 125.157C138.943 125.218 138.882 125.279 138.882 125.34C138.76 125.218 138.577 125.096 138.456 124.853C138.395 124.853 138.334 124.792 138.334 124.792C138.273 124.792 138.334 124.731 138.334 124.67C138.456 124.67 138.577 124.792 138.699 124.853C138.76 124.853 138.821 124.853 138.821 124.853C138.882 124.914 138.943 124.974 138.943 125.157Z" fill="white"/>
<path d="M120.856 133.196C120.917 133.257 120.978 133.257 120.978 133.317C121.038 133.378 121.099 133.378 121.16 133.317C121.221 133.317 121.282 133.5 121.343 133.5C121.465 133.561 121.526 133.683 121.587 133.805C121.647 133.866 121.708 133.926 121.769 133.926C121.891 134.048 121.891 134.17 122.013 134.231C122.074 134.292 122.196 134.292 122.256 134.292C122.378 134.353 122.439 134.535 122.561 134.657C122.622 134.657 122.683 134.779 122.683 134.84C122.744 134.901 122.804 134.962 122.926 135.023C122.926 135.084 122.926 135.144 122.987 135.144C123.231 135.51 123.535 135.753 123.718 136.18C123.718 136.18 123.718 136.241 123.718 136.301C123.962 136.545 124.083 136.91 124.266 137.154C124.327 137.276 124.388 137.459 124.449 137.58C124.51 137.641 124.571 137.702 124.631 137.763C124.753 137.946 124.814 138.128 124.814 138.311C124.814 138.372 124.753 138.616 124.631 138.494C124.449 138.311 124.51 138.128 124.327 138.007C124.327 137.946 124.266 137.885 124.266 137.824C124.205 137.763 124.083 137.763 124.083 137.641C124.083 137.519 123.962 137.459 123.901 137.337C123.718 137.093 123.535 137.032 123.292 136.789C123.231 136.789 123.231 136.789 123.17 136.789C123.109 136.85 123.048 136.971 123.109 137.093C123.231 137.154 123.292 137.337 123.474 137.398C123.596 137.459 123.596 137.702 123.657 137.885C123.718 137.946 123.779 138.067 123.901 138.067C124.022 138.128 123.962 138.25 124.022 138.372C124.022 138.433 123.962 138.433 123.962 138.494C124.022 138.616 124.144 138.616 124.266 138.676C124.327 138.616 124.449 138.676 124.51 138.798C124.388 138.92 124.449 138.981 124.388 139.103C124.266 139.285 124.51 139.468 124.692 139.529C124.814 139.529 124.753 139.712 124.875 139.773C124.936 139.894 125.119 139.894 125.179 140.077C125.179 140.138 125.119 140.199 125.119 140.26C125.119 140.382 125.24 140.442 125.301 140.442C125.362 140.503 125.423 140.564 125.423 140.625C125.301 140.625 125.119 140.503 124.997 140.503C124.936 140.503 124.814 140.321 124.692 140.321C124.631 140.321 124.631 140.442 124.571 140.382C124.51 140.382 124.449 140.382 124.388 140.321C124.327 140.321 124.144 140.138 124.083 140.138C124.022 140.138 123.901 140.26 123.84 140.26C123.535 140.199 123.535 140.199 123.413 140.138C123.292 140.077 123.17 140.016 123.109 139.955C123.048 139.894 123.048 139.834 122.987 139.773C122.926 139.712 122.804 139.712 122.744 139.712C122.5 139.59 122.256 139.225 122.074 139.103C121.952 139.042 121.83 138.981 121.647 138.92C121.587 138.859 121.526 138.798 121.404 138.737C121.099 138.616 120.917 138.433 120.551 138.372C119.942 138.189 119.455 138.555 118.907 138.798C118.907 138.798 118.846 138.798 118.785 138.798C118.663 138.92 118.542 138.92 118.42 139.042C118.481 139.225 118.237 139.285 118.115 139.407C118.054 139.407 118.054 139.529 117.994 139.59C117.933 139.651 117.75 139.651 117.689 139.712C117.628 139.773 117.628 139.834 117.567 139.894C117.446 140.016 117.263 140.077 117.08 140.199C116.958 140.26 116.045 140.382 115.923 140.382C115.679 140.382 115.497 140.564 115.192 140.564C114.644 140.564 114.096 140.564 113.67 140.199C113.548 140.138 113.548 139.894 113.487 139.834C113.304 139.712 113.304 139.468 113.244 139.285C113.122 139.225 113 139.225 113 139.103C113.061 138.555 113.365 138.067 113.67 137.702C113.731 137.58 113.913 137.519 113.913 137.337C113.913 137.337 114.218 136.91 114.401 136.728C114.462 136.667 114.401 136.545 114.401 136.484C114.705 135.936 115.192 135.571 115.558 135.084C115.679 134.962 115.74 134.84 115.923 134.84C115.984 134.84 116.045 134.84 116.106 134.779C116.167 134.596 116.349 134.475 116.41 134.414C116.776 134.17 117.141 133.744 117.567 133.683C117.628 133.683 117.689 133.561 117.75 133.561C117.811 133.5 117.933 133.561 117.994 133.561C118.298 133.439 118.603 133.074 118.968 133.074C119.029 133.074 119.09 132.952 119.09 132.952C119.394 132.952 119.76 132.709 120.003 133.013C120.369 132.952 120.734 133.013 120.856 133.196ZM123.17 136.362C123.17 136.301 123.17 136.301 123.17 136.241C123.048 136.18 122.987 135.936 122.804 135.875C122.744 135.875 122.683 135.936 122.683 135.936C122.683 136.18 122.744 136.301 122.865 136.484C122.926 136.362 122.987 136.362 123.048 136.484C123.109 136.484 123.17 136.423 123.17 136.362Z" fill="white"/>
<path d="M152.4 136.788L156.541 141.295L155.201 142.452L151.669 138.554C150.938 140.016 149.842 141.356 148.381 142.574L147.041 141.417C149.477 139.285 150.817 136.788 151.06 133.926V132.404H152.948V133.378C152.887 134.596 152.704 135.692 152.4 136.788ZM160.317 146.897H158.429V137.641H154.775V135.997H158.429V130.699H160.317V146.897Z" fill="white"/>
<path d="M168.72 140.808V139.407H162.021V137.763H177.307V139.407H170.608V140.808H173.957V144.888H167.259V145.862H174.384V147.507H165.371V143.366H172.07V142.452H165.31V140.869H168.72V140.808ZM165.432 134.048C165.432 133.135 165.858 132.343 166.65 131.673C167.441 131.064 168.477 130.76 169.695 130.76C170.913 130.76 171.948 131.064 172.739 131.673C173.592 132.282 173.957 133.074 173.957 134.048C173.957 134.962 173.531 135.753 172.739 136.423C171.887 137.032 170.913 137.337 169.695 137.337C168.477 137.337 167.441 137.032 166.65 136.423C165.858 135.753 165.432 134.962 165.432 134.048ZM167.38 134.048C167.38 134.535 167.563 134.901 167.989 135.205C168.416 135.51 168.964 135.692 169.695 135.692C170.425 135.692 170.973 135.571 171.4 135.205C171.826 134.901 172.07 134.535 172.07 134.048C172.07 133.561 171.826 133.196 171.4 132.891C170.973 132.587 170.364 132.404 169.695 132.404C169.025 132.404 168.416 132.526 167.989 132.891C167.563 133.196 167.38 133.561 167.38 134.048Z" fill="white"/>
<path d="M181.144 134.414C181.144 133.439 181.51 132.648 182.301 131.978C183.093 131.308 184.128 130.942 185.407 130.942C186.686 130.942 187.721 131.308 188.513 131.978C189.305 132.648 189.731 133.439 189.731 134.414C189.731 135.205 189.487 135.875 188.939 136.423V138.92H193.08V140.564H177.795V138.92H181.936V136.423C181.388 135.814 181.144 135.144 181.144 134.414ZM181.144 144.34C181.144 143.365 181.571 142.574 182.362 141.904C183.154 141.295 184.189 140.99 185.407 140.99C186.625 140.99 187.66 141.295 188.513 141.904C189.305 142.513 189.731 143.365 189.731 144.34C189.731 145.314 189.305 146.106 188.513 146.776C187.721 147.385 186.686 147.689 185.407 147.689C184.128 147.689 183.154 147.385 182.362 146.776C181.571 146.167 181.144 145.314 181.144 144.34ZM183.093 134.414C183.093 134.901 183.276 135.327 183.702 135.692C184.128 136.058 184.676 136.24 185.407 136.24C186.138 136.24 186.747 136.058 187.112 135.692C187.539 135.327 187.721 134.901 187.721 134.414C187.721 133.926 187.539 133.5 187.112 133.135C186.686 132.769 186.138 132.587 185.407 132.587C184.676 132.587 184.128 132.769 183.702 133.135C183.276 133.439 183.093 133.865 183.093 134.414ZM183.093 144.34C183.093 144.827 183.276 145.253 183.702 145.558C184.128 145.862 184.676 146.045 185.407 146.045C186.138 146.045 186.747 145.862 187.112 145.558C187.539 145.253 187.721 144.827 187.721 144.34C187.721 143.853 187.539 143.426 187.112 143.122C186.686 142.817 186.138 142.635 185.407 142.635C184.676 142.635 184.128 142.817 183.702 143.122C183.276 143.426 183.093 143.853 183.093 144.34ZM186.99 137.641C186.503 137.763 185.955 137.824 185.407 137.824C184.798 137.824 184.311 137.763 183.824 137.641V138.92H187.051V137.641H186.99Z" fill="white"/>
<path d="M198.865 135.571L202.762 139.407L201.423 140.564L198.073 137.215C197.342 138.494 196.246 139.712 194.846 140.808L193.506 139.651C195.942 137.58 197.221 135.388 197.342 133.074V131.795H199.23V132.769C199.352 133.744 199.169 134.657 198.865 135.571ZM206.294 147.324H197.342V141.538H199.23V145.679H206.294V147.324ZM208.791 136.788H206.112V142.696H204.224V130.699H206.112V135.022H208.791V136.788Z" fill="white"/>
<path d="M214.638 136.788L218.84 141.112L217.5 142.269L213.968 138.554C213.237 140.016 212.08 141.356 210.68 142.635L209.34 141.478C211.776 139.346 213.115 136.849 213.359 133.987V132.465H215.247V133.439C215.125 134.596 214.942 135.692 214.638 136.788ZM222.311 146.897H220.423V130.699H222.311V146.897Z" fill="white"/>
<path d="M231.325 132.83C231.02 134.535 230.472 136.119 229.68 137.641L232.603 141.234L231.203 142.208L228.706 139.163C227.853 140.321 226.757 141.417 225.478 142.452L224.139 141.295C226.757 139.224 228.401 136.971 229.01 134.474H224.869V132.83H231.325ZM231.02 136.24H233.273V131.064H235.1V145.801H233.273V137.885H231.02V136.24ZM238.267 146.897H236.44V130.699H238.267V146.897Z" fill="white"/>
<path d="M246.669 141.66V140.138H239.971V138.494H255.256V140.138H248.557V141.66H251.907V147.385H243.32V141.66H246.669ZM252.637 137.763H242.65V136.119H244.477V135.571C244.477 135.083 244.477 134.779 244.416 134.535C244.355 134.292 244.234 134.048 244.112 133.744L245.817 133.196C246.06 133.561 246.243 133.926 246.304 134.292C246.365 134.657 246.426 135.083 246.426 135.51V136.119H248.923V133.013H242.833V131.369H252.576V133.013H250.871V136.119H252.759V137.763H252.637ZM250.08 145.801V143.305H245.269V145.801H250.08Z" fill="white"/>
<path d="M262.991 132.83C262.686 134.535 262.138 136.119 261.346 137.641L264.269 141.234L262.869 142.208L260.372 139.163C259.519 140.321 258.423 141.417 257.144 142.452L255.805 141.295C258.423 139.224 260.068 136.971 260.676 134.474H256.535V132.83H262.991ZM262.625 136.24H264.878V131.064H266.705V145.801H264.878V137.885H262.625V136.24ZM269.933 146.897H268.106V130.699H269.933V146.897Z" fill="white"/>
<path d="M278.275 135.936L281.564 138.859L280.285 140.138L277.179 137.276C276.144 138.433 274.743 139.529 273.099 140.503L271.881 139.285C274.865 137.397 276.753 135.51 277.605 133.561H272.855V131.917H279.858C279.676 133.317 279.128 134.657 278.275 135.936ZM284.182 147.689H282.294V142.939H275.169V141.295H284.243V147.689H284.182ZM287.044 136.606H284.365V140.808H282.477V130.699H284.365V134.84H287.044V136.606Z" fill="white"/>
<path d="M302.756 144.949H287.471V143.305H294.169V139.651H296.118V143.305H302.817V144.949H302.756ZM295.935 135.023L301.173 139.468L299.955 140.808L295.083 136.667C294.109 138.189 292.525 139.59 290.272 140.93L289.054 139.59C292.464 137.519 294.169 135.266 294.291 132.83V132.039H296.24V132.83C296.301 133.622 296.179 134.353 295.935 135.023Z" fill="white"/>
</g>
<defs>
<clipPath id="clip0_121_888">
<rect width="190" height="30.4487" fill="white" transform="translate(113 124)"/>
</clipPath>
</defs>
</svg>
