<svg width="416" height="278" viewBox="0 0 416 278" fill="none" xmlns="http://www.w3.org/2000/svg">
<g clip-path="url(#clip0_121_694)">
<path d="M141.814 159.154L140.939 156.901H137.008L136.133 159.154H135.369L138.546 150.818H139.401L142.558 159.154H141.804H141.814ZM138.979 151.713L137.28 156.188H140.678L138.979 151.713Z" fill="white"/>
<path d="M149.276 159.154L147.104 155.645H144.771V159.154H144.037V150.818H147.245C147.989 150.818 148.592 151.04 149.064 151.492C149.537 151.944 149.768 152.518 149.768 153.211C149.768 153.815 149.587 154.327 149.215 154.74C148.843 155.152 148.431 155.433 147.958 155.554L150.181 159.144H149.276V159.154ZM148.411 154.529C148.783 154.257 148.974 153.825 148.974 153.242C148.974 152.658 148.793 152.206 148.441 151.944C148.079 151.683 147.687 151.552 147.255 151.552H144.781V154.941H147.214C147.647 154.941 148.039 154.8 148.411 154.529Z" fill="white"/>
<path d="M152.241 151.854C152.854 151.04 153.689 150.638 154.735 150.638C155.72 150.638 156.474 150.949 156.987 151.573C157.5 152.196 157.811 152.759 157.922 153.262H157.108C156.987 152.85 156.736 152.427 156.364 152.015C155.992 151.603 155.439 151.392 154.715 151.392C153.92 151.392 153.287 151.734 152.814 152.397C152.342 153.071 152.1 153.946 152.1 155.011C152.1 156.077 152.342 156.962 152.814 157.646C153.287 158.319 153.93 158.661 154.725 158.661C155.439 158.661 155.992 158.44 156.364 158.008C156.746 157.565 156.987 157.123 157.098 156.681H157.912C157.791 157.244 157.48 157.837 156.977 158.46C156.474 159.084 155.73 159.395 154.735 159.395C153.679 159.395 152.854 158.993 152.241 158.179C151.628 157.364 151.326 156.309 151.326 155.022C151.326 153.735 151.628 152.689 152.241 151.874V151.854Z" fill="white"/>
<path d="M164.902 159.154V155.132H160.568V159.154H159.834V150.818H160.568V154.408H164.902V150.818H165.636V159.154H164.902Z" fill="white"/>
<path d="M167.867 159.154V150.818H168.601V159.154H167.867Z" fill="white"/>
<path d="M173.498 151.542V159.194H172.754V151.542H170.16V150.818H176.123V151.542H173.498Z" fill="white"/>
<path d="M177.689 159.154V150.818H182.978V151.542H178.423V154.478H182.787V155.192H178.423V158.45H183.069V159.164H177.689V159.154Z" fill="white"/>
<path d="M185.452 151.854C186.065 151.04 186.9 150.638 187.946 150.638C188.991 150.638 189.685 150.949 190.198 151.573C190.711 152.196 191.022 152.759 191.133 153.262H190.329C190.208 152.85 189.957 152.427 189.585 152.015C189.202 151.603 188.66 151.392 187.936 151.392C187.141 151.392 186.518 151.734 186.035 152.397C185.563 153.071 185.331 153.946 185.331 155.011C185.331 156.077 185.563 156.962 186.035 157.646C186.508 158.319 187.141 158.661 187.946 158.661C188.66 158.661 189.202 158.44 189.585 158.008C189.967 157.565 190.208 157.123 190.319 156.681H191.133C191.012 157.244 190.701 157.837 190.198 158.46C189.695 159.084 188.951 159.395 187.956 159.395C186.9 159.395 186.075 158.993 185.462 158.179C184.849 157.364 184.537 156.309 184.537 155.022C184.537 153.735 184.839 152.689 185.462 151.874V151.854H185.452Z" fill="white"/>
<path d="M195.246 151.542V159.194H194.502V151.542H191.908V150.818H197.871V151.542H195.246Z" fill="white"/>
<path d="M204.286 155.816C204.537 156.208 204.638 156.65 204.577 157.133C204.507 157.756 204.235 158.289 203.753 158.752C203.27 159.214 202.576 159.445 201.682 159.445C200.686 159.445 199.942 159.134 199.439 158.52C198.937 157.907 198.695 157.213 198.705 156.439H199.48C199.48 157.213 199.691 157.776 200.133 158.148C200.555 158.52 201.088 158.711 201.702 158.711C202.255 158.711 202.727 158.571 203.119 158.279C203.501 157.997 203.723 157.615 203.793 157.153C203.853 156.781 203.793 156.469 203.602 156.208C203.411 155.956 203.15 155.755 202.838 155.594C202.506 155.434 202.134 155.323 201.722 155.263C201.31 155.202 200.917 155.102 200.535 154.961C200.043 154.77 199.651 154.498 199.369 154.167C199.098 153.835 198.967 153.392 198.987 152.829C199.007 152.286 199.238 151.774 199.671 151.271C200.103 150.768 200.767 150.527 201.651 150.527C202.687 150.527 203.401 150.859 203.793 151.522C204.195 152.186 204.386 152.739 204.366 153.191H203.582C203.592 152.669 203.421 152.216 203.079 151.834C202.727 151.452 202.255 151.261 201.651 151.261C201.088 151.261 200.636 151.422 200.304 151.723C199.972 152.035 199.801 152.397 199.791 152.829C199.771 153.262 199.892 153.583 200.133 153.795C200.374 153.996 200.626 154.157 200.897 154.247C201.149 154.348 201.501 154.428 201.943 154.498C202.385 154.569 202.818 154.7 203.25 154.901C203.692 155.102 204.034 155.393 204.296 155.785V155.816H204.286Z" fill="white"/>
<path d="M216.692 159.294L215.958 158.329C215.606 158.721 215.214 159.013 214.781 159.214C214.359 159.415 213.927 159.516 213.494 159.516C212.881 159.516 212.338 159.304 211.845 158.872C211.353 158.45 211.111 157.847 211.121 157.072C211.121 156.449 211.333 155.936 211.725 155.534C212.117 155.132 212.549 154.79 213.002 154.508C212.841 154.297 212.65 154.016 212.429 153.674C212.207 153.332 212.087 152.98 212.046 152.608C211.996 152.005 212.147 151.502 212.519 151.1C212.891 150.698 213.384 150.497 213.997 150.497C214.61 150.497 215.063 150.698 215.435 151.1C215.807 151.502 215.968 151.985 215.917 152.548C215.857 153.161 215.616 153.634 215.173 153.955C214.741 154.277 214.379 154.529 214.077 154.709C214.218 154.88 214.55 155.303 215.073 155.976C215.596 156.65 215.887 157.012 215.917 157.062C216.078 156.781 216.199 156.459 216.289 156.107C216.38 155.755 216.43 155.433 216.44 155.132H217.174C217.134 155.564 217.034 156.017 216.903 156.489C216.772 156.962 216.601 157.364 216.4 157.696L217.607 159.264H216.672L216.692 159.294ZM214.6 158.5C214.972 158.309 215.274 158.058 215.525 157.756C215.505 157.726 215.183 157.314 214.57 156.519C213.957 155.725 213.585 155.252 213.454 155.082C213.092 155.293 212.74 155.554 212.378 155.856C212.026 156.157 211.835 156.56 211.825 157.082C211.815 157.545 211.976 157.947 212.308 158.269C212.64 158.591 213.042 158.762 213.514 158.772C213.876 158.772 214.248 158.691 214.61 158.5H214.6ZM214.63 153.553C214.942 153.312 215.133 153 215.194 152.598C215.254 152.236 215.173 151.914 214.942 151.633C214.711 151.351 214.409 151.21 214.017 151.21C213.585 151.21 213.263 151.351 213.052 151.623C212.841 151.894 212.75 152.196 212.78 152.528C212.811 152.809 212.921 153.091 213.122 153.392C213.313 153.694 213.494 153.945 213.655 154.146C213.987 153.975 214.319 153.774 214.63 153.543V153.553Z" fill="white"/>
<path d="M224.535 159.154V150.818H229.824V151.542H225.269V154.478H229.643V155.192H225.269V158.45H229.914V159.164H224.535V159.154Z" fill="white"/>
<path d="M236.68 159.154L232.437 151.995V159.154H231.703V150.818H232.578L236.841 157.967V150.818H237.575V159.154H236.68Z" fill="white"/>
<path d="M245.439 159.174V157.867C245.207 158.299 244.876 158.671 244.423 158.963C243.981 159.254 243.468 159.405 242.905 159.405C241.849 159.405 241.015 159.003 240.401 158.178C239.788 157.364 239.486 156.308 239.486 155.011C239.486 153.714 239.798 152.679 240.411 151.864C241.025 151.05 241.849 150.647 242.905 150.647C243.9 150.647 244.664 150.959 245.167 151.593C245.68 152.216 245.992 152.779 246.102 153.272H245.298C245.167 152.849 244.916 152.437 244.534 152.015C244.152 151.603 243.609 151.392 242.905 151.392C242.101 151.392 241.467 151.733 240.995 152.407C240.522 153.081 240.291 153.955 240.291 155.021C240.291 156.087 240.522 156.962 240.995 157.646C241.467 158.319 242.101 158.661 242.895 158.661C243.689 158.661 244.303 158.38 244.755 157.816C245.197 157.253 245.429 156.65 245.439 156.017V155.675H243.005V154.971H246.183V159.184H245.439V159.174Z" fill="white"/>
<path d="M248.283 159.154V150.818H249.017V159.154H248.283Z" fill="white"/>
<path d="M256.237 159.154L251.994 151.995V159.154H251.26V150.818H252.145L256.398 157.967V150.818H257.132V159.154H256.237Z" fill="white"/>
<path d="M259.365 159.154V150.818H264.654V151.542H260.099V154.478H264.473V155.192H260.099V158.45H264.744V159.164H259.365V159.154Z" fill="white"/>
<path d="M266.523 159.154V150.818H271.812V151.542H267.257V154.478H271.621V155.192H267.257V158.45H271.903V159.164H266.523V159.154Z" fill="white"/>
<path d="M278.93 159.154L276.758 155.645H274.425V159.154H273.691V150.818H276.899C277.643 150.818 278.246 151.04 278.719 151.492C279.181 151.944 279.423 152.518 279.423 153.211C279.423 153.815 279.232 154.327 278.87 154.74C278.498 155.152 278.085 155.433 277.613 155.554L279.825 159.144H278.93V159.154ZM278.065 154.529C278.437 154.257 278.628 153.825 278.628 153.242C278.628 152.658 278.447 152.206 278.085 151.944C277.723 151.683 277.331 151.552 276.909 151.552H274.435V154.941H276.869C277.301 154.941 277.693 154.8 278.075 154.529H278.065Z" fill="white"/>
<path d="M286.41 155.816C286.662 156.208 286.762 156.65 286.712 157.133C286.642 157.756 286.37 158.289 285.878 158.752C285.395 159.214 284.711 159.445 283.816 159.445C282.821 159.445 282.077 159.134 281.574 158.52C281.071 157.907 280.83 157.213 280.83 156.439H281.614C281.614 157.213 281.825 157.776 282.258 158.148C282.69 158.52 283.213 158.711 283.836 158.711C284.399 158.711 284.862 158.571 285.244 158.279C285.626 157.997 285.857 157.615 285.918 157.153C285.978 156.781 285.918 156.469 285.717 156.208C285.526 155.956 285.274 155.755 284.952 155.594C284.621 155.434 284.239 155.323 283.836 155.263C283.424 155.202 283.032 155.102 282.65 154.961C282.157 154.77 281.765 154.498 281.484 154.167C281.212 153.835 281.081 153.392 281.102 152.829C281.122 152.286 281.353 151.774 281.785 151.271C282.218 150.768 282.881 150.527 283.766 150.527C284.802 150.527 285.516 150.859 285.918 151.522C286.31 152.186 286.501 152.739 286.491 153.191H285.707C285.707 152.669 285.546 152.216 285.204 151.834C284.852 151.452 284.379 151.261 283.776 151.261C283.173 151.261 282.761 151.422 282.429 151.723C282.097 152.035 281.926 152.397 281.916 152.829C281.916 153.262 282.017 153.583 282.258 153.795C282.499 153.996 282.751 154.157 283.022 154.247C283.283 154.348 283.635 154.428 284.068 154.498C284.51 154.569 284.942 154.7 285.375 154.901C285.817 155.102 286.159 155.393 286.42 155.785V155.816H286.41Z" fill="white"/>
<path d="M141.814 159.154L140.939 156.901H137.008L136.133 159.154H135.369L138.546 150.818H139.401L142.558 159.154H141.804H141.814ZM138.979 151.713L137.28 156.188H140.678L138.979 151.713Z" fill="white"/>
<path d="M149.276 159.154L147.104 155.645H144.771V159.154H144.037V150.818H147.245C147.989 150.818 148.592 151.04 149.064 151.492C149.537 151.944 149.768 152.518 149.768 153.211C149.768 153.815 149.587 154.327 149.215 154.74C148.843 155.152 148.431 155.433 147.958 155.554L150.181 159.144H149.276V159.154ZM148.411 154.529C148.783 154.257 148.974 153.825 148.974 153.242C148.974 152.658 148.793 152.206 148.441 151.944C148.079 151.683 147.687 151.552 147.255 151.552H144.781V154.941H147.214C147.647 154.941 148.039 154.8 148.411 154.529Z" fill="white"/>
<path d="M152.241 151.854C152.854 151.04 153.689 150.638 154.735 150.638C155.72 150.638 156.474 150.949 156.987 151.573C157.5 152.196 157.811 152.759 157.922 153.262H157.108C156.987 152.85 156.736 152.427 156.364 152.015C155.992 151.603 155.439 151.392 154.715 151.392C153.92 151.392 153.287 151.734 152.814 152.397C152.342 153.071 152.1 153.946 152.1 155.011C152.1 156.077 152.342 156.962 152.814 157.646C153.287 158.319 153.93 158.661 154.725 158.661C155.439 158.661 155.992 158.44 156.364 158.008C156.746 157.565 156.987 157.123 157.098 156.681H157.912C157.791 157.244 157.48 157.837 156.977 158.46C156.474 159.084 155.73 159.395 154.735 159.395C153.679 159.395 152.854 158.993 152.241 158.179C151.628 157.364 151.326 156.309 151.326 155.022C151.326 153.735 151.628 152.689 152.241 151.874V151.854Z" fill="white"/>
<path d="M164.902 159.154V155.132H160.568V159.154H159.834V150.818H160.568V154.408H164.902V150.818H165.636V159.154H164.902Z" fill="white"/>
<path d="M167.867 159.154V150.818H168.601V159.154H167.867Z" fill="white"/>
<path d="M173.498 151.542V159.194H172.754V151.542H170.16V150.818H176.123V151.542H173.498Z" fill="white"/>
<path d="M177.689 159.154V150.818H182.978V151.542H178.423V154.478H182.787V155.192H178.423V158.45H183.069V159.164H177.689V159.154Z" fill="white"/>
<path d="M185.452 151.854C186.065 151.04 186.9 150.638 187.946 150.638C188.991 150.638 189.685 150.949 190.198 151.573C190.711 152.196 191.022 152.759 191.133 153.262H190.329C190.208 152.85 189.957 152.427 189.585 152.015C189.202 151.603 188.66 151.392 187.936 151.392C187.141 151.392 186.518 151.734 186.035 152.397C185.563 153.071 185.331 153.946 185.331 155.011C185.331 156.077 185.563 156.962 186.035 157.646C186.508 158.319 187.141 158.661 187.946 158.661C188.66 158.661 189.202 158.44 189.585 158.008C189.967 157.565 190.208 157.123 190.319 156.681H191.133C191.012 157.244 190.701 157.837 190.198 158.46C189.695 159.084 188.951 159.395 187.956 159.395C186.9 159.395 186.075 158.993 185.462 158.179C184.849 157.364 184.537 156.309 184.537 155.022C184.537 153.735 184.839 152.689 185.462 151.874V151.854H185.452Z" fill="white"/>
<path d="M195.246 151.542V159.194H194.502V151.542H191.908V150.818H197.871V151.542H195.246Z" fill="white"/>
<path d="M204.286 155.816C204.537 156.208 204.638 156.65 204.577 157.133C204.507 157.756 204.235 158.289 203.753 158.752C203.27 159.214 202.576 159.445 201.682 159.445C200.686 159.445 199.942 159.134 199.439 158.52C198.937 157.907 198.695 157.213 198.705 156.439H199.48C199.48 157.213 199.691 157.776 200.133 158.148C200.555 158.52 201.088 158.711 201.702 158.711C202.255 158.711 202.727 158.571 203.119 158.279C203.501 157.997 203.723 157.615 203.793 157.153C203.853 156.781 203.793 156.469 203.602 156.208C203.411 155.956 203.15 155.755 202.838 155.594C202.506 155.434 202.134 155.323 201.722 155.263C201.31 155.202 200.917 155.102 200.535 154.961C200.043 154.77 199.651 154.498 199.369 154.167C199.098 153.835 198.967 153.392 198.987 152.829C199.007 152.286 199.238 151.774 199.671 151.271C200.103 150.768 200.767 150.527 201.651 150.527C202.687 150.527 203.401 150.859 203.793 151.522C204.195 152.186 204.386 152.739 204.366 153.191H203.582C203.592 152.669 203.421 152.216 203.079 151.834C202.727 151.452 202.255 151.261 201.651 151.261C201.088 151.261 200.636 151.422 200.304 151.723C199.972 152.035 199.801 152.397 199.791 152.829C199.771 153.262 199.892 153.583 200.133 153.795C200.374 153.996 200.626 154.157 200.897 154.247C201.149 154.348 201.501 154.428 201.943 154.498C202.385 154.569 202.818 154.7 203.25 154.901C203.692 155.102 204.034 155.393 204.296 155.785V155.816H204.286Z" fill="white"/>
<path d="M216.692 159.294L215.958 158.329C215.606 158.721 215.214 159.013 214.781 159.214C214.359 159.415 213.927 159.516 213.494 159.516C212.881 159.516 212.338 159.304 211.845 158.872C211.353 158.45 211.111 157.847 211.121 157.072C211.121 156.449 211.333 155.936 211.725 155.534C212.117 155.132 212.549 154.79 213.002 154.508C212.841 154.297 212.65 154.016 212.429 153.674C212.207 153.332 212.087 152.98 212.046 152.608C211.996 152.005 212.147 151.502 212.519 151.1C212.891 150.698 213.384 150.497 213.997 150.497C214.61 150.497 215.063 150.698 215.435 151.1C215.807 151.502 215.968 151.985 215.917 152.548C215.857 153.161 215.616 153.634 215.173 153.955C214.741 154.277 214.379 154.529 214.077 154.709C214.218 154.88 214.55 155.303 215.073 155.976C215.596 156.65 215.887 157.012 215.917 157.062C216.078 156.781 216.199 156.459 216.289 156.107C216.38 155.755 216.43 155.433 216.44 155.132H217.174C217.134 155.564 217.034 156.017 216.903 156.489C216.772 156.962 216.601 157.364 216.4 157.696L217.607 159.264H216.672L216.692 159.294ZM214.6 158.5C214.972 158.309 215.274 158.058 215.525 157.756C215.505 157.726 215.183 157.314 214.57 156.519C213.957 155.725 213.585 155.252 213.454 155.082C213.092 155.293 212.74 155.554 212.378 155.856C212.026 156.157 211.835 156.56 211.825 157.082C211.815 157.545 211.976 157.947 212.308 158.269C212.64 158.591 213.042 158.762 213.514 158.772C213.876 158.772 214.248 158.691 214.61 158.5H214.6ZM214.63 153.553C214.942 153.312 215.133 153 215.194 152.598C215.254 152.236 215.173 151.914 214.942 151.633C214.711 151.351 214.409 151.21 214.017 151.21C213.585 151.21 213.263 151.351 213.052 151.623C212.841 151.894 212.75 152.196 212.78 152.528C212.811 152.809 212.921 153.091 213.122 153.392C213.313 153.694 213.494 153.945 213.655 154.146C213.987 153.975 214.319 153.774 214.63 153.543V153.553Z" fill="white"/>
<path d="M224.535 159.154V150.818H229.824V151.542H225.269V154.478H229.643V155.192H225.269V158.45H229.914V159.164H224.535V159.154Z" fill="white"/>
<path d="M236.68 159.154L232.437 151.995V159.154H231.703V150.818H232.578L236.841 157.967V150.818H237.575V159.154H236.68Z" fill="white"/>
<path d="M245.439 159.174V157.867C245.207 158.299 244.876 158.671 244.423 158.963C243.981 159.254 243.468 159.405 242.905 159.405C241.849 159.405 241.015 159.003 240.401 158.178C239.788 157.364 239.486 156.308 239.486 155.011C239.486 153.714 239.798 152.679 240.411 151.864C241.025 151.05 241.849 150.647 242.905 150.647C243.9 150.647 244.664 150.959 245.167 151.593C245.68 152.216 245.992 152.779 246.102 153.272H245.298C245.167 152.849 244.916 152.437 244.534 152.015C244.152 151.603 243.609 151.392 242.905 151.392C242.101 151.392 241.467 151.733 240.995 152.407C240.522 153.081 240.291 153.955 240.291 155.021C240.291 156.087 240.522 156.962 240.995 157.646C241.467 158.319 242.101 158.661 242.895 158.661C243.689 158.661 244.303 158.38 244.755 157.816C245.197 157.253 245.429 156.65 245.439 156.017V155.675H243.005V154.971H246.183V159.184H245.439V159.174Z" fill="white"/>
<path d="M248.283 159.154V150.818H249.017V159.154H248.283Z" fill="white"/>
<path d="M256.237 159.154L251.994 151.995V159.154H251.26V150.818H252.145L256.398 157.967V150.818H257.132V159.154H256.237Z" fill="white"/>
<path d="M259.365 159.154V150.818H264.654V151.542H260.099V154.478H264.473V155.192H260.099V158.45H264.744V159.164H259.365V159.154Z" fill="white"/>
<path d="M266.523 159.154V150.818H271.812V151.542H267.257V154.478H271.621V155.192H267.257V158.45H271.903V159.164H266.523V159.154Z" fill="white"/>
<path d="M278.93 159.154L276.758 155.645H274.425V159.154H273.691V150.818H276.899C277.643 150.818 278.246 151.04 278.719 151.492C279.181 151.944 279.423 152.518 279.423 153.211C279.423 153.815 279.232 154.327 278.87 154.74C278.498 155.152 278.085 155.433 277.613 155.554L279.825 159.144H278.93V159.154ZM278.065 154.529C278.437 154.257 278.628 153.825 278.628 153.242C278.628 152.658 278.447 152.206 278.085 151.944C277.723 151.683 277.331 151.552 276.909 151.552H274.435V154.941H276.869C277.301 154.941 277.693 154.8 278.075 154.529H278.065Z" fill="white"/>
<path d="M286.41 155.816C286.662 156.208 286.762 156.65 286.712 157.133C286.642 157.756 286.37 158.289 285.878 158.752C285.395 159.214 284.711 159.445 283.816 159.445C282.821 159.445 282.077 159.134 281.574 158.52C281.071 157.907 280.83 157.213 280.83 156.439H281.614C281.614 157.213 281.825 157.776 282.258 158.148C282.69 158.52 283.213 158.711 283.836 158.711C284.399 158.711 284.862 158.571 285.244 158.279C285.626 157.997 285.857 157.615 285.918 157.153C285.978 156.781 285.918 156.469 285.717 156.208C285.526 155.956 285.274 155.755 284.952 155.594C284.621 155.434 284.239 155.323 283.836 155.263C283.424 155.202 283.032 155.102 282.65 154.961C282.157 154.77 281.765 154.498 281.484 154.167C281.212 153.835 281.081 153.392 281.102 152.829C281.122 152.286 281.353 151.774 281.785 151.271C282.218 150.768 282.881 150.527 283.766 150.527C284.802 150.527 285.516 150.859 285.918 151.522C286.31 152.186 286.501 152.739 286.491 153.191H285.707C285.707 152.669 285.546 152.216 285.204 151.834C284.852 151.452 284.379 151.261 283.776 151.261C283.173 151.261 282.761 151.422 282.429 151.723C282.097 152.035 281.926 152.397 281.916 152.829C281.916 153.262 282.017 153.583 282.258 153.795C282.499 153.996 282.751 154.157 283.022 154.247C283.283 154.348 283.635 154.428 284.068 154.498C284.51 154.569 284.942 154.7 285.375 154.901C285.817 155.102 286.159 155.393 286.42 155.785V155.816H286.41Z" fill="white"/>
<path d="M140.076 145.932V135.988L128 123.781H135.28L143.172 132.036L151.196 123.781H157.561L145.485 135.887V145.932H140.076Z" fill="white"/>
<path d="M156.977 129C156.977 126.989 157.369 125.611 158.153 124.877C158.938 124.144 160.466 123.771 162.738 123.771H179.811C182.103 123.771 183.632 124.133 184.406 124.877C185.18 125.611 185.572 126.979 185.572 129V140.704C185.572 142.725 185.18 144.102 184.376 144.826C183.582 145.56 182.063 145.922 179.801 145.922H162.728C160.456 145.922 158.927 145.56 158.143 144.826C157.359 144.102 156.967 142.725 156.967 140.704V129H156.977ZM162.386 141.699H180.163V127.844H162.386V141.699Z" fill="white"/>
<path d="M187.594 129C187.594 126.989 187.986 125.611 188.77 124.877C189.554 124.144 191.083 123.771 193.355 123.771H210.418C212.71 123.771 214.239 124.133 215.023 124.877C215.797 125.611 216.179 126.979 216.179 129V140.704C216.179 142.725 215.787 144.102 214.993 144.826C214.198 145.56 212.67 145.922 210.418 145.922H193.355C191.083 145.922 189.554 145.56 188.77 144.826C187.986 144.102 187.594 142.725 187.594 140.704V129ZM193.003 141.699H210.79V127.844H193.003V141.699Z" fill="white"/>
<path d="M218.815 145.932V123.781H223.118L233.957 136.933L244.766 123.781H249.12V145.932H244.082V130.689L234.188 143.277H233.133L223.108 131.051V145.932H218.805H218.815Z" fill="white"/>
<path d="M252.166 145.932V123.781H257.505V145.932H252.166Z" fill="white"/>
<path d="M260.592 145.932V123.781H264.302L283.114 138.491V123.781H288.001V145.932H284.261L265.478 130.99V145.932H260.592Z" fill="white"/>
<path d="M257.394 118H252.125V122.846H257.394V118Z" fill="white"/>
</g>
<defs>
<clipPath id="clip0_121_694">
<rect width="160" height="41.5157" fill="white" transform="translate(128 118)"/>
</clipPath>
</defs>
</svg>
